<?xml version='1.0' encoding='UTF-8' standalone='no'?>
<!-- Created with Fritzing (http://www.fritzing.org/) -->
<svg xmlns="http://www.w3.org/2000/svg"  x="0in" viewBox="0 0 141.732 158.74" y="0in" height="2.20472in" xmlns:svg="http://www.w3.org/2000/svg" version="1.2" width="1.9685in" baseProfile="tiny">
 <g partID="57362">
  <g id="silkscreen0">
   <rect stroke="black" x="0.288" y="0.288" height="158.164" stroke-width="0.576" width="141.156" fill="none"/>
  </g>
 </g>
 <g partID="57360">
  <g id="board">
   <rect stroke="black" x="0.288" y="0.288" height="158.164" id="boardoutline" stroke-width="0.5" fill-opacity="0.5" width="141.156" fill="none"/>
  </g>
 </g>
 <g partID="57362">
  <g id="silkscreen0">
   <rect stroke="black" x="0.288" y="0.288" height="158.164" stroke-width="0.576" width="141.156" fill="none"/>
  </g>
 </g>
 <g partID="854508370">
  <g transform="translate(134.574,142.764)">
   <g transform="matrix(0,1,-1,0,0,0)">
    <g id="copper0">
     <circle stroke="white" id="connector0pin" stroke-width="2.16" cx="5.04" cy="5.04" fill="white" r="2.088"/>
     <circle stroke="white" id="connector1pin" stroke-width="2.16" cx="5.04" cy="12.24" fill="white" r="2.088"/>
    </g>
   </g>
  </g>
 </g>
 <g partID="854464410">
  <g transform="translate(26.0343,130.308)">
   <g id="copper0">
    <g id="copper1">
     <!-- <rect width="55" x="10" y="15.5" fill="none" height="55" stroke="rgb(255, 191, 0)" stroke-width="20" />  -->
     <circle stroke="white" id="connector0pin" stroke-width="2.16" cx="2.7" fill="white" cy="3.096" r="1.98"/>
     <circle stroke="white" id="connector1pin" stroke-width="2.16" cx="31.5" fill="white" cy="3.096" r="1.98"/>
    </g>
   </g>
  </g>
 </g>
 <g partID="854180060">
  <g transform="translate(83.4543,71.4839)">
   <g transform="matrix(0,1,-1,0,0,0)">
    <g gorn="0.2.0" id="copper0">
     <rect x="2.34" stroke="white" y="2.34" height="3.96" gorn="0.2.0.0" id="square" stroke-width="2.16" width="3.96" fill="white"/>
     <circle stroke="white" gorn="0.2.0.1" id="connector0pin" stroke-width="2.16" cx="4.32" fill="white" cy="4.32" r="1.98"/>
     <circle stroke="white" gorn="0.2.0.2" id="connector17pin" stroke-width="2.16" cx="25.92" fill="white" cy="4.32" r="1.98"/>
     <circle stroke="white" gorn="0.2.0.3" id="connector1pin" stroke-width="2.16" cx="4.32" fill="white" cy="11.52" r="1.98"/>
     <circle stroke="white" gorn="0.2.0.4" id="connector16pin" stroke-width="2.16" cx="25.92" fill="white" cy="11.52" r="1.98"/>
     <circle stroke="white" gorn="0.2.0.5" id="connector2pin" stroke-width="2.16" cx="4.32" fill="white" cy="18.72" r="1.98"/>
     <circle stroke="white" gorn="0.2.0.6" id="connector15pin" stroke-width="2.16" cx="25.92" fill="white" cy="18.72" r="1.98"/>
     <circle stroke="white" gorn="0.2.0.7" id="connector3pin" stroke-width="2.16" cx="4.32" fill="white" cy="25.92" r="1.98"/>
     <circle stroke="white" gorn="0.2.0.8" id="connector14pin" stroke-width="2.16" cx="25.92" fill="white" cy="25.92" r="1.98"/>
     <circle stroke="white" gorn="0.2.0.9" id="connector4pin" stroke-width="2.16" cx="4.32" fill="white" cy="33.12" r="1.98"/>
     <circle stroke="white" gorn="0.2.0.10" id="connector13pin" stroke-width="2.16" cx="25.92" fill="white" cy="33.12" r="1.98"/>
     <circle stroke="white" gorn="0.2.0.11" id="connector5pin" stroke-width="2.16" cx="4.32" fill="white" cy="40.32" r="1.98"/>
     <circle stroke="white" gorn="0.2.0.12" id="connector12pin" stroke-width="2.16" cx="25.92" fill="white" cy="40.32" r="1.98"/>
     <circle stroke="white" gorn="0.2.0.13" id="connector6pin" stroke-width="2.16" cx="4.32" fill="white" cy="47.52" r="1.98"/>
     <circle stroke="white" gorn="0.2.0.14" id="connector11pin" stroke-width="2.16" cx="25.92" fill="white" cy="47.52" r="1.98"/>
     <circle stroke="white" gorn="0.2.0.15" id="connector7pin" stroke-width="2.16" cx="4.32" fill="white" cy="54.72" r="1.98"/>
     <circle stroke="white" gorn="0.2.0.16" id="connector10pin" stroke-width="2.16" cx="25.92" fill="white" cy="54.72" r="1.98"/>
     <circle stroke="white" gorn="0.2.0.17" id="connector8pin" stroke-width="2.16" cx="4.32" fill="white" cy="61.92" r="1.98"/>
     <circle stroke="white" gorn="0.2.0.18" id="connector9pin" stroke-width="2.16" cx="25.92" fill="white" cy="61.92" r="1.98"/>
    </g>
   </g>
  </g>
 </g>
 <g partID="854180840">
  <g transform="translate(127.449,101.868)">
   <g transform="matrix(-1,0,0,-1,0,0)">
    <g id="copper0">
     <circle stroke="white" id="connector2pad" stroke-width="2.808" cx="3.528" cy="22.464" fill="white" r="2.52"/>
     <rect stroke="white" x="1.008" y="5.544" height="5.04" stroke-width="2.808" width="5.04" fill="white"/>
     <circle stroke="white" id="connector0pad" stroke-width="2.808" cx="3.528" cy="8.064" fill="white" r="2.52"/>
     <circle stroke="white" id="connector1pad" stroke-width="2.808" cx="32.328" cy="15.264" fill="white" r="2.52"/>
    </g>
   </g>
  </g>
 </g>
 <g partID="854180870">
  <g transform="translate(90.8343,108.708)">
   <g id="copper0">
    <g id="copper1">
     <!-- <rect width="55" x="10" y="15.5" fill="none" height="55" stroke="rgb(255, 191, 0)" stroke-width="20" />  -->
     <circle stroke="white" id="connector0pin" stroke-width="2.16" cx="2.7" fill="white" cy="3.096" r="1.98"/>
     <circle stroke="white" id="connector1pin" stroke-width="2.16" cx="31.5" fill="white" cy="3.096" r="1.98"/>
    </g>
   </g>
  </g>
 </g>
 <g partID="854181460">
  <g transform="translate(90.8343,123.108)">
   <g id="copper0">
    <g id="copper1">
     <!-- <rect width="55" x="10" y="15.5" fill="none" height="55" stroke="rgb(255, 191, 0)" stroke-width="20" />  -->
     <circle stroke="white" id="connector0pin" stroke-width="2.16" cx="2.7" fill="white" cy="3.096" r="1.98"/>
     <circle stroke="white" id="connector1pin" stroke-width="2.16" cx="31.5" fill="white" cy="3.096" r="1.98"/>
    </g>
   </g>
  </g>
 </g>
 <g partID="854181570">
  <g transform="translate(125.034,122.1)">
   <g transform="matrix(-1,0,0,-1,0,0)">
    <g id="copper0">
     <g id="copper1">
      <!-- <rect width="55" x="10" y="15.5" fill="none" height="55" stroke="rgb(255, 191, 0)" stroke-width="20" />  -->
      <circle stroke="white" id="connector0pin" stroke-width="2.16" cx="2.7" fill="white" cy="3.096" r="1.98"/>
      <circle stroke="white" id="connector1pin" stroke-width="2.16" cx="31.5" fill="white" cy="3.096" r="1.98"/>
     </g>
    </g>
   </g>
  </g>
 </g>
 <g partID="854188650">
  <g transform="translate(26.0343,108.708)">
   <g id="copper0">
    <g id="copper1">
     <!-- <rect width="55" x="10" y="15.5" fill="none" height="55" stroke="rgb(255, 191, 0)" stroke-width="20" />  -->
     <circle stroke="white" id="connector0pin" stroke-width="2.16" cx="2.7" fill="white" cy="3.096" r="1.98"/>
     <circle stroke="white" id="connector1pin" stroke-width="2.16" cx="31.5" fill="white" cy="3.096" r="1.98"/>
    </g>
   </g>
  </g>
 </g>
 <g partID="854189330">
  <g transform="translate(60.2343,122.1)">
   <g transform="matrix(-1,3.14012e-16,-3.14012e-16,-1,0,0)">
    <g id="copper0">
     <g id="copper1">
      <!-- <rect width="55" x="10" y="15.5" fill="none" height="55" stroke="rgb(255, 191, 0)" stroke-width="20" />  -->
      <circle stroke="white" id="connector0pin" stroke-width="2.16" cx="2.7" fill="white" cy="3.096" r="1.98"/>
      <circle stroke="white" id="connector1pin" stroke-width="2.16" cx="31.5" fill="white" cy="3.096" r="1.98"/>
     </g>
    </g>
   </g>
  </g>
 </g>
 <g partID="854189750">
  <g transform="translate(60.2343,129.3)">
   <g transform="matrix(-1,0,0,-1,0,0)">
    <g id="copper0">
     <g id="copper1">
      <!-- <rect width="55" x="10" y="15.5" fill="none" height="55" stroke="rgb(255, 191, 0)" stroke-width="20" />  -->
      <circle stroke="white" id="connector0pin" stroke-width="2.16" cx="2.7" fill="white" cy="3.096" r="1.98"/>
      <circle stroke="white" id="connector1pin" stroke-width="2.16" cx="31.5" fill="white" cy="3.096" r="1.98"/>
     </g>
    </g>
   </g>
  </g>
 </g>
 <g partID="854250720">
  <g transform="translate(42.8487,152.296)">
   <g transform="matrix(0,-1,1,0,0,0)">
    <g id="copper0">
     <circle stroke="white" id="connector0pin" stroke-width="2.16" cx="5.04" cy="5.04" fill="white" r="2.088"/>
     <circle stroke="white" id="connector1pin" stroke-width="2.16" cx="5.04" cy="12.24" fill="white" r="2.088"/>
     <circle stroke="white" id="connector2pin" stroke-width="2.16" cx="5.04" cy="19.44" fill="white" r="2.088"/>
    </g>
   </g>
  </g>
 </g>
 <g partID="854509550">
  <g transform="translate(26.5743,152.844)">
   <g transform="matrix(-1,0,0,-1,0,0)">
    <g id="copper0">
     <circle stroke="white" id="connector0pin" stroke-width="2.16" cx="5.04" cy="5.04" fill="white" r="1.71212"/>
     <circle stroke="white" id="connector0pin" stroke-width="2.16" cx="5.04" cy="5.04" fill="white" r="1.71212"/>
     <circle stroke="white" id="connector1pin" stroke-width="2.16" cx="12.24" cy="5.04" fill="white" r="1.71212"/>
    </g>
   </g>
  </g>
 </g>
 <g partID="854282700">
  <g transform="translate(6.55832,1.78792)">
   <g id="copper0">
    <circle connectorname="IN" stroke="white" id="connector1pad" stroke-width="1.44" cx="7.776" cy="52.416" r="1.8" fill="white"/>
    <path d="m7.776,48.096a2.16,2.16,0,0,1,2.16,2.16l0,4.32a2.16,2.16,0,0,1,-2.16,2.16l0,0a2.16,2.16,0,0,1,-2.16,-2.16l0,-4.32a2.16,2.16,0,0,1,2.16,-2.16l0,0zM6.336,52.416a1.44,1.44,0,1,0,2.88,0,1.44,1.44,0,1,0,-2.88,0z" stroke="white" stroke-width="0.72" fill="white"/>
    <circle connectorname="GND" stroke="white" id="connector0pad" stroke-width="1.44" cx="14.976" cy="52.416" r="1.8" fill="white"/>
    <path d="m14.976,48.096a2.16,2.16,0,0,1,2.16,2.16l0,4.32a2.16,2.16,0,0,1,-2.16,2.16l0,0a2.16,2.16,0,0,1,-2.16,-2.16l0,-4.32a2.16,2.16,0,0,1,2.16,-2.16l0,0zM13.536,52.416a1.44,1.44,0,1,0,2.88,0,1.44,1.44,0,1,0,-2.88,0z" stroke="white" stroke-width="0.72" fill="white"/>
    <circle connectorname="OUT" stroke="white" id="connector2pad" stroke-width="1.44" cx="22.176" cy="52.416" r="1.8" fill="white"/>
    <path d="m22.176,48.096a2.16,2.16,0,0,1,2.16,2.16l0,4.32a2.16,2.16,0,0,1,-2.16,2.16l0,0a2.16,2.16,0,0,1,-2.16,-2.16l0,-4.32a2.16,2.16,0,0,1,2.16,-2.16l0,0zM20.736,52.416a1.44,1.44,0,1,0,2.88,0,1.44,1.44,0,1,0,-2.88,0z" stroke="white" stroke-width="0.72" fill="white"/>
    <circle stroke="white" stroke-width="0.72" id="nonconn1" cx="14.976" cy="9.936" r="4.68" fill="white"/>
   </g>
  </g>
 </g>
 <g partID="854423280">
  <g transform="translate(100.158,1.78792)">
   <g id="copper0">
    <circle connectorname="IN" stroke="white" id="connector1pad" stroke-width="1.44" cx="7.776" cy="52.416" r="1.8" fill="white"/>
    <path d="m7.776,48.096a2.16,2.16,0,0,1,2.16,2.16l0,4.32a2.16,2.16,0,0,1,-2.16,2.16l0,0a2.16,2.16,0,0,1,-2.16,-2.16l0,-4.32a2.16,2.16,0,0,1,2.16,-2.16l0,0zM6.336,52.416a1.44,1.44,0,1,0,2.88,0,1.44,1.44,0,1,0,-2.88,0z" stroke="white" stroke-width="0.72" fill="white"/>
    <circle connectorname="GND" stroke="white" id="connector0pad" stroke-width="1.44" cx="14.976" cy="52.416" r="1.8" fill="white"/>
    <path d="m14.976,48.096a2.16,2.16,0,0,1,2.16,2.16l0,4.32a2.16,2.16,0,0,1,-2.16,2.16l0,0a2.16,2.16,0,0,1,-2.16,-2.16l0,-4.32a2.16,2.16,0,0,1,2.16,-2.16l0,0zM13.536,52.416a1.44,1.44,0,1,0,2.88,0,1.44,1.44,0,1,0,-2.88,0z" stroke="white" stroke-width="0.72" fill="white"/>
    <circle connectorname="OUT" stroke="white" id="connector2pad" stroke-width="1.44" cx="22.176" cy="52.416" r="1.8" fill="white"/>
    <path d="m22.176,48.096a2.16,2.16,0,0,1,2.16,2.16l0,4.32a2.16,2.16,0,0,1,-2.16,2.16l0,0a2.16,2.16,0,0,1,-2.16,-2.16l0,-4.32a2.16,2.16,0,0,1,2.16,-2.16l0,0zM20.736,52.416a1.44,1.44,0,1,0,2.88,0,1.44,1.44,0,1,0,-2.88,0z" stroke="white" stroke-width="0.72" fill="white"/>
    <circle stroke="white" stroke-width="0.72" id="nonconn1" cx="14.976" cy="9.936" r="4.68" fill="white"/>
   </g>
  </g>
 </g>
 <g partID="854283810">
  <g transform="translate(64.1583,1.78792)">
   <g id="copper0">
    <circle connectorname="IN" stroke="white" id="connector1pad" stroke-width="1.44" cx="7.776" cy="52.416" r="1.8" fill="white"/>
    <path d="m7.776,48.096a2.16,2.16,0,0,1,2.16,2.16l0,4.32a2.16,2.16,0,0,1,-2.16,2.16l0,0a2.16,2.16,0,0,1,-2.16,-2.16l0,-4.32a2.16,2.16,0,0,1,2.16,-2.16l0,0zM6.336,52.416a1.44,1.44,0,1,0,2.88,0,1.44,1.44,0,1,0,-2.88,0z" stroke="white" stroke-width="0.72" fill="white"/>
    <circle connectorname="GND" stroke="white" id="connector0pad" stroke-width="1.44" cx="14.976" cy="52.416" r="1.8" fill="white"/>
    <path d="m14.976,48.096a2.16,2.16,0,0,1,2.16,2.16l0,4.32a2.16,2.16,0,0,1,-2.16,2.16l0,0a2.16,2.16,0,0,1,-2.16,-2.16l0,-4.32a2.16,2.16,0,0,1,2.16,-2.16l0,0zM13.536,52.416a1.44,1.44,0,1,0,2.88,0,1.44,1.44,0,1,0,-2.88,0z" stroke="white" stroke-width="0.72" fill="white"/>
    <circle connectorname="OUT" stroke="white" id="connector2pad" stroke-width="1.44" cx="22.176" cy="52.416" r="1.8" fill="white"/>
    <path d="m22.176,48.096a2.16,2.16,0,0,1,2.16,2.16l0,4.32a2.16,2.16,0,0,1,-2.16,2.16l0,0a2.16,2.16,0,0,1,-2.16,-2.16l0,-4.32a2.16,2.16,0,0,1,2.16,-2.16l0,0zM20.736,52.416a1.44,1.44,0,1,0,2.88,0,1.44,1.44,0,1,0,-2.88,0z" stroke="white" stroke-width="0.72" fill="white"/>
    <circle stroke="white" stroke-width="0.72" id="nonconn1" cx="14.976" cy="9.936" r="4.68" fill="white"/>
   </g>
  </g>
 </g>
 <g partID="854283970">
  <g transform="translate(81.2943,152.296)">
   <g transform="matrix(0,-1,1,0,0,0)">
    <g id="copper0">
     <circle stroke="white" id="connector0pin" stroke-width="2.16" cx="5.04" cy="5.04" fill="white" r="2.088"/>
     <circle stroke="white" id="connector1pin" stroke-width="2.16" cx="5.04" cy="12.24" fill="white" r="2.088"/>
     <circle stroke="white" id="connector2pin" stroke-width="2.16" cx="5.04" cy="19.44" fill="white" r="2.088"/>
    </g>
   </g>
  </g>
 </g>
</svg>
