G04 #@! TF.FileFunction,Legend,Top*
%FSLAX46Y46*%
G04 Gerber Fmt 4.6, Leading zero omitted, Abs format (unit mm)*
G04 Created by KiCad (PCBNEW 4.0.2-4+6225~38~ubuntu15.10.1-stable) date ven. 08 avril 2016 18:13:18 CEST*
%MOMM*%
G01*
G04 APERTURE LIST*
%ADD10C,0.100000*%
%ADD11C,0.300000*%
%ADD12C,0.250000*%
%ADD13C,0.150000*%
G04 APERTURE END LIST*
D10*
D11*
X102854286Y-80698571D02*
X102854286Y-81912857D01*
X102782857Y-82055714D01*
X102711429Y-82127143D01*
X102568572Y-82198571D01*
X102354286Y-82198571D01*
X102211429Y-82127143D01*
X102854286Y-81627143D02*
X102711429Y-81698571D01*
X102425715Y-81698571D01*
X102282857Y-81627143D01*
X102211429Y-81555714D01*
X102140000Y-81412857D01*
X102140000Y-80984286D01*
X102211429Y-80841429D01*
X102282857Y-80770000D01*
X102425715Y-80698571D01*
X102711429Y-80698571D01*
X102854286Y-80770000D01*
X103568572Y-80698571D02*
X103568572Y-81698571D01*
X103568572Y-80841429D02*
X103640000Y-80770000D01*
X103782858Y-80698571D01*
X103997143Y-80698571D01*
X104140000Y-80770000D01*
X104211429Y-80912857D01*
X104211429Y-81698571D01*
X105568572Y-81698571D02*
X105568572Y-80198571D01*
X105568572Y-81627143D02*
X105425715Y-81698571D01*
X105140001Y-81698571D01*
X104997143Y-81627143D01*
X104925715Y-81555714D01*
X104854286Y-81412857D01*
X104854286Y-80984286D01*
X104925715Y-80841429D01*
X104997143Y-80770000D01*
X105140001Y-80698571D01*
X105425715Y-80698571D01*
X105568572Y-80770000D01*
X103604287Y-82738571D02*
X102890001Y-82738571D01*
X102818572Y-83452857D01*
X102890001Y-83381429D01*
X103032858Y-83310000D01*
X103390001Y-83310000D01*
X103532858Y-83381429D01*
X103604287Y-83452857D01*
X103675715Y-83595714D01*
X103675715Y-83952857D01*
X103604287Y-84095714D01*
X103532858Y-84167143D01*
X103390001Y-84238571D01*
X103032858Y-84238571D01*
X102890001Y-84167143D01*
X102818572Y-84095714D01*
X104104286Y-82738571D02*
X104604286Y-84238571D01*
X105104286Y-82738571D01*
X125037144Y-101788571D02*
X125037144Y-102860000D01*
X124965716Y-103074286D01*
X124822859Y-103217143D01*
X124608573Y-103288571D01*
X124465716Y-103288571D01*
X125965716Y-103288571D02*
X125822858Y-103217143D01*
X125751430Y-103145714D01*
X125680001Y-103002857D01*
X125680001Y-102574286D01*
X125751430Y-102431429D01*
X125822858Y-102360000D01*
X125965716Y-102288571D01*
X126180001Y-102288571D01*
X126322858Y-102360000D01*
X126394287Y-102431429D01*
X126465716Y-102574286D01*
X126465716Y-103002857D01*
X126394287Y-103145714D01*
X126322858Y-103217143D01*
X126180001Y-103288571D01*
X125965716Y-103288571D01*
X127751430Y-102288571D02*
X127751430Y-103288571D01*
X127108573Y-102288571D02*
X127108573Y-103074286D01*
X127180001Y-103217143D01*
X127322859Y-103288571D01*
X127537144Y-103288571D01*
X127680001Y-103217143D01*
X127751430Y-103145714D01*
X128465716Y-103288571D02*
X128465716Y-101788571D01*
X128608573Y-102717143D02*
X129037144Y-103288571D01*
X129037144Y-102288571D02*
X128465716Y-102860000D01*
X130251430Y-103217143D02*
X130108573Y-103288571D01*
X129822859Y-103288571D01*
X129680002Y-103217143D01*
X129608573Y-103074286D01*
X129608573Y-102502857D01*
X129680002Y-102360000D01*
X129822859Y-102288571D01*
X130108573Y-102288571D01*
X130251430Y-102360000D01*
X130322859Y-102502857D01*
X130322859Y-102645714D01*
X129608573Y-102788571D01*
X132108573Y-103288571D02*
X132108573Y-101788571D01*
X132108573Y-102502857D02*
X132965716Y-102502857D01*
X132965716Y-103288571D02*
X132965716Y-101788571D01*
X133680002Y-103288571D02*
X133680002Y-102288571D01*
X133680002Y-101788571D02*
X133608573Y-101860000D01*
X133680002Y-101931429D01*
X133751430Y-101860000D01*
X133680002Y-101788571D01*
X133680002Y-101931429D01*
X134394288Y-102288571D02*
X134394288Y-103574286D01*
X134322859Y-103717143D01*
X134180002Y-103788571D01*
X134108574Y-103788571D01*
X134394288Y-101788571D02*
X134322859Y-101860000D01*
X134394288Y-101931429D01*
X134465716Y-101860000D01*
X134394288Y-101788571D01*
X134394288Y-101931429D01*
X135322860Y-103288571D02*
X135180002Y-103217143D01*
X135108574Y-103074286D01*
X135108574Y-101788571D01*
X135894288Y-103288571D02*
X135894288Y-101788571D01*
X136037145Y-102717143D02*
X136465716Y-103288571D01*
X136465716Y-102288571D02*
X135894288Y-102860000D01*
X137680002Y-103217143D02*
X137537145Y-103288571D01*
X137251431Y-103288571D01*
X137108574Y-103217143D01*
X137037145Y-103074286D01*
X137037145Y-102502857D01*
X137108574Y-102360000D01*
X137251431Y-102288571D01*
X137537145Y-102288571D01*
X137680002Y-102360000D01*
X137751431Y-102502857D01*
X137751431Y-102645714D01*
X137037145Y-102788571D01*
X138394288Y-103288571D02*
X138394288Y-102288571D01*
X138394288Y-102431429D02*
X138465716Y-102360000D01*
X138608574Y-102288571D01*
X138822859Y-102288571D01*
X138965716Y-102360000D01*
X139037145Y-102502857D01*
X139037145Y-103288571D01*
X139037145Y-102502857D02*
X139108574Y-102360000D01*
X139251431Y-102288571D01*
X139465716Y-102288571D01*
X139608574Y-102360000D01*
X139680002Y-102502857D01*
X139680002Y-103288571D01*
X141037145Y-103288571D02*
X141037145Y-102502857D01*
X140965716Y-102360000D01*
X140822859Y-102288571D01*
X140537145Y-102288571D01*
X140394288Y-102360000D01*
X141037145Y-103217143D02*
X140894288Y-103288571D01*
X140537145Y-103288571D01*
X140394288Y-103217143D01*
X140322859Y-103074286D01*
X140322859Y-102931429D01*
X140394288Y-102788571D01*
X140537145Y-102717143D01*
X140894288Y-102717143D01*
X141037145Y-102645714D01*
X142822859Y-101931429D02*
X142894288Y-101860000D01*
X143037145Y-101788571D01*
X143394288Y-101788571D01*
X143537145Y-101860000D01*
X143608574Y-101931429D01*
X143680002Y-102074286D01*
X143680002Y-102217143D01*
X143608574Y-102431429D01*
X142751431Y-103288571D01*
X143680002Y-103288571D01*
X144608573Y-101788571D02*
X144751430Y-101788571D01*
X144894287Y-101860000D01*
X144965716Y-101931429D01*
X145037145Y-102074286D01*
X145108573Y-102360000D01*
X145108573Y-102717143D01*
X145037145Y-103002857D01*
X144965716Y-103145714D01*
X144894287Y-103217143D01*
X144751430Y-103288571D01*
X144608573Y-103288571D01*
X144465716Y-103217143D01*
X144394287Y-103145714D01*
X144322859Y-103002857D01*
X144251430Y-102717143D01*
X144251430Y-102360000D01*
X144322859Y-102074286D01*
X144394287Y-101931429D01*
X144465716Y-101860000D01*
X144608573Y-101788571D01*
X146537144Y-103288571D02*
X145680001Y-103288571D01*
X146108573Y-103288571D02*
X146108573Y-101788571D01*
X145965716Y-102002857D01*
X145822858Y-102145714D01*
X145680001Y-102217143D01*
X147822858Y-101788571D02*
X147537144Y-101788571D01*
X147394287Y-101860000D01*
X147322858Y-101931429D01*
X147180001Y-102145714D01*
X147108572Y-102431429D01*
X147108572Y-103002857D01*
X147180001Y-103145714D01*
X147251429Y-103217143D01*
X147394287Y-103288571D01*
X147680001Y-103288571D01*
X147822858Y-103217143D01*
X147894287Y-103145714D01*
X147965715Y-103002857D01*
X147965715Y-102645714D01*
X147894287Y-102502857D01*
X147822858Y-102431429D01*
X147680001Y-102360000D01*
X147394287Y-102360000D01*
X147251429Y-102431429D01*
X147180001Y-102502857D01*
X147108572Y-102645714D01*
X149537143Y-101788571D02*
X150037143Y-103288571D01*
X150537143Y-101788571D01*
X150965714Y-101931429D02*
X151037143Y-101860000D01*
X151180000Y-101788571D01*
X151537143Y-101788571D01*
X151680000Y-101860000D01*
X151751429Y-101931429D01*
X151822857Y-102074286D01*
X151822857Y-102217143D01*
X151751429Y-102431429D01*
X150894286Y-103288571D01*
X151822857Y-103288571D01*
X102905714Y-96867143D02*
X103120000Y-96938571D01*
X103477143Y-96938571D01*
X103620000Y-96867143D01*
X103691429Y-96795714D01*
X103762857Y-96652857D01*
X103762857Y-96510000D01*
X103691429Y-96367143D01*
X103620000Y-96295714D01*
X103477143Y-96224286D01*
X103191429Y-96152857D01*
X103048571Y-96081429D01*
X102977143Y-96010000D01*
X102905714Y-95867143D01*
X102905714Y-95724286D01*
X102977143Y-95581429D01*
X103048571Y-95510000D01*
X103191429Y-95438571D01*
X103548571Y-95438571D01*
X103762857Y-95510000D01*
X105262857Y-96795714D02*
X105191428Y-96867143D01*
X104977142Y-96938571D01*
X104834285Y-96938571D01*
X104620000Y-96867143D01*
X104477142Y-96724286D01*
X104405714Y-96581429D01*
X104334285Y-96295714D01*
X104334285Y-96081429D01*
X104405714Y-95795714D01*
X104477142Y-95652857D01*
X104620000Y-95510000D01*
X104834285Y-95438571D01*
X104977142Y-95438571D01*
X105191428Y-95510000D01*
X105262857Y-95581429D01*
X106620000Y-96938571D02*
X105905714Y-96938571D01*
X105905714Y-95438571D01*
X102905714Y-94327143D02*
X103120000Y-94398571D01*
X103477143Y-94398571D01*
X103620000Y-94327143D01*
X103691429Y-94255714D01*
X103762857Y-94112857D01*
X103762857Y-93970000D01*
X103691429Y-93827143D01*
X103620000Y-93755714D01*
X103477143Y-93684286D01*
X103191429Y-93612857D01*
X103048571Y-93541429D01*
X102977143Y-93470000D01*
X102905714Y-93327143D01*
X102905714Y-93184286D01*
X102977143Y-93041429D01*
X103048571Y-92970000D01*
X103191429Y-92898571D01*
X103548571Y-92898571D01*
X103762857Y-92970000D01*
X104405714Y-94398571D02*
X104405714Y-92898571D01*
X104762857Y-92898571D01*
X104977142Y-92970000D01*
X105120000Y-93112857D01*
X105191428Y-93255714D01*
X105262857Y-93541429D01*
X105262857Y-93755714D01*
X105191428Y-94041429D01*
X105120000Y-94184286D01*
X104977142Y-94327143D01*
X104762857Y-94398571D01*
X104405714Y-94398571D01*
X105834285Y-93970000D02*
X106548571Y-93970000D01*
X105691428Y-94398571D02*
X106191428Y-92898571D01*
X106691428Y-94398571D01*
X103762857Y-90430000D02*
X103620000Y-90358571D01*
X103405714Y-90358571D01*
X103191429Y-90430000D01*
X103048571Y-90572857D01*
X102977143Y-90715714D01*
X102905714Y-91001429D01*
X102905714Y-91215714D01*
X102977143Y-91501429D01*
X103048571Y-91644286D01*
X103191429Y-91787143D01*
X103405714Y-91858571D01*
X103548571Y-91858571D01*
X103762857Y-91787143D01*
X103834286Y-91715714D01*
X103834286Y-91215714D01*
X103548571Y-91215714D01*
X104477143Y-91858571D02*
X104477143Y-90358571D01*
X105334286Y-91858571D01*
X105334286Y-90358571D01*
X106048572Y-91858571D02*
X106048572Y-90358571D01*
X106405715Y-90358571D01*
X106620000Y-90430000D01*
X106762858Y-90572857D01*
X106834286Y-90715714D01*
X106905715Y-91001429D01*
X106905715Y-91215714D01*
X106834286Y-91501429D01*
X106762858Y-91644286D01*
X106620000Y-91787143D01*
X106405715Y-91858571D01*
X106048572Y-91858571D01*
D12*
X102834286Y-87818571D02*
X103762857Y-87818571D01*
X103262857Y-88390000D01*
X103477143Y-88390000D01*
X103620000Y-88461429D01*
X103691429Y-88532857D01*
X103762857Y-88675714D01*
X103762857Y-89032857D01*
X103691429Y-89175714D01*
X103620000Y-89247143D01*
X103477143Y-89318571D01*
X103048571Y-89318571D01*
X102905714Y-89247143D01*
X102834286Y-89175714D01*
X104405714Y-89175714D02*
X104477142Y-89247143D01*
X104405714Y-89318571D01*
X104334285Y-89247143D01*
X104405714Y-89175714D01*
X104405714Y-89318571D01*
X104977143Y-87818571D02*
X105905714Y-87818571D01*
X105405714Y-88390000D01*
X105620000Y-88390000D01*
X105762857Y-88461429D01*
X105834286Y-88532857D01*
X105905714Y-88675714D01*
X105905714Y-89032857D01*
X105834286Y-89175714D01*
X105762857Y-89247143D01*
X105620000Y-89318571D01*
X105191428Y-89318571D01*
X105048571Y-89247143D01*
X104977143Y-89175714D01*
X106334285Y-87818571D02*
X106834285Y-89318571D01*
X107334285Y-87818571D01*
D13*
X156468000Y-56128000D02*
X156468000Y-69336000D01*
X143006000Y-56128000D02*
X143006000Y-69336000D01*
X156468000Y-69336000D02*
X143006000Y-69336000D01*
X143768000Y-56128000D02*
X143006000Y-56128000D01*
X156468000Y-56128000D02*
X143768000Y-56128000D01*
X96270000Y-88386000D02*
X96778000Y-88386000D01*
X96778000Y-88386000D02*
X96778000Y-96514000D01*
X96778000Y-96514000D02*
X96270000Y-96514000D01*
X101350000Y-87370000D02*
X101350000Y-97530000D01*
X101350000Y-97530000D02*
X96270000Y-97530000D01*
X96270000Y-97530000D02*
X96270000Y-87370000D01*
X96270000Y-87370000D02*
X101350000Y-87370000D01*
X152900000Y-48960000D02*
X102100000Y-48960000D01*
X104640000Y-54040000D02*
X152900000Y-54040000D01*
X152900000Y-48960000D02*
X152900000Y-54040000D01*
X102100000Y-48960000D02*
X102100000Y-51500000D01*
X101820000Y-52770000D02*
X101820000Y-54320000D01*
X102100000Y-51500000D02*
X104640000Y-51500000D01*
X104640000Y-51500000D02*
X104640000Y-54040000D01*
X101820000Y-54320000D02*
X103370000Y-54320000D01*
X95000000Y-104500000D02*
X95000000Y-48000000D01*
X160000000Y-104500000D02*
X95000000Y-104500000D01*
X160000000Y-48000000D02*
X160000000Y-104500000D01*
X95000000Y-48000000D02*
X160000000Y-48000000D01*
X98175000Y-56890000D02*
X98175000Y-77210000D01*
X103255000Y-56890000D02*
X96905000Y-56890000D01*
X103255000Y-77210000D02*
X96905000Y-77210000D01*
X103255000Y-56890000D02*
X103255000Y-77210000D01*
X96905000Y-56890000D02*
X96905000Y-77210000D01*
X107835000Y-55865000D02*
X107835000Y-57135000D01*
X115185000Y-55865000D02*
X115185000Y-57135000D01*
X115185000Y-78235000D02*
X115185000Y-76965000D01*
X107835000Y-78235000D02*
X107835000Y-76965000D01*
X107835000Y-55865000D02*
X115185000Y-55865000D01*
X107835000Y-78235000D02*
X115185000Y-78235000D01*
X107835000Y-57135000D02*
X106900000Y-57135000D01*
X119130000Y-83560000D02*
X119130000Y-88640000D01*
X119130000Y-88640000D02*
X116590000Y-88640000D01*
X116590000Y-88640000D02*
X116590000Y-83560000D01*
X116590000Y-83560000D02*
X119130000Y-83560000D01*
X124210000Y-83560000D02*
X124210000Y-88640000D01*
X124210000Y-88640000D02*
X121670000Y-88640000D01*
X121670000Y-88640000D02*
X121670000Y-83560000D01*
X121670000Y-83560000D02*
X124210000Y-83560000D01*
X114050000Y-83560000D02*
X114050000Y-88640000D01*
X114050000Y-88640000D02*
X111510000Y-88640000D01*
X111510000Y-88640000D02*
X111510000Y-83560000D01*
X111510000Y-83560000D02*
X114050000Y-83560000D01*
X120690000Y-78065000D02*
X120690000Y-66065000D01*
X120690000Y-66065000D02*
X125190000Y-66065000D01*
X125190000Y-66065000D02*
X125190000Y-78065000D01*
X125190000Y-78065000D02*
X120690000Y-78065000D01*
X121255000Y-97240000D02*
X109255000Y-97240000D01*
X109255000Y-97240000D02*
X109255000Y-92740000D01*
X109255000Y-92740000D02*
X121255000Y-92740000D01*
X121255000Y-92740000D02*
X121255000Y-97240000D01*
X139958000Y-56128000D02*
X139958000Y-69336000D01*
X126496000Y-56128000D02*
X126496000Y-69336000D01*
X139958000Y-69336000D02*
X126496000Y-69336000D01*
X127258000Y-56128000D02*
X126496000Y-56128000D01*
X139958000Y-56128000D02*
X127258000Y-56128000D01*
X100814060Y-83812730D02*
X100814060Y-80772350D01*
X101350000Y-84830000D02*
X101350000Y-79750000D01*
X96270000Y-84830000D02*
X96270000Y-79750000D01*
X101350000Y-83814000D02*
X100842000Y-83814000D01*
X100842000Y-80766000D02*
X101350000Y-80766000D01*
X96270000Y-79750000D02*
X101350000Y-79750000D01*
X101350000Y-84830000D02*
X96270000Y-84830000D01*
X148252858Y-67502381D02*
X147919524Y-67026190D01*
X147681429Y-67502381D02*
X147681429Y-66502381D01*
X148062382Y-66502381D01*
X148157620Y-66550000D01*
X148205239Y-66597619D01*
X148252858Y-66692857D01*
X148252858Y-66835714D01*
X148205239Y-66930952D01*
X148157620Y-66978571D01*
X148062382Y-67026190D01*
X147681429Y-67026190D01*
X148633810Y-67216667D02*
X149110001Y-67216667D01*
X148538572Y-67502381D02*
X148871905Y-66502381D01*
X149205239Y-67502381D01*
X149538572Y-67502381D02*
X149538572Y-66502381D01*
X150014762Y-67502381D02*
X150014762Y-66502381D01*
X150586191Y-67502381D01*
X150586191Y-66502381D01*
X151586191Y-67502381D02*
X151014762Y-67502381D01*
X151300476Y-67502381D02*
X151300476Y-66502381D01*
X151205238Y-66645238D01*
X151110000Y-66740476D01*
X151014762Y-66788095D01*
X97992381Y-93188095D02*
X96992381Y-93188095D01*
X96992381Y-92807142D01*
X97040000Y-92711904D01*
X97087619Y-92664285D01*
X97182857Y-92616666D01*
X97325714Y-92616666D01*
X97420952Y-92664285D01*
X97468571Y-92711904D01*
X97516190Y-92807142D01*
X97516190Y-93188095D01*
X97087619Y-92235714D02*
X97040000Y-92188095D01*
X96992381Y-92092857D01*
X96992381Y-91854761D01*
X97040000Y-91759523D01*
X97087619Y-91711904D01*
X97182857Y-91664285D01*
X97278095Y-91664285D01*
X97420952Y-91711904D01*
X97992381Y-92283333D01*
X97992381Y-91664285D01*
X102822381Y-56024333D02*
X103536667Y-56024333D01*
X103679524Y-56071953D01*
X103774762Y-56167191D01*
X103822381Y-56310048D01*
X103822381Y-56405286D01*
X103822381Y-55024333D02*
X103822381Y-55595762D01*
X103822381Y-55310048D02*
X102822381Y-55310048D01*
X102965238Y-55405286D01*
X103060476Y-55500524D01*
X103108095Y-55595762D01*
X96206667Y-50992381D02*
X95873333Y-50516190D01*
X95635238Y-50992381D02*
X95635238Y-49992381D01*
X96016191Y-49992381D01*
X96111429Y-50040000D01*
X96159048Y-50087619D01*
X96206667Y-50182857D01*
X96206667Y-50325714D01*
X96159048Y-50420952D01*
X96111429Y-50468571D01*
X96016191Y-50516190D01*
X95635238Y-50516190D01*
X96635238Y-50468571D02*
X96968572Y-50468571D01*
X97111429Y-50992381D02*
X96635238Y-50992381D01*
X96635238Y-49992381D01*
X97111429Y-49992381D01*
X97873334Y-50468571D02*
X97540000Y-50468571D01*
X97540000Y-50992381D02*
X97540000Y-49992381D01*
X98016191Y-49992381D01*
X98540000Y-49992381D02*
X98540000Y-50230476D01*
X98301905Y-50135238D02*
X98540000Y-50230476D01*
X98778096Y-50135238D01*
X98397143Y-50420952D02*
X98540000Y-50230476D01*
X98682858Y-50420952D01*
X99301905Y-49992381D02*
X99301905Y-50230476D01*
X99063810Y-50135238D02*
X99301905Y-50230476D01*
X99540001Y-50135238D01*
X99159048Y-50420952D02*
X99301905Y-50230476D01*
X99444763Y-50420952D01*
X108152381Y-72868095D02*
X107152381Y-72868095D01*
X107152381Y-72487142D01*
X107200000Y-72391904D01*
X107247619Y-72344285D01*
X107342857Y-72296666D01*
X107485714Y-72296666D01*
X107580952Y-72344285D01*
X107628571Y-72391904D01*
X107676190Y-72487142D01*
X107676190Y-72868095D01*
X108152381Y-71344285D02*
X108152381Y-71915714D01*
X108152381Y-71630000D02*
X107152381Y-71630000D01*
X107295238Y-71725238D01*
X107390476Y-71820476D01*
X107438095Y-71915714D01*
X106938095Y-52392381D02*
X106938095Y-53201905D01*
X106985714Y-53297143D01*
X107033333Y-53344762D01*
X107128571Y-53392381D01*
X107319048Y-53392381D01*
X107414286Y-53344762D01*
X107461905Y-53297143D01*
X107509524Y-53201905D01*
X107509524Y-52392381D01*
X108509524Y-53392381D02*
X107938095Y-53392381D01*
X108223809Y-53392381D02*
X108223809Y-52392381D01*
X108128571Y-52535238D01*
X108033333Y-52630476D01*
X107938095Y-52678095D01*
X120852381Y-86266666D02*
X120376190Y-86600000D01*
X120852381Y-86838095D02*
X119852381Y-86838095D01*
X119852381Y-86457142D01*
X119900000Y-86361904D01*
X119947619Y-86314285D01*
X120042857Y-86266666D01*
X120185714Y-86266666D01*
X120280952Y-86314285D01*
X120328571Y-86361904D01*
X120376190Y-86457142D01*
X120376190Y-86838095D01*
X120852381Y-85314285D02*
X120852381Y-85885714D01*
X120852381Y-85600000D02*
X119852381Y-85600000D01*
X119995238Y-85695238D01*
X120090476Y-85790476D01*
X120138095Y-85885714D01*
X125932381Y-86266666D02*
X125456190Y-86600000D01*
X125932381Y-86838095D02*
X124932381Y-86838095D01*
X124932381Y-86457142D01*
X124980000Y-86361904D01*
X125027619Y-86314285D01*
X125122857Y-86266666D01*
X125265714Y-86266666D01*
X125360952Y-86314285D01*
X125408571Y-86361904D01*
X125456190Y-86457142D01*
X125456190Y-86838095D01*
X125027619Y-85885714D02*
X124980000Y-85838095D01*
X124932381Y-85742857D01*
X124932381Y-85504761D01*
X124980000Y-85409523D01*
X125027619Y-85361904D01*
X125122857Y-85314285D01*
X125218095Y-85314285D01*
X125360952Y-85361904D01*
X125932381Y-85933333D01*
X125932381Y-85314285D01*
X115772381Y-86266666D02*
X115296190Y-86600000D01*
X115772381Y-86838095D02*
X114772381Y-86838095D01*
X114772381Y-86457142D01*
X114820000Y-86361904D01*
X114867619Y-86314285D01*
X114962857Y-86266666D01*
X115105714Y-86266666D01*
X115200952Y-86314285D01*
X115248571Y-86361904D01*
X115296190Y-86457142D01*
X115296190Y-86838095D01*
X114772381Y-85933333D02*
X114772381Y-85314285D01*
X115153333Y-85647619D01*
X115153333Y-85504761D01*
X115200952Y-85409523D01*
X115248571Y-85361904D01*
X115343810Y-85314285D01*
X115581905Y-85314285D01*
X115677143Y-85361904D01*
X115724762Y-85409523D01*
X115772381Y-85504761D01*
X115772381Y-85790476D01*
X115724762Y-85885714D01*
X115677143Y-85933333D01*
X122027143Y-72296666D02*
X122074762Y-72344285D01*
X122122381Y-72487142D01*
X122122381Y-72582380D01*
X122074762Y-72725238D01*
X121979524Y-72820476D01*
X121884286Y-72868095D01*
X121693810Y-72915714D01*
X121550952Y-72915714D01*
X121360476Y-72868095D01*
X121265238Y-72820476D01*
X121170000Y-72725238D01*
X121122381Y-72582380D01*
X121122381Y-72487142D01*
X121170000Y-72344285D01*
X121217619Y-72296666D01*
X122122381Y-71344285D02*
X122122381Y-71915714D01*
X122122381Y-71630000D02*
X121122381Y-71630000D01*
X121265238Y-71725238D01*
X121360476Y-71820476D01*
X121408095Y-71915714D01*
X115153334Y-96617143D02*
X115105715Y-96664762D01*
X114962858Y-96712381D01*
X114867620Y-96712381D01*
X114724762Y-96664762D01*
X114629524Y-96569524D01*
X114581905Y-96474286D01*
X114534286Y-96283810D01*
X114534286Y-96140952D01*
X114581905Y-95950476D01*
X114629524Y-95855238D01*
X114724762Y-95760000D01*
X114867620Y-95712381D01*
X114962858Y-95712381D01*
X115105715Y-95760000D01*
X115153334Y-95807619D01*
X115534286Y-95807619D02*
X115581905Y-95760000D01*
X115677143Y-95712381D01*
X115915239Y-95712381D01*
X116010477Y-95760000D01*
X116058096Y-95807619D01*
X116105715Y-95902857D01*
X116105715Y-95998095D01*
X116058096Y-96140952D01*
X115486667Y-96712381D01*
X116105715Y-96712381D01*
X130933334Y-66502381D02*
X131171429Y-67502381D01*
X131361906Y-66788095D01*
X131552382Y-67502381D01*
X131790477Y-66502381D01*
X132171429Y-67502381D02*
X132171429Y-66502381D01*
X132647619Y-67502381D02*
X132647619Y-66502381D01*
X133219048Y-67502381D01*
X133219048Y-66502381D01*
X133695238Y-67502381D02*
X133695238Y-66502381D01*
X133933333Y-66502381D01*
X134076191Y-66550000D01*
X134171429Y-66645238D01*
X134219048Y-66740476D01*
X134266667Y-66930952D01*
X134266667Y-67073810D01*
X134219048Y-67264286D01*
X134171429Y-67359524D01*
X134076191Y-67454762D01*
X133933333Y-67502381D01*
X133695238Y-67502381D01*
X135219048Y-67502381D02*
X134647619Y-67502381D01*
X134933333Y-67502381D02*
X134933333Y-66502381D01*
X134838095Y-66645238D01*
X134742857Y-66740476D01*
X134647619Y-66788095D01*
X100532381Y-84742381D02*
X99532381Y-84742381D01*
X99532381Y-84361428D01*
X99580000Y-84266190D01*
X99627619Y-84218571D01*
X99722857Y-84170952D01*
X99865714Y-84170952D01*
X99960952Y-84218571D01*
X100008571Y-84266190D01*
X100056190Y-84361428D01*
X100056190Y-84742381D01*
X100532381Y-83599524D02*
X100484762Y-83694762D01*
X100437143Y-83742381D01*
X100341905Y-83790000D01*
X100056190Y-83790000D01*
X99960952Y-83742381D01*
X99913333Y-83694762D01*
X99865714Y-83599524D01*
X99865714Y-83456666D01*
X99913333Y-83361428D01*
X99960952Y-83313809D01*
X100056190Y-83266190D01*
X100341905Y-83266190D01*
X100437143Y-83313809D01*
X100484762Y-83361428D01*
X100532381Y-83456666D01*
X100532381Y-83599524D01*
X99865714Y-82932857D02*
X100532381Y-82742381D01*
X100056190Y-82551904D01*
X100532381Y-82361428D01*
X99865714Y-82170952D01*
X100484762Y-81409047D02*
X100532381Y-81504285D01*
X100532381Y-81694762D01*
X100484762Y-81790000D01*
X100389524Y-81837619D01*
X100008571Y-81837619D01*
X99913333Y-81790000D01*
X99865714Y-81694762D01*
X99865714Y-81504285D01*
X99913333Y-81409047D01*
X100008571Y-81361428D01*
X100103810Y-81361428D01*
X100199048Y-81837619D01*
X100532381Y-80932857D02*
X99865714Y-80932857D01*
X100056190Y-80932857D02*
X99960952Y-80885238D01*
X99913333Y-80837619D01*
X99865714Y-80742381D01*
X99865714Y-80647142D01*
X100532381Y-79789999D02*
X100532381Y-80361428D01*
X100532381Y-80075714D02*
X99532381Y-80075714D01*
X99675238Y-80170952D01*
X99770476Y-80266190D01*
X99818095Y-80361428D01*
M02*
