M48
METRIC,TZ
T1C0.400
T2C0.762
T3C0.800
T4C0.813
T5C0.900
T6C1.001
T7C1.016
T8C1.200
T9C2.750
T10C3.000
%
G90
G05
T1
X119282Y-65780
T2
X100080Y-79750
X100080Y-82290
X100080Y-84830
X100080Y-87370
T3
X107700Y-58160
X107700Y-60700
X107700Y-63240
X107700Y-65780
X107700Y-68320
X107700Y-70860
X107700Y-73400
X107700Y-75940
X115320Y-58160
X115320Y-60700
X115320Y-63240
X115320Y-65780
X115320Y-68320
X115320Y-70860
X115320Y-73400
X115320Y-75940
T4
X105668Y-94990
X106938Y-92450
X108208Y-94990
X109478Y-92450
X110748Y-94990
X112018Y-92450
X124718Y-94990
X125988Y-92450
X127258Y-94990
X128528Y-92450
X129798Y-94990
X131068Y-92450
T5
X121670Y-65650
X121670Y-73400
X128020Y-65650
X128020Y-73400
T6
X117860Y-79750
X117860Y-87370
X122940Y-79750
X122940Y-87370
X128020Y-79750
X128020Y-87370
T7
X103370Y-50230
X103370Y-52770
X105910Y-50230
X105910Y-52770
X108450Y-50230
X108450Y-52770
X110990Y-50230
X110990Y-52770
X113530Y-50230
X113530Y-52770
X116070Y-50230
X116070Y-52770
X118610Y-50230
X118610Y-52770
X121150Y-50230
X121150Y-52770
X123690Y-50230
X123690Y-52770
X126230Y-50230
X126230Y-52770
X128770Y-50230
X128770Y-52770
X131310Y-50230
X131310Y-52770
X133850Y-50230
X133850Y-52770
X136390Y-50230
X136390Y-52770
X138930Y-50230
X138930Y-52770
X141470Y-50230
X141470Y-52770
X144010Y-50230
X144010Y-52770
X146550Y-50230
X146550Y-52770
X149090Y-50230
X149090Y-52770
X151630Y-50230
X151630Y-52770
T8
X100080Y-58160
X100080Y-60700
X100080Y-63240
X100080Y-65780
X100080Y-68320
X100080Y-70860
X100080Y-73400
X100080Y-75940
T9
X98500Y-51500
X98500Y-101000
X156500Y-51500
X156500Y-101000
T10
X102112Y-97022
X115574Y-97022
X121162Y-97022
X134624Y-97022
T0
M30
