G04 #@! TF.FileFunction,Legend,Top*
%FSLAX46Y46*%
G04 Gerber Fmt 4.6, Leading zero omitted, Abs format (unit mm)*
G04 Created by KiCad (PCBNEW 4.0.2-4+6225~38~ubuntu15.10.1-stable) date sam. 19 mars 2016 16:29:29 CET*
%MOMM*%
G01*
G04 APERTURE LIST*
%ADD10C,0.100000*%
%ADD11C,0.300000*%
%ADD12C,0.250000*%
%ADD13C,0.150000*%
G04 APERTURE END LIST*
D10*
D11*
X157678571Y-79534285D02*
X158750000Y-79534285D01*
X158964286Y-79605713D01*
X159107143Y-79748570D01*
X159178571Y-79962856D01*
X159178571Y-80105713D01*
X159178571Y-78605713D02*
X159107143Y-78748571D01*
X159035714Y-78819999D01*
X158892857Y-78891428D01*
X158464286Y-78891428D01*
X158321429Y-78819999D01*
X158250000Y-78748571D01*
X158178571Y-78605713D01*
X158178571Y-78391428D01*
X158250000Y-78248571D01*
X158321429Y-78177142D01*
X158464286Y-78105713D01*
X158892857Y-78105713D01*
X159035714Y-78177142D01*
X159107143Y-78248571D01*
X159178571Y-78391428D01*
X159178571Y-78605713D01*
X158178571Y-76819999D02*
X159178571Y-76819999D01*
X158178571Y-77462856D02*
X158964286Y-77462856D01*
X159107143Y-77391428D01*
X159178571Y-77248570D01*
X159178571Y-77034285D01*
X159107143Y-76891428D01*
X159035714Y-76819999D01*
X159178571Y-76105713D02*
X157678571Y-76105713D01*
X158607143Y-75962856D02*
X159178571Y-75534285D01*
X158178571Y-75534285D02*
X158750000Y-76105713D01*
X159107143Y-74319999D02*
X159178571Y-74462856D01*
X159178571Y-74748570D01*
X159107143Y-74891427D01*
X158964286Y-74962856D01*
X158392857Y-74962856D01*
X158250000Y-74891427D01*
X158178571Y-74748570D01*
X158178571Y-74462856D01*
X158250000Y-74319999D01*
X158392857Y-74248570D01*
X158535714Y-74248570D01*
X158678571Y-74962856D01*
X159178571Y-72462856D02*
X157678571Y-72462856D01*
X158392857Y-72462856D02*
X158392857Y-71605713D01*
X159178571Y-71605713D02*
X157678571Y-71605713D01*
X159178571Y-70891427D02*
X158178571Y-70891427D01*
X157678571Y-70891427D02*
X157750000Y-70962856D01*
X157821429Y-70891427D01*
X157750000Y-70819999D01*
X157678571Y-70891427D01*
X157821429Y-70891427D01*
X158178571Y-70177141D02*
X159464286Y-70177141D01*
X159607143Y-70248570D01*
X159678571Y-70391427D01*
X159678571Y-70462855D01*
X157678571Y-70177141D02*
X157750000Y-70248570D01*
X157821429Y-70177141D01*
X157750000Y-70105713D01*
X157678571Y-70177141D01*
X157821429Y-70177141D01*
X159178571Y-69248569D02*
X159107143Y-69391427D01*
X158964286Y-69462855D01*
X157678571Y-69462855D01*
X159178571Y-68677141D02*
X157678571Y-68677141D01*
X158607143Y-68534284D02*
X159178571Y-68105713D01*
X158178571Y-68105713D02*
X158750000Y-68677141D01*
X159107143Y-66891427D02*
X159178571Y-67034284D01*
X159178571Y-67319998D01*
X159107143Y-67462855D01*
X158964286Y-67534284D01*
X158392857Y-67534284D01*
X158250000Y-67462855D01*
X158178571Y-67319998D01*
X158178571Y-67034284D01*
X158250000Y-66891427D01*
X158392857Y-66819998D01*
X158535714Y-66819998D01*
X158678571Y-67534284D01*
X159178571Y-66177141D02*
X158178571Y-66177141D01*
X158321429Y-66177141D02*
X158250000Y-66105713D01*
X158178571Y-65962855D01*
X158178571Y-65748570D01*
X158250000Y-65605713D01*
X158392857Y-65534284D01*
X159178571Y-65534284D01*
X158392857Y-65534284D02*
X158250000Y-65462855D01*
X158178571Y-65319998D01*
X158178571Y-65105713D01*
X158250000Y-64962855D01*
X158392857Y-64891427D01*
X159178571Y-64891427D01*
X159178571Y-63534284D02*
X158392857Y-63534284D01*
X158250000Y-63605713D01*
X158178571Y-63748570D01*
X158178571Y-64034284D01*
X158250000Y-64177141D01*
X159107143Y-63534284D02*
X159178571Y-63677141D01*
X159178571Y-64034284D01*
X159107143Y-64177141D01*
X158964286Y-64248570D01*
X158821429Y-64248570D01*
X158678571Y-64177141D01*
X158607143Y-64034284D01*
X158607143Y-63677141D01*
X158535714Y-63534284D01*
X157821429Y-61748570D02*
X157750000Y-61677141D01*
X157678571Y-61534284D01*
X157678571Y-61177141D01*
X157750000Y-61034284D01*
X157821429Y-60962855D01*
X157964286Y-60891427D01*
X158107143Y-60891427D01*
X158321429Y-60962855D01*
X159178571Y-61819998D01*
X159178571Y-60891427D01*
X157678571Y-59962856D02*
X157678571Y-59819999D01*
X157750000Y-59677142D01*
X157821429Y-59605713D01*
X157964286Y-59534284D01*
X158250000Y-59462856D01*
X158607143Y-59462856D01*
X158892857Y-59534284D01*
X159035714Y-59605713D01*
X159107143Y-59677142D01*
X159178571Y-59819999D01*
X159178571Y-59962856D01*
X159107143Y-60105713D01*
X159035714Y-60177142D01*
X158892857Y-60248570D01*
X158607143Y-60319999D01*
X158250000Y-60319999D01*
X157964286Y-60248570D01*
X157821429Y-60177142D01*
X157750000Y-60105713D01*
X157678571Y-59962856D01*
X159178571Y-58034285D02*
X159178571Y-58891428D01*
X159178571Y-58462856D02*
X157678571Y-58462856D01*
X157892857Y-58605713D01*
X158035714Y-58748571D01*
X158107143Y-58891428D01*
X157678571Y-56748571D02*
X157678571Y-57034285D01*
X157750000Y-57177142D01*
X157821429Y-57248571D01*
X158035714Y-57391428D01*
X158321429Y-57462857D01*
X158892857Y-57462857D01*
X159035714Y-57391428D01*
X159107143Y-57320000D01*
X159178571Y-57177142D01*
X159178571Y-56891428D01*
X159107143Y-56748571D01*
X159035714Y-56677142D01*
X158892857Y-56605714D01*
X158535714Y-56605714D01*
X158392857Y-56677142D01*
X158321429Y-56748571D01*
X158250000Y-56891428D01*
X158250000Y-57177142D01*
X158321429Y-57320000D01*
X158392857Y-57391428D01*
X158535714Y-57462857D01*
X102905714Y-87977143D02*
X103120000Y-88048571D01*
X103477143Y-88048571D01*
X103620000Y-87977143D01*
X103691429Y-87905714D01*
X103762857Y-87762857D01*
X103762857Y-87620000D01*
X103691429Y-87477143D01*
X103620000Y-87405714D01*
X103477143Y-87334286D01*
X103191429Y-87262857D01*
X103048571Y-87191429D01*
X102977143Y-87120000D01*
X102905714Y-86977143D01*
X102905714Y-86834286D01*
X102977143Y-86691429D01*
X103048571Y-86620000D01*
X103191429Y-86548571D01*
X103548571Y-86548571D01*
X103762857Y-86620000D01*
X105262857Y-87905714D02*
X105191428Y-87977143D01*
X104977142Y-88048571D01*
X104834285Y-88048571D01*
X104620000Y-87977143D01*
X104477142Y-87834286D01*
X104405714Y-87691429D01*
X104334285Y-87405714D01*
X104334285Y-87191429D01*
X104405714Y-86905714D01*
X104477142Y-86762857D01*
X104620000Y-86620000D01*
X104834285Y-86548571D01*
X104977142Y-86548571D01*
X105191428Y-86620000D01*
X105262857Y-86691429D01*
X106620000Y-88048571D02*
X105905714Y-88048571D01*
X105905714Y-86548571D01*
X102905714Y-85437143D02*
X103120000Y-85508571D01*
X103477143Y-85508571D01*
X103620000Y-85437143D01*
X103691429Y-85365714D01*
X103762857Y-85222857D01*
X103762857Y-85080000D01*
X103691429Y-84937143D01*
X103620000Y-84865714D01*
X103477143Y-84794286D01*
X103191429Y-84722857D01*
X103048571Y-84651429D01*
X102977143Y-84580000D01*
X102905714Y-84437143D01*
X102905714Y-84294286D01*
X102977143Y-84151429D01*
X103048571Y-84080000D01*
X103191429Y-84008571D01*
X103548571Y-84008571D01*
X103762857Y-84080000D01*
X104405714Y-85508571D02*
X104405714Y-84008571D01*
X104762857Y-84008571D01*
X104977142Y-84080000D01*
X105120000Y-84222857D01*
X105191428Y-84365714D01*
X105262857Y-84651429D01*
X105262857Y-84865714D01*
X105191428Y-85151429D01*
X105120000Y-85294286D01*
X104977142Y-85437143D01*
X104762857Y-85508571D01*
X104405714Y-85508571D01*
X105834285Y-85080000D02*
X106548571Y-85080000D01*
X105691428Y-85508571D02*
X106191428Y-84008571D01*
X106691428Y-85508571D01*
X103762857Y-81540000D02*
X103620000Y-81468571D01*
X103405714Y-81468571D01*
X103191429Y-81540000D01*
X103048571Y-81682857D01*
X102977143Y-81825714D01*
X102905714Y-82111429D01*
X102905714Y-82325714D01*
X102977143Y-82611429D01*
X103048571Y-82754286D01*
X103191429Y-82897143D01*
X103405714Y-82968571D01*
X103548571Y-82968571D01*
X103762857Y-82897143D01*
X103834286Y-82825714D01*
X103834286Y-82325714D01*
X103548571Y-82325714D01*
X104477143Y-82968571D02*
X104477143Y-81468571D01*
X105334286Y-82968571D01*
X105334286Y-81468571D01*
X106048572Y-82968571D02*
X106048572Y-81468571D01*
X106405715Y-81468571D01*
X106620000Y-81540000D01*
X106762858Y-81682857D01*
X106834286Y-81825714D01*
X106905715Y-82111429D01*
X106905715Y-82325714D01*
X106834286Y-82611429D01*
X106762858Y-82754286D01*
X106620000Y-82897143D01*
X106405715Y-82968571D01*
X106048572Y-82968571D01*
D12*
X102834286Y-78928571D02*
X103762857Y-78928571D01*
X103262857Y-79500000D01*
X103477143Y-79500000D01*
X103620000Y-79571429D01*
X103691429Y-79642857D01*
X103762857Y-79785714D01*
X103762857Y-80142857D01*
X103691429Y-80285714D01*
X103620000Y-80357143D01*
X103477143Y-80428571D01*
X103048571Y-80428571D01*
X102905714Y-80357143D01*
X102834286Y-80285714D01*
X104405714Y-80285714D02*
X104477142Y-80357143D01*
X104405714Y-80428571D01*
X104334285Y-80357143D01*
X104405714Y-80285714D01*
X104405714Y-80428571D01*
X104977143Y-78928571D02*
X105905714Y-78928571D01*
X105405714Y-79500000D01*
X105620000Y-79500000D01*
X105762857Y-79571429D01*
X105834286Y-79642857D01*
X105905714Y-79785714D01*
X105905714Y-80142857D01*
X105834286Y-80285714D01*
X105762857Y-80357143D01*
X105620000Y-80428571D01*
X105191428Y-80428571D01*
X105048571Y-80357143D01*
X104977143Y-80285714D01*
X106334285Y-78928571D02*
X106834285Y-80428571D01*
X107334285Y-78928571D01*
D13*
X102112000Y-90418000D02*
X102112000Y-103626000D01*
X115574000Y-90418000D02*
X115574000Y-103626000D01*
X102112000Y-103626000D02*
X115574000Y-103626000D01*
X114812000Y-90418000D02*
X115574000Y-90418000D01*
X102112000Y-90418000D02*
X114812000Y-90418000D01*
X121162000Y-90418000D02*
X121162000Y-103626000D01*
X134624000Y-90418000D02*
X134624000Y-103626000D01*
X121162000Y-103626000D02*
X134624000Y-103626000D01*
X133862000Y-90418000D02*
X134624000Y-90418000D01*
X121162000Y-90418000D02*
X133862000Y-90418000D01*
X152900000Y-48960000D02*
X102100000Y-48960000D01*
X104640000Y-54040000D02*
X152900000Y-54040000D01*
X152900000Y-48960000D02*
X152900000Y-54040000D01*
X102100000Y-48960000D02*
X102100000Y-51500000D01*
X101820000Y-52770000D02*
X101820000Y-54320000D01*
X102100000Y-51500000D02*
X104640000Y-51500000D01*
X104640000Y-51500000D02*
X104640000Y-54040000D01*
X101820000Y-54320000D02*
X103370000Y-54320000D01*
X95000000Y-104500000D02*
X95000000Y-48000000D01*
X160000000Y-104500000D02*
X95000000Y-104500000D01*
X160000000Y-48000000D02*
X160000000Y-104500000D01*
X95000000Y-48000000D02*
X160000000Y-48000000D01*
X98175000Y-56890000D02*
X98175000Y-77210000D01*
X103255000Y-56890000D02*
X96905000Y-56890000D01*
X103255000Y-77210000D02*
X96905000Y-77210000D01*
X103255000Y-56890000D02*
X103255000Y-77210000D01*
X96905000Y-56890000D02*
X96905000Y-77210000D01*
X107835000Y-55865000D02*
X107835000Y-57135000D01*
X115185000Y-55865000D02*
X115185000Y-57135000D01*
X115185000Y-78235000D02*
X115185000Y-76965000D01*
X107835000Y-78235000D02*
X107835000Y-76965000D01*
X107835000Y-55865000D02*
X115185000Y-55865000D01*
X107835000Y-78235000D02*
X115185000Y-78235000D01*
X107835000Y-57135000D02*
X106900000Y-57135000D01*
X124210000Y-81020000D02*
X124210000Y-86100000D01*
X124210000Y-86100000D02*
X121670000Y-86100000D01*
X121670000Y-86100000D02*
X121670000Y-81020000D01*
X121670000Y-81020000D02*
X124210000Y-81020000D01*
X129290000Y-81020000D02*
X129290000Y-86100000D01*
X129290000Y-86100000D02*
X126750000Y-86100000D01*
X126750000Y-86100000D02*
X126750000Y-81020000D01*
X126750000Y-81020000D02*
X129290000Y-81020000D01*
X119130000Y-81020000D02*
X119130000Y-86100000D01*
X119130000Y-86100000D02*
X116590000Y-86100000D01*
X116590000Y-86100000D02*
X116590000Y-81020000D01*
X116590000Y-81020000D02*
X119130000Y-81020000D01*
X97540000Y-79496000D02*
X98048000Y-79496000D01*
X98048000Y-79496000D02*
X98048000Y-87624000D01*
X98048000Y-87624000D02*
X97540000Y-87624000D01*
X102620000Y-78480000D02*
X102620000Y-88640000D01*
X102620000Y-88640000D02*
X97540000Y-88640000D01*
X97540000Y-88640000D02*
X97540000Y-78480000D01*
X97540000Y-78480000D02*
X102620000Y-78480000D01*
X125770000Y-75525000D02*
X125770000Y-63525000D01*
X125770000Y-63525000D02*
X130270000Y-63525000D01*
X130270000Y-63525000D02*
X130270000Y-75525000D01*
X130270000Y-75525000D02*
X125770000Y-75525000D01*
X119420000Y-75525000D02*
X119420000Y-63525000D01*
X119420000Y-63525000D02*
X123920000Y-63525000D01*
X123920000Y-63525000D02*
X123920000Y-75525000D01*
X123920000Y-75525000D02*
X119420000Y-75525000D01*
X107612858Y-101792381D02*
X107279524Y-101316190D01*
X107041429Y-101792381D02*
X107041429Y-100792381D01*
X107422382Y-100792381D01*
X107517620Y-100840000D01*
X107565239Y-100887619D01*
X107612858Y-100982857D01*
X107612858Y-101125714D01*
X107565239Y-101220952D01*
X107517620Y-101268571D01*
X107422382Y-101316190D01*
X107041429Y-101316190D01*
X107993810Y-101506667D02*
X108470001Y-101506667D01*
X107898572Y-101792381D02*
X108231905Y-100792381D01*
X108565239Y-101792381D01*
X108898572Y-101792381D02*
X108898572Y-100792381D01*
X109374762Y-101792381D02*
X109374762Y-100792381D01*
X109946191Y-101792381D01*
X109946191Y-100792381D01*
X110946191Y-101792381D02*
X110374762Y-101792381D01*
X110660476Y-101792381D02*
X110660476Y-100792381D01*
X110565238Y-100935238D01*
X110470000Y-101030476D01*
X110374762Y-101078095D01*
X125853334Y-100792381D02*
X126091429Y-101792381D01*
X126281906Y-101078095D01*
X126472382Y-101792381D01*
X126710477Y-100792381D01*
X127091429Y-101792381D02*
X127091429Y-100792381D01*
X127567619Y-101792381D02*
X127567619Y-100792381D01*
X128139048Y-101792381D01*
X128139048Y-100792381D01*
X128615238Y-101792381D02*
X128615238Y-100792381D01*
X128853333Y-100792381D01*
X128996191Y-100840000D01*
X129091429Y-100935238D01*
X129139048Y-101030476D01*
X129186667Y-101220952D01*
X129186667Y-101363810D01*
X129139048Y-101554286D01*
X129091429Y-101649524D01*
X128996191Y-101744762D01*
X128853333Y-101792381D01*
X128615238Y-101792381D01*
X130139048Y-101792381D02*
X129567619Y-101792381D01*
X129853333Y-101792381D02*
X129853333Y-100792381D01*
X129758095Y-100935238D01*
X129662857Y-101030476D01*
X129567619Y-101078095D01*
X102822381Y-56024333D02*
X103536667Y-56024333D01*
X103679524Y-56071953D01*
X103774762Y-56167191D01*
X103822381Y-56310048D01*
X103822381Y-56405286D01*
X103822381Y-55024333D02*
X103822381Y-55595762D01*
X103822381Y-55310048D02*
X102822381Y-55310048D01*
X102965238Y-55405286D01*
X103060476Y-55500524D01*
X103108095Y-55595762D01*
X96206667Y-50992381D02*
X95873333Y-50516190D01*
X95635238Y-50992381D02*
X95635238Y-49992381D01*
X96016191Y-49992381D01*
X96111429Y-50040000D01*
X96159048Y-50087619D01*
X96206667Y-50182857D01*
X96206667Y-50325714D01*
X96159048Y-50420952D01*
X96111429Y-50468571D01*
X96016191Y-50516190D01*
X95635238Y-50516190D01*
X96635238Y-50468571D02*
X96968572Y-50468571D01*
X97111429Y-50992381D02*
X96635238Y-50992381D01*
X96635238Y-49992381D01*
X97111429Y-49992381D01*
X97873334Y-50468571D02*
X97540000Y-50468571D01*
X97540000Y-50992381D02*
X97540000Y-49992381D01*
X98016191Y-49992381D01*
X98540000Y-49992381D02*
X98540000Y-50230476D01*
X98301905Y-50135238D02*
X98540000Y-50230476D01*
X98778096Y-50135238D01*
X98397143Y-50420952D02*
X98540000Y-50230476D01*
X98682858Y-50420952D01*
X99301905Y-49992381D02*
X99301905Y-50230476D01*
X99063810Y-50135238D02*
X99301905Y-50230476D01*
X99540001Y-50135238D01*
X99159048Y-50420952D02*
X99301905Y-50230476D01*
X99444763Y-50420952D01*
X108152381Y-72868095D02*
X107152381Y-72868095D01*
X107152381Y-72487142D01*
X107200000Y-72391904D01*
X107247619Y-72344285D01*
X107342857Y-72296666D01*
X107485714Y-72296666D01*
X107580952Y-72344285D01*
X107628571Y-72391904D01*
X107676190Y-72487142D01*
X107676190Y-72868095D01*
X108152381Y-71344285D02*
X108152381Y-71915714D01*
X108152381Y-71630000D02*
X107152381Y-71630000D01*
X107295238Y-71725238D01*
X107390476Y-71820476D01*
X107438095Y-71915714D01*
X106938095Y-52392381D02*
X106938095Y-53201905D01*
X106985714Y-53297143D01*
X107033333Y-53344762D01*
X107128571Y-53392381D01*
X107319048Y-53392381D01*
X107414286Y-53344762D01*
X107461905Y-53297143D01*
X107509524Y-53201905D01*
X107509524Y-52392381D01*
X108509524Y-53392381D02*
X107938095Y-53392381D01*
X108223809Y-53392381D02*
X108223809Y-52392381D01*
X108128571Y-52535238D01*
X108033333Y-52630476D01*
X107938095Y-52678095D01*
X125932381Y-83726666D02*
X125456190Y-84060000D01*
X125932381Y-84298095D02*
X124932381Y-84298095D01*
X124932381Y-83917142D01*
X124980000Y-83821904D01*
X125027619Y-83774285D01*
X125122857Y-83726666D01*
X125265714Y-83726666D01*
X125360952Y-83774285D01*
X125408571Y-83821904D01*
X125456190Y-83917142D01*
X125456190Y-84298095D01*
X125932381Y-82774285D02*
X125932381Y-83345714D01*
X125932381Y-83060000D02*
X124932381Y-83060000D01*
X125075238Y-83155238D01*
X125170476Y-83250476D01*
X125218095Y-83345714D01*
X131012381Y-83726666D02*
X130536190Y-84060000D01*
X131012381Y-84298095D02*
X130012381Y-84298095D01*
X130012381Y-83917142D01*
X130060000Y-83821904D01*
X130107619Y-83774285D01*
X130202857Y-83726666D01*
X130345714Y-83726666D01*
X130440952Y-83774285D01*
X130488571Y-83821904D01*
X130536190Y-83917142D01*
X130536190Y-84298095D01*
X130107619Y-83345714D02*
X130060000Y-83298095D01*
X130012381Y-83202857D01*
X130012381Y-82964761D01*
X130060000Y-82869523D01*
X130107619Y-82821904D01*
X130202857Y-82774285D01*
X130298095Y-82774285D01*
X130440952Y-82821904D01*
X131012381Y-83393333D01*
X131012381Y-82774285D01*
X120852381Y-83726666D02*
X120376190Y-84060000D01*
X120852381Y-84298095D02*
X119852381Y-84298095D01*
X119852381Y-83917142D01*
X119900000Y-83821904D01*
X119947619Y-83774285D01*
X120042857Y-83726666D01*
X120185714Y-83726666D01*
X120280952Y-83774285D01*
X120328571Y-83821904D01*
X120376190Y-83917142D01*
X120376190Y-84298095D01*
X119852381Y-83393333D02*
X119852381Y-82774285D01*
X120233333Y-83107619D01*
X120233333Y-82964761D01*
X120280952Y-82869523D01*
X120328571Y-82821904D01*
X120423810Y-82774285D01*
X120661905Y-82774285D01*
X120757143Y-82821904D01*
X120804762Y-82869523D01*
X120852381Y-82964761D01*
X120852381Y-83250476D01*
X120804762Y-83345714D01*
X120757143Y-83393333D01*
X99262381Y-84298095D02*
X98262381Y-84298095D01*
X98262381Y-83917142D01*
X98310000Y-83821904D01*
X98357619Y-83774285D01*
X98452857Y-83726666D01*
X98595714Y-83726666D01*
X98690952Y-83774285D01*
X98738571Y-83821904D01*
X98786190Y-83917142D01*
X98786190Y-84298095D01*
X98357619Y-83345714D02*
X98310000Y-83298095D01*
X98262381Y-83202857D01*
X98262381Y-82964761D01*
X98310000Y-82869523D01*
X98357619Y-82821904D01*
X98452857Y-82774285D01*
X98548095Y-82774285D01*
X98690952Y-82821904D01*
X99262381Y-83393333D01*
X99262381Y-82774285D01*
X127107143Y-69756666D02*
X127154762Y-69804285D01*
X127202381Y-69947142D01*
X127202381Y-70042380D01*
X127154762Y-70185238D01*
X127059524Y-70280476D01*
X126964286Y-70328095D01*
X126773810Y-70375714D01*
X126630952Y-70375714D01*
X126440476Y-70328095D01*
X126345238Y-70280476D01*
X126250000Y-70185238D01*
X126202381Y-70042380D01*
X126202381Y-69947142D01*
X126250000Y-69804285D01*
X126297619Y-69756666D01*
X127202381Y-68804285D02*
X127202381Y-69375714D01*
X127202381Y-69090000D02*
X126202381Y-69090000D01*
X126345238Y-69185238D01*
X126440476Y-69280476D01*
X126488095Y-69375714D01*
X120757143Y-69756666D02*
X120804762Y-69804285D01*
X120852381Y-69947142D01*
X120852381Y-70042380D01*
X120804762Y-70185238D01*
X120709524Y-70280476D01*
X120614286Y-70328095D01*
X120423810Y-70375714D01*
X120280952Y-70375714D01*
X120090476Y-70328095D01*
X119995238Y-70280476D01*
X119900000Y-70185238D01*
X119852381Y-70042380D01*
X119852381Y-69947142D01*
X119900000Y-69804285D01*
X119947619Y-69756666D01*
X119947619Y-69375714D02*
X119900000Y-69328095D01*
X119852381Y-69232857D01*
X119852381Y-68994761D01*
X119900000Y-68899523D01*
X119947619Y-68851904D01*
X120042857Y-68804285D01*
X120138095Y-68804285D01*
X120280952Y-68851904D01*
X120852381Y-69423333D01*
X120852381Y-68804285D01*
M02*
