G04 #@! TF.FileFunction,Copper,L2,Bot,Signal*
%FSLAX46Y46*%
G04 Gerber Fmt 4.6, Leading zero omitted, Abs format (unit mm)*
G04 Created by KiCad (PCBNEW 4.0.2-4+6225~38~ubuntu15.10.1-stable) date ven. 08 avril 2016 18:13:18 CEST*
%MOMM*%
G01*
G04 APERTURE LIST*
%ADD10C,0.100000*%
%ADD11C,1.524000*%
%ADD12C,3.100000*%
%ADD13C,1.700000*%
%ADD14R,1.727200X1.727200*%
%ADD15O,1.727200X1.727200*%
%ADD16C,2.750000*%
%ADD17C,2.000000*%
%ADD18R,2.000000X2.000000*%
%ADD19O,1.600000X1.600000*%
%ADD20C,1.998980*%
%ADD21R,1.400000X1.400000*%
%ADD22C,1.400000*%
%ADD23C,0.600000*%
%ADD24C,0.250000*%
G04 APERTURE END LIST*
D10*
D11*
X149102000Y-58160000D03*
X151642000Y-58160000D03*
X146562000Y-58160000D03*
X152912000Y-60700000D03*
X150372000Y-60700000D03*
X147832000Y-60700000D03*
D12*
X144110000Y-65200000D03*
X155110000Y-65200000D03*
D13*
X98810000Y-88640000D03*
X98810000Y-91180000D03*
X98810000Y-93720000D03*
X98810000Y-96260000D03*
D14*
X103370000Y-52770000D03*
D15*
X103370000Y-50230000D03*
X105910000Y-52770000D03*
X105910000Y-50230000D03*
X108450000Y-52770000D03*
X108450000Y-50230000D03*
X110990000Y-52770000D03*
X110990000Y-50230000D03*
X113530000Y-52770000D03*
X113530000Y-50230000D03*
X116070000Y-52770000D03*
X116070000Y-50230000D03*
X118610000Y-52770000D03*
X118610000Y-50230000D03*
X121150000Y-52770000D03*
X121150000Y-50230000D03*
X123690000Y-52770000D03*
X123690000Y-50230000D03*
X126230000Y-52770000D03*
X126230000Y-50230000D03*
X128770000Y-52770000D03*
X128770000Y-50230000D03*
X131310000Y-52770000D03*
X131310000Y-50230000D03*
X133850000Y-52770000D03*
X133850000Y-50230000D03*
X136390000Y-52770000D03*
X136390000Y-50230000D03*
X138930000Y-52770000D03*
X138930000Y-50230000D03*
X141470000Y-52770000D03*
X141470000Y-50230000D03*
X144010000Y-52770000D03*
X144010000Y-50230000D03*
X146550000Y-52770000D03*
X146550000Y-50230000D03*
X149090000Y-52770000D03*
X149090000Y-50230000D03*
X151630000Y-52770000D03*
X151630000Y-50230000D03*
D16*
X156500000Y-51500000D03*
X98500000Y-51500000D03*
X98500000Y-101000000D03*
X156500000Y-101000000D03*
D17*
X100080000Y-75940000D03*
X100080000Y-73400000D03*
X100080000Y-60700000D03*
X100080000Y-63240000D03*
D18*
X100080000Y-58160000D03*
D17*
X100080000Y-65780000D03*
X100080000Y-68320000D03*
X100080000Y-70860000D03*
D19*
X107700000Y-58160000D03*
X107700000Y-60700000D03*
X107700000Y-63240000D03*
X107700000Y-65780000D03*
X107700000Y-68320000D03*
X107700000Y-70860000D03*
X107700000Y-73400000D03*
X107700000Y-75940000D03*
X115320000Y-75940000D03*
X115320000Y-73400000D03*
X115320000Y-70860000D03*
X115320000Y-68320000D03*
X115320000Y-65780000D03*
X115320000Y-63240000D03*
X115320000Y-60700000D03*
X115320000Y-58160000D03*
D20*
X117860000Y-82290000D03*
X117860000Y-89910000D03*
X122940000Y-82290000D03*
X122940000Y-89910000D03*
X112780000Y-82290000D03*
X112780000Y-89910000D03*
D21*
X122940000Y-75940000D03*
D22*
X122940000Y-68190000D03*
D21*
X119130000Y-94990000D03*
D22*
X111380000Y-94990000D03*
D11*
X132592000Y-58160000D03*
X135132000Y-58160000D03*
X130052000Y-58160000D03*
X136402000Y-60700000D03*
X133862000Y-60700000D03*
X131322000Y-60700000D03*
D12*
X127600000Y-65200000D03*
X138600000Y-65200000D03*
D13*
X98810000Y-83560000D03*
X98810000Y-81020000D03*
D23*
X120935600Y-62112200D03*
D24*
X104616200Y-87913800D02*
X98810000Y-93720000D01*
X104616200Y-55552700D02*
X104616200Y-87913800D01*
X105910000Y-54258900D02*
X104616200Y-55552700D01*
X105910000Y-52770000D02*
X105910000Y-54258900D01*
X108450000Y-52770000D02*
X108450000Y-54258900D01*
X106116900Y-56592000D02*
X108450000Y-54258900D01*
X106116900Y-88953100D02*
X106116900Y-56592000D01*
X98810000Y-96260000D02*
X106116900Y-88953100D01*
X115320000Y-58160000D02*
X115320000Y-60700000D01*
X128770000Y-56295300D02*
X128770000Y-52770000D01*
X116745300Y-68320000D02*
X128770000Y-56295300D01*
X115320000Y-68320000D02*
X116745300Y-68320000D01*
X120413100Y-62112200D02*
X120935600Y-62112200D01*
X116745300Y-65780000D02*
X120413100Y-62112200D01*
X115320000Y-65780000D02*
X116745300Y-65780000D01*
X120400100Y-87369900D02*
X117860000Y-89910000D01*
X120400100Y-70729900D02*
X120400100Y-87369900D01*
X122940000Y-68190000D02*
X120400100Y-70729900D01*
X131322000Y-81528000D02*
X122940000Y-89910000D01*
X131322000Y-60700000D02*
X131322000Y-81528000D01*
X110645000Y-61105000D02*
X107700000Y-58160000D01*
X110645000Y-85063100D02*
X110645000Y-61105000D01*
X117120400Y-91538500D02*
X110645000Y-85063100D01*
X121311500Y-91538500D02*
X117120400Y-91538500D01*
X122940000Y-89910000D02*
X121311500Y-91538500D01*
X103370000Y-52770000D02*
X103370000Y-54258900D01*
X103370000Y-84080000D02*
X98810000Y-88640000D01*
X103370000Y-54258900D02*
X103370000Y-84080000D01*
X97332700Y-89702700D02*
X98810000Y-91180000D01*
X97332700Y-82497300D02*
X97332700Y-89702700D01*
X98810000Y-81020000D02*
X97332700Y-82497300D01*
X115320000Y-63240000D02*
X113894700Y-63240000D01*
X113530000Y-62875300D02*
X113530000Y-52770000D01*
X113894700Y-63240000D02*
X113530000Y-62875300D01*
X113894700Y-74514700D02*
X113894700Y-63240000D01*
X115320000Y-75940000D02*
X113894700Y-74514700D01*
X135132000Y-59430000D02*
X135132000Y-58160000D01*
X133862000Y-60700000D02*
X135132000Y-59430000D01*
X103370000Y-50230000D02*
X101881100Y-50230000D01*
X101881100Y-80488900D02*
X98810000Y-83560000D01*
X101881100Y-50230000D02*
X101881100Y-80488900D01*
M02*
