G04 #@! TF.FileFunction,Copper,L1,Top,Signal*
%FSLAX46Y46*%
G04 Gerber Fmt 4.6, Leading zero omitted, Abs format (unit mm)*
G04 Created by KiCad (PCBNEW 4.0.2-4+6225~38~ubuntu15.10.1-stable) date sam. 19 mars 2016 16:29:29 CET*
%MOMM*%
G01*
G04 APERTURE LIST*
%ADD10C,0.100000*%
%ADD11C,1.524000*%
%ADD12C,3.100000*%
%ADD13R,1.727200X1.727200*%
%ADD14O,1.727200X1.727200*%
%ADD15C,2.750000*%
%ADD16C,2.000000*%
%ADD17R,2.000000X2.000000*%
%ADD18O,1.600000X1.600000*%
%ADD19C,1.998980*%
%ADD20R,1.400000X1.400000*%
%ADD21C,1.400000*%
%ADD22C,0.600000*%
%ADD23C,0.250000*%
G04 APERTURE END LIST*
D10*
D11*
X109478000Y-92450000D03*
X106938000Y-92450000D03*
X112018000Y-92450000D03*
X105668000Y-94990000D03*
X108208000Y-94990000D03*
X110748000Y-94990000D03*
D12*
X115574000Y-97022000D03*
X102112000Y-97022000D03*
D11*
X128528000Y-92450000D03*
X125988000Y-92450000D03*
X131068000Y-92450000D03*
X124718000Y-94990000D03*
X127258000Y-94990000D03*
X129798000Y-94990000D03*
D12*
X134624000Y-97022000D03*
X121162000Y-97022000D03*
D13*
X103370000Y-52770000D03*
D14*
X103370000Y-50230000D03*
X105910000Y-52770000D03*
X105910000Y-50230000D03*
X108450000Y-52770000D03*
X108450000Y-50230000D03*
X110990000Y-52770000D03*
X110990000Y-50230000D03*
X113530000Y-52770000D03*
X113530000Y-50230000D03*
X116070000Y-52770000D03*
X116070000Y-50230000D03*
X118610000Y-52770000D03*
X118610000Y-50230000D03*
X121150000Y-52770000D03*
X121150000Y-50230000D03*
X123690000Y-52770000D03*
X123690000Y-50230000D03*
X126230000Y-52770000D03*
X126230000Y-50230000D03*
X128770000Y-52770000D03*
X128770000Y-50230000D03*
X131310000Y-52770000D03*
X131310000Y-50230000D03*
X133850000Y-52770000D03*
X133850000Y-50230000D03*
X136390000Y-52770000D03*
X136390000Y-50230000D03*
X138930000Y-52770000D03*
X138930000Y-50230000D03*
X141470000Y-52770000D03*
X141470000Y-50230000D03*
X144010000Y-52770000D03*
X144010000Y-50230000D03*
X146550000Y-52770000D03*
X146550000Y-50230000D03*
X149090000Y-52770000D03*
X149090000Y-50230000D03*
X151630000Y-52770000D03*
X151630000Y-50230000D03*
D15*
X156500000Y-51500000D03*
X98500000Y-51500000D03*
X98500000Y-101000000D03*
X156500000Y-101000000D03*
D16*
X100080000Y-75940000D03*
X100080000Y-73400000D03*
X100080000Y-60700000D03*
X100080000Y-63240000D03*
D17*
X100080000Y-58160000D03*
D16*
X100080000Y-65780000D03*
X100080000Y-68320000D03*
X100080000Y-70860000D03*
D18*
X107700000Y-58160000D03*
X107700000Y-60700000D03*
X107700000Y-63240000D03*
X107700000Y-65780000D03*
X107700000Y-68320000D03*
X107700000Y-70860000D03*
X107700000Y-73400000D03*
X107700000Y-75940000D03*
X115320000Y-75940000D03*
X115320000Y-73400000D03*
X115320000Y-70860000D03*
X115320000Y-68320000D03*
X115320000Y-65780000D03*
X115320000Y-63240000D03*
X115320000Y-60700000D03*
X115320000Y-58160000D03*
D19*
X122940000Y-79750000D03*
X122940000Y-87370000D03*
X128020000Y-79750000D03*
X128020000Y-87370000D03*
X117860000Y-79750000D03*
X117860000Y-87370000D03*
D11*
X100080000Y-79750000D03*
X100080000Y-82290000D03*
X100080000Y-84830000D03*
X100080000Y-87370000D03*
D20*
X128020000Y-73400000D03*
D21*
X128020000Y-65650000D03*
D20*
X121670000Y-73400000D03*
D21*
X121670000Y-65650000D03*
D22*
X119281900Y-65780000D03*
D23*
X107700000Y-75940000D02*
X100080000Y-75940000D01*
X107700000Y-73400000D02*
X100080000Y-73400000D01*
X107700000Y-60700000D02*
X100080000Y-60700000D01*
X107700000Y-63240000D02*
X100080000Y-63240000D01*
X107700000Y-65780000D02*
X100080000Y-65780000D01*
X107700000Y-68320000D02*
X100080000Y-68320000D01*
X107700000Y-70860000D02*
X100080000Y-70860000D01*
X118300000Y-58160000D02*
X123690000Y-52770000D01*
X115320000Y-58160000D02*
X118300000Y-58160000D01*
X126230000Y-62968500D02*
X126230000Y-52770000D01*
X118338500Y-70860000D02*
X126230000Y-62968500D01*
X115320000Y-70860000D02*
X118338500Y-70860000D01*
X115320000Y-65780000D02*
X119281900Y-65780000D01*
X129789600Y-48709600D02*
X131310000Y-50230000D01*
X102768100Y-48709600D02*
X129789600Y-48709600D01*
X101852100Y-49625600D02*
X102768100Y-48709600D01*
X101852100Y-53922300D02*
X101852100Y-49625600D01*
X103009000Y-55079200D02*
X101852100Y-53922300D01*
X106686200Y-55079200D02*
X103009000Y-55079200D01*
X109938700Y-58331700D02*
X106686200Y-55079200D01*
X109938700Y-68018700D02*
X109938700Y-58331700D01*
X115320000Y-73400000D02*
X109938700Y-68018700D01*
X125868900Y-96379100D02*
X127258000Y-94990000D01*
X124084200Y-96379100D02*
X125868900Y-96379100D01*
X122940000Y-95234900D02*
X124084200Y-96379100D01*
X122940000Y-87370000D02*
X122940000Y-95234900D01*
X153128300Y-51728300D02*
X151630000Y-50230000D01*
X153128300Y-53396300D02*
X153128300Y-51728300D01*
X140874600Y-65650000D02*
X153128300Y-53396300D01*
X128020000Y-65650000D02*
X140874600Y-65650000D01*
X125988000Y-89402000D02*
X125988000Y-92450000D01*
X128020000Y-87370000D02*
X125988000Y-89402000D01*
X118766800Y-78116800D02*
X128020000Y-87370000D01*
X115472800Y-78116800D02*
X118766800Y-78116800D01*
X109188400Y-71832400D02*
X115472800Y-78116800D01*
X109188400Y-59648400D02*
X109188400Y-71832400D01*
X107700000Y-58160000D02*
X109188400Y-59648400D01*
X128020000Y-79750000D02*
X122940000Y-79750000D01*
X117860000Y-79750000D02*
X100080000Y-79750000D01*
X128020000Y-73400000D02*
X126694700Y-73400000D01*
X124154700Y-75940000D02*
X115320000Y-75940000D01*
X126694700Y-73400000D02*
X124154700Y-75940000D01*
X101810500Y-84020500D02*
X100080000Y-82290000D01*
X101810500Y-93123500D02*
X101810500Y-84020500D01*
X105110200Y-96423200D02*
X101810500Y-93123500D01*
X106774800Y-96423200D02*
X105110200Y-96423200D01*
X108208000Y-94990000D02*
X106774800Y-96423200D01*
X115320000Y-63240000D02*
X116745300Y-63240000D01*
X119260000Y-63240000D02*
X116745300Y-63240000D01*
X121670000Y-65650000D02*
X119260000Y-63240000D01*
X112451200Y-99233200D02*
X108208000Y-94990000D01*
X125554800Y-99233200D02*
X112451200Y-99233200D01*
X129798000Y-94990000D02*
X125554800Y-99233200D01*
X150580800Y-48739200D02*
X149090000Y-50230000D01*
X152283900Y-48739200D02*
X150580800Y-48739200D01*
X153890800Y-50346100D02*
X152283900Y-48739200D01*
X153890800Y-53695100D02*
X153890800Y-50346100D01*
X135511200Y-72074700D02*
X153890800Y-53695100D01*
X124320600Y-72074700D02*
X135511200Y-72074700D01*
X122995300Y-73400000D02*
X124320600Y-72074700D01*
X121670000Y-73400000D02*
X122995300Y-73400000D01*
X114558000Y-87370000D02*
X109478000Y-92450000D01*
X117860000Y-87370000D02*
X114558000Y-87370000D01*
M02*
