M48
;DRILL file {KiCad 4.0.2-4+6225~38~ubuntu15.10.1-stable} date ven. 08 avril 2016 18:13:31 CEST
;FORMAT={-:-/ absolute / inch / decimal}
FMAT,2
INCH,TZ
T1C0.016
T2C0.031
T3C0.032
T4C0.035
T5C0.039
T6C0.039
T7C0.040
T8C0.047
T9C0.108
T10C0.118
%
G90
G05
M72
T1
X4.7612Y-2.4454
T2
X4.2402Y-2.2898
X4.2402Y-2.3898
X4.2402Y-2.4898
X4.2402Y-2.5898
X4.2402Y-2.6898
X4.2402Y-2.7898
X4.2402Y-2.8898
X4.2402Y-2.9898
X4.5402Y-2.2898
X4.5402Y-2.3898
X4.5402Y-2.4898
X4.5402Y-2.5898
X4.5402Y-2.6898
X4.5402Y-2.7898
X4.5402Y-2.8898
X4.5402Y-2.9898
T3
X5.1202Y-2.2898
X5.1702Y-2.3898
X5.2202Y-2.2898
X5.2702Y-2.3898
X5.3202Y-2.2898
X5.3702Y-2.3898
X5.7702Y-2.2898
X5.8202Y-2.3898
X5.8702Y-2.2898
X5.9202Y-2.3898
X5.9702Y-2.2898
X6.0202Y-2.3898
T4
X4.385Y-3.7398
X4.6902Y-3.7398
X4.8402Y-2.6846
X4.8402Y-2.9898
T5
X3.8902Y-3.1898
X3.8902Y-3.2898
X3.8902Y-3.4898
X3.8902Y-3.5898
X3.8902Y-3.6898
X3.8902Y-3.7898
T6
X4.4402Y-3.2398
X4.4402Y-3.5398
X4.6402Y-3.2398
X4.6402Y-3.5398
X4.8402Y-3.2398
X4.8402Y-3.5398
T7
X4.0697Y-1.9776
X4.0697Y-2.0776
X4.1697Y-1.9776
X4.1697Y-2.0776
X4.2697Y-1.9776
X4.2697Y-2.0776
X4.3697Y-1.9776
X4.3697Y-2.0776
X4.4697Y-1.9776
X4.4697Y-2.0776
X4.5697Y-1.9776
X4.5697Y-2.0776
X4.6697Y-1.9776
X4.6697Y-2.0776
X4.7697Y-1.9776
X4.7697Y-2.0776
X4.8697Y-1.9776
X4.8697Y-2.0776
X4.9697Y-1.9776
X4.9697Y-2.0776
X5.0697Y-1.9776
X5.0697Y-2.0776
X5.1697Y-1.9776
X5.1697Y-2.0776
X5.2697Y-1.9776
X5.2697Y-2.0776
X5.3697Y-1.9776
X5.3697Y-2.0776
X5.4697Y-1.9776
X5.4697Y-2.0776
X5.5697Y-1.9776
X5.5697Y-2.0776
X5.6697Y-1.9776
X5.6697Y-2.0776
X5.7697Y-1.9776
X5.7697Y-2.0776
X5.8697Y-1.9776
X5.8697Y-2.0776
X5.9697Y-1.9776
X5.9697Y-2.0776
T8
X3.9402Y-2.2898
X3.9402Y-2.3898
X3.9402Y-2.4898
X3.9402Y-2.5898
X3.9402Y-2.6898
X3.9402Y-2.7898
X3.9402Y-2.8898
X3.9402Y-2.9898
T9
X3.878Y-2.0276
X3.878Y-3.9764
X6.1614Y-2.0276
X6.1614Y-3.9764
T10
X5.0236Y-2.5669
X5.4567Y-2.5669
X5.6736Y-2.5669
X6.1067Y-2.5669
T0
M30
