<?xml version="1.0" encoding="UTF-8" standalone="no"?>
<svg
   xmlns:freecad="http://www.freecadweb.org/wiki/index.php?title=Svg_Namespace"
   xmlns:dc="http://purl.org/dc/elements/1.1/"
   xmlns:cc="http://creativecommons.org/ns#"
   xmlns:rdf="http://www.w3.org/1999/02/22-rdf-syntax-ns#"
   xmlns:svg="http://www.w3.org/2000/svg"
   xmlns="http://www.w3.org/2000/svg"
   xmlns:sodipodi="http://sodipodi.sourceforge.net/DTD/sodipodi-0.dtd"
   xmlns:inkscape="http://www.inkscape.org/namespaces/inkscape"
   version="1.1"
   width="420mm"
   height="297mm"
   viewBox="0 0 420 297"
   id="svg5047"
   inkscape:version="0.48.4 r9939"
   sodipodi:docname="A3_Landscape_ONERA.svg">
  <metadata
     id="metadata5164">
    <rdf:RDF>
      <cc:Work
         rdf:about="">
        <dc:format>image/svg+xml</dc:format>
        <dc:type
           rdf:resource="http://purl.org/dc/dcmitype/StillImage" />
        <dc:title></dc:title>
      </cc:Work>
    </rdf:RDF>
  </metadata>
  <defs
     id="defs5162" />
  <sodipodi:namedview
     pagecolor="#ffffff"
     bordercolor="#666666"
     borderopacity="1"
     objecttolerance="10"
     gridtolerance="10"
     guidetolerance="10"
     inkscape:pageopacity="0"
     inkscape:pageshadow="2"
     inkscape:window-width="1914"
     inkscape:window-height="996"
     id="namedview5160"
     showgrid="false"
     inkscape:zoom="1.7940591"
     inkscape:cx="1417.9289"
     inkscape:cy="57.043417"
     inkscape:window-x="0"
     inkscape:window-y="25"
     inkscape:window-maximized="1"
     inkscape:current-layer="svg5047" />
  <!-- Working space 20 10 410 287 -->
  <!-- Title block 230 227 410 287 -->
  <rect
     y="10"
     x="20"
     height="277"
     width="390"
     style="fill:none;stroke:#000000;stroke-width:0.34999999;stroke-miterlimit:4"
     id="drawing-border" />
  <!-- DrawingContent -->
  <path
     inkscape:connector-curvature="0"
     style="fill:none;stroke:#000000;stroke-width:0.30053672;stroke-linecap:butt;stroke-linejoin:miter"
     id="path92"
     d="m 269.83914,286.96256 140.09177,0" />
  <path
     inkscape:connector-curvature="0"
     style="fill:none;stroke:#000000;stroke-width:0.24847758;stroke-linecap:butt;stroke-linejoin:miter"
     id="path94"
     d="m 269.88511,287.05566 0,-30.24059" />
  <path
     inkscape:connector-curvature="0"
     style="fill:none;stroke:#000000;stroke-width:0.29731774;stroke-linecap:butt;stroke-linejoin:miter"
     id="path100"
     d="m 269.83484,280.7048 119.06648,0" />
  <path
     inkscape:connector-curvature="0"
     style="fill:none;stroke:#000000;stroke-width:0.26123449;stroke-linecap:butt;stroke-linejoin:miter"
     id="path102"
     d="m 269.80108,269.96256 91.91976,0" />
  <path
     inkscape:connector-curvature="0"
     style="fill:none;stroke:#000000;stroke-width:0.29731774;stroke-linecap:butt;stroke-linejoin:miter"
     id="path104"
     d="m 269.83497,256.96256 119.06649,0" />
  <path
     inkscape:connector-curvature="0"
     style="fill:none;stroke:#000000;stroke-width:0.32120168;stroke-linecap:butt;stroke-linejoin:miter"
     id="path108"
     d="m 388.85736,281.56106 21.05518,0" />
  <path
     inkscape:connector-curvature="0"
     style="fill:none;stroke:#000000;stroke-width:0.32120168;stroke-linecap:butt;stroke-linejoin:miter"
     id="path110"
     d="m 388.85736,275.4088 21.05518,0" />
  <path
     inkscape:connector-curvature="0"
     style="fill:none;stroke:#000000;stroke-width:0.32120168;stroke-linecap:butt;stroke-linejoin:miter"
     id="path112"
     d="m 388.85736,269.25654 21.05518,0" />
  <path
     inkscape:connector-curvature="0"
     style="fill:none;stroke:#000000;stroke-width:0.32120168;stroke-linecap:butt;stroke-linejoin:miter"
     id="path114"
     d="m 388.85736,263.10428 21.05518,0" />
  <path
     inkscape:connector-curvature="0"
     style="fill:none;stroke:#000000;stroke-width:0.32120168;stroke-linecap:butt;stroke-linejoin:miter"
     id="path116"
     d="m 388.87341,256.95202 21.05518,0" />
  <path
     inkscape:connector-curvature="0"
     style="fill:none;stroke:#000000;stroke-width:0.33500698;stroke-linecap:butt;stroke-linejoin:miter"
     id="path124"
     d="m 287.38509,280.7681 0,-23.82021" />
  <path
     inkscape:connector-curvature="0"
     style="fill:none;stroke:#000000;stroke-width:0.22687015;stroke-linecap:butt;stroke-linejoin:miter"
     id="path126"
     d="m 362.0713,280.47869 0,-23.52918" />
  <path
     inkscape:connector-curvature="0"
     style="fill:none;stroke:#000000;stroke-width:0.24828622;stroke-linecap:butt;stroke-linejoin:miter"
     id="path130"
     d="m 388.88496,287.05654 0,-30.194" />
  <path
     inkscape:connector-curvature="0"
     style="fill:none;stroke:#000000;stroke-width:0.24833195;stroke-linecap:butt;stroke-linejoin:miter"
     id="path132"
     d="m 393.80496,287.05644 0,-30.20515" />
  <g
     id="g594"
     style="fill:none;stroke:#000000;stroke-width:0.13;stroke-linecap:butt;stroke-linejoin:miter"
     transform="matrix(0.99999881,0,0,1,3.8054287,0.45174913)">
    <path
       inkscape:connector-curvature="0"
       d="m 386.405,284.976 0.331,0 0.263,-0.735 0.998,0 0.263,0.735 0.339,0 -0.915,-2.503 -0.368,0 -0.911,2.503 z m 0.71,-1.041 0.385,-1.102 0.385,1.102 -0.77,0 z"
       id="path596"
       style="fill:#000000;fill-rule:evenodd;stroke:none" />
  </g>
  <text
     xml:space="preserve"
     style="font-size:8.00000012px;font-style:normal;font-variant:normal;font-weight:normal;font-stretch:normal;fill:#000000;fill-opacity:1;stroke:none;font-family:Arial;-inkscape-font-specification:Arial;text-anchor:start;text-align:start;writing-mode:lr;line-height:125%"
     x="273.69791"
     y="266.4097"
     id="text4415"
     sodipodi:linespacing="125%"><tspan
       sodipodi:role="line"
       id="tspan5164">A3</tspan></text>
  <text
     xml:space="preserve"
     style="font-size:2.82222223px;font-style:normal;font-variant:normal;font-weight:300;font-stretch:normal;text-align:start;line-height:125%;letter-spacing:0px;word-spacing:0px;writing-mode:lr-tb;text-anchor:start;fill:#000000;fill-opacity:1;stroke:none;font-family:Ubuntu;-inkscape-font-specification:Ubuntu Light"
     x="288.64218"
     y="260.3804"
     id="text7051"
     sodipodi:linespacing="125%"><tspan
       sodipodi:role="line"
       id="tspan7162"
       x="288.64218"
       y="260.3804">Dessiné par : </tspan></text>
  <text
     xml:space="preserve"
     style="font-size:2.82222223px;font-style:normal;font-variant:normal;font-weight:300;font-stretch:normal;text-align:start;line-height:125%;letter-spacing:0px;word-spacing:0px;writing-mode:lr-tb;text-anchor:start;fill:#000000;fill-opacity:1;stroke:none;font-family:Ubuntu;-inkscape-font-specification:Ubuntu Light"
     x="288.64218"
     y="266.68939"
     id="text7146"
     sodipodi:linespacing="125%"><tspan
       sodipodi:role="line"
       id="tspan7148"
       x="288.64218"
       y="266.68939">Date :</tspan></text>
  <text
     xml:space="preserve"
     style="font-size:2.82222223px;font-style:normal;font-variant:normal;font-weight:300;font-stretch:normal;text-align:start;line-height:125%;letter-spacing:0px;word-spacing:0px;writing-mode:lr-tb;text-anchor:start;fill:#000000;fill-opacity:1;stroke:none;font-family:Ubuntu;-inkscape-font-specification:Ubuntu Light"
     x="270.51096"
     y="259.92374"
     id="text7150"
     sodipodi:linespacing="125%"><tspan
       sodipodi:role="line"
       id="tspan7152"
       x="270.51096"
       y="259.92374">Taile</tspan></text>
  <text
     xml:space="preserve"
     style="font-size:2.82222223px;font-style:normal;font-variant:normal;font-weight:300;font-stretch:normal;text-align:start;line-height:125%;letter-spacing:0px;word-spacing:0px;writing-mode:lr-tb;text-anchor:start;fill:#000000;fill-opacity:1;stroke:none;font-family:Ubuntu;-inkscape-font-specification:Ubuntu Light"
     x="270.30774"
     y="273.17679"
     id="text7154"
     sodipodi:linespacing="125%"><tspan
       sodipodi:role="line"
       id="tspan7156"
       x="270.30774"
       y="273.17679">Echelle</tspan></text>
  <text
     xml:space="preserve"
     style="font-size:2.82222223px;font-style:normal;font-variant:normal;font-weight:300;font-stretch:normal;text-align:start;line-height:125%;letter-spacing:0px;word-spacing:0px;writing-mode:lr-tb;text-anchor:start;fill:#000000;fill-opacity:1;stroke:none;font-family:Ubuntu;-inkscape-font-specification:Ubuntu Light"
     x="289.62271"
     y="273.17114"
     id="text7158"
     sodipodi:linespacing="125%"><tspan
       sodipodi:role="line"
       id="tspan7160"
       x="289.62271"
       y="273.17114">Numéro</tspan></text>
  <text
     xml:space="preserve"
     style="font-size:2.82222223px;font-style:normal;font-variant:normal;font-weight:normal;font-stretch:normal;text-align:start;line-height:125%;letter-spacing:0px;word-spacing:0px;writing-mode:lr-tb;text-anchor:start;fill:#000000;fill-opacity:1;stroke:none;font-family:Ubuntu;-inkscape-font-specification:Ubuntu"
     x="298.46643"
     y="266.6908"
     id="text7164"
     freecad:editable="DATE"
     sodipodi:linespacing="125%"><tspan
       sodipodi:role="line"
       id="tspan7166"
       x="298.46643"
       y="266.6908">DATE</tspan></text>
  <text
     xml:space="preserve"
     style="font-size:2.82222223px;font-style:normal;font-variant:normal;font-weight:normal;font-stretch:normal;text-align:start;line-height:125%;letter-spacing:0px;word-spacing:0px;writing-mode:lr-tb;text-anchor:start;fill:#000000;fill-opacity:1;stroke:none;font-family:Ubuntu;-inkscape-font-specification:Ubuntu"
     x="306.09064"
     y="260.38181"
     id="text7168"
     sodipodi:linespacing="125%"><tspan
       sodipodi:role="line"
       id="tspan7170"
       x="306.09064"
       y="260.38181">Jouke Hijlkema</tspan></text>
  <text
     xml:space="preserve"
     style="font-size:3.95111108px;font-style:normal;font-variant:normal;font-weight:normal;font-stretch:normal;text-align:start;line-height:125%;letter-spacing:0px;word-spacing:0px;writing-mode:lr-tb;text-anchor:start;fill:#000000;fill-opacity:1;stroke:none;font-family:Ubuntu;-inkscape-font-specification:Ubuntu"
     x="289.68512"
     y="278.21652"
     id="text7172"
     freecad:editable="NUMERO"
     sodipodi:linespacing="125%"><tspan
       sodipodi:role="line"
       id="tspan7174"
       x="289.68512"
       y="278.21652">NUMERO</tspan></text>
  <text
     xml:space="preserve"
     style="font-size:3.95111108px;font-style:normal;font-variant:normal;font-weight:normal;font-stretch:normal;text-align:start;line-height:125%;letter-spacing:0px;word-spacing:0px;writing-mode:lr-tb;text-anchor:start;fill:#000000;fill-opacity:1;stroke:none;font-family:Ubuntu;-inkscape-font-specification:Ubuntu"
     x="270.43155"
     y="278.38248"
     id="text7176"
     freecad:editable="ECHELLE"
     sodipodi:linespacing="125%"><tspan
       sodipodi:role="line"
       id="tspan7178"
       x="270.43155"
       y="278.38248">ECHELLE</tspan></text>
  <text
     xml:space="preserve"
     style="font-size:2.82222223px;font-style:normal;font-variant:normal;font-weight:300;font-stretch:normal;text-align:start;line-height:125%;letter-spacing:0px;word-spacing:0px;writing-mode:lr-tb;text-anchor:start;fill:#000000;fill-opacity:1;stroke:none;font-family:Ubuntu;-inkscape-font-specification:Ubuntu Light"
     x="271.02393"
     y="284.90469"
     id="text7158-5"
     sodipodi:linespacing="125%"><tspan
       y="284.90469"
       x="271.02393"
       sodipodi:role="line"
       id="tspan3515">Titre</tspan></text>
  <text
     xml:space="preserve"
     style="font-size:3.95111108px;font-style:normal;font-variant:normal;font-weight:normal;font-stretch:normal;text-align:start;line-height:125%;letter-spacing:0px;word-spacing:0px;writing-mode:lr-tb;text-anchor:start;fill:#000000;fill-opacity:1;stroke:none;font-family:Ubuntu;-inkscape-font-specification:Ubuntu"
     x="278.93515"
     y="285.20187"
     id="text7172-7"
     freecad:editable="NUMERO"
     sodipodi:linespacing="125%"><tspan
       y="285.20187"
       x="278.93515"
       sodipodi:role="line"
       id="tspan3538">TITRE</tspan></text>
  <g
     id="g4083"
     transform="matrix(0.1315029,0,0,0.11709905,462.66877,260.04156)">
    <g
       id="g4126"
       transform="translate(-600.03618,8.6761036)">
      <path
         inkscape:connector-curvature="0"
         d="m 329.96093,182.65931 h -1.99923 c -0.38282,0 -0.65933,0.25787 -0.65933,0.57099 v 0.18418 h 3.55193 c -5e-5,-0.40523 -0.40418,-0.75517 -0.89337,-0.75517 z"
         id="path3575"
         transform="matrix(7.604395,0,0,8.5397789,-2572.8985,-1494.9845)" />
      <path
         sodipodi:nodetypes="ccccccccccccsccccc"
         inkscape:connector-curvature="0"
         d="m 325.83432,183.79857 c -0.0851,-0.002 -0.25472,0.0396 -0.31851,0.058 -0.0851,0.0369 -0.17015,0.11603 -0.23394,0.17131 l -0.21054,0.54129 0.91241,0.006 0.87205,0 0.0213,0 0.44662,0 3.46683,0 0.0425,0 0.42535,0 2.25452,0 c 0,-0.42361 -0.40413,-0.77355 -0.89332,-0.77355 l -1.33989,0 -0.44675,0 -3.55189,0 -0.44666,0 c -0.30829,0.002 -0.6523,-0.006 -1.00008,-0.003 z"
         id="path3577"
         transform="matrix(7.604395,0,0,8.5397789,-2572.8985,-1494.9845)" />
      <g
         transform="matrix(0.33827125,0,0,0.32897953,-179.53077,-22.718376)"
         id="g3579">
        <path
           sodipodi:nodetypes="sccccccccccccccccsccs"
           inkscape:connector-curvature="0"
           d="m 438.868,334.185 c 28.688,0 52.115,23.428 52.594,52.115 l 32.034,0 c -2.391,-40.641 -29.166,-53.551 -46.378,-57.854 -8.606,-1.912 -14.344,-1.912 -14.344,-1.912 l -30.122,0 -10.041,0 -55.462,0 -7.65,0 -12.432,0 -49.725,0 -20.081,0 -2.391,0 -11.953,0 c -23.32208,0.10668 -23.60018,0.11361 -43.033,0.001 l -47.334,0 0,15.301 c 7.65,-4.781 16.734,-7.172 26.775,-7.172 28.688,0 52.116,23.428 52.116,52.115 l 134.832,0 c 10e-4,-29.167 23.429,-52.594 52.595,-52.594 z"
           id="path3583" />
      </g>
      <path
         inkscape:connector-curvature="0"
         d="m 334.25725,185.67999 c -1.0209,0 -1.87165,0.71838 -1.87165,1.6209 0,0.88407 0.82944,1.62083 1.87165,1.62083 1.04216,0 1.87161,-0.71831 1.87161,-1.62083 -0.0212,-0.90248 -0.85075,-1.6209 -1.87161,-1.6209 z m 0,2.35766 c -0.46797,0 -0.87206,-0.33157 -0.87206,-0.75521 0,-0.40526 0.38283,-0.75521 0.87206,-0.75521 0.48914,0 0.87201,0.33157 0.87201,0.75521 -0.0213,0.42364 -0.40409,0.75521 -0.87201,0.75521 z"
         id="path3587"
         transform="matrix(7.604395,0,0,8.5397789,-2572.8985,-1494.9845)" />
      <path
         inkscape:connector-curvature="0"
         d="m 323.60159,185.66165 c -1.0209,0 -1.87165,0.71831 -1.87165,1.62083 0,0.90252 0.82949,1.62082 1.87165,1.62082 1.04217,0 1.87165,-0.7183 1.87165,-1.62082 -0.0213,-0.88407 -0.85075,-1.62083 -1.87165,-1.62083 z m 0,2.376 c -0.46792,0 -0.87201,-0.33157 -0.87201,-0.75521 0,-0.40526 0.38283,-0.75521 0.87201,-0.75521 0.48919,0 0.87202,0.33157 0.87202,0.75521 -0.0213,0.42364 -0.40409,0.75521 -0.87202,0.75521 z"
         id="path3589"
         transform="matrix(7.604395,0,0,8.5397789,-2572.8985,-1494.9845)" />
      <g
         transform="matrix(0.47158048,0,0,0.47855667,-79.687897,32.435453)"
         id="g3830">
        <g
           id="g3790">
          <path
             inkscape:connector-curvature="0"
             d="m 55.733,32.098 c 3.168,-1.861 4.227,-5.94 2.36,-9.112 -1.856,-3.172 -5.938,-4.239 -9.105,-2.38 -2.192,1.287 -3.282,3.637 -3.193,6.007 L 41.876,28.909 29.846,8.405 c -12.803,7.51 -17.095,23.979 -9.577,36.777 0.212,0.372 0.508,0.662 0.742,1.024 L 0,67.18 35.584,67.223 V 57.199 c 6.944,2.133 14.7,1.533 21.46,-2.432 L 45.015,34.26 48.936,31.962 c 2.028,1.228 4.61,1.415 6.797,0.136 z M 30.064,61.7 13.307,61.681 24.498,50.508 c 1.681,1.684 3.553,3.091 5.57,4.25 l -0.004,6.942 0,0 z M 59.365,38.285 57.97,35.907 c 5.265,-3.087 7.033,-9.892 3.938,-15.163 -3.084,-5.273 -9.896,-7.047 -15.155,-3.958 l -1.398,-2.375 c 6.583,-3.861 15.073,-1.639 18.931,4.941 3.863,6.583 1.655,15.077 -4.921,18.933 z m 3.433,5.849 -1.398,-2.38 C 69.888,36.774 72.739,25.812 67.753,17.316 62.77,8.821 51.809,5.962 43.318,10.939 L 41.929,8.561 c 9.788,-5.746 22.443,-2.448 28.196,7.356 5.755,9.811 2.466,22.466 -7.327,28.217 z"
             id="path3792" />
        </g>
        <g
           id="g3794" />
        <g
           id="g3796" />
        <g
           id="g3798" />
        <g
           id="g3800" />
        <g
           id="g3802" />
        <g
           id="g3804" />
        <g
           id="g3806" />
        <g
           id="g3808" />
        <g
           id="g3810" />
        <g
           id="g3812" />
        <g
           id="g3814" />
        <g
           id="g3816" />
        <g
           id="g3818" />
        <g
           id="g3820" />
        <g
           id="g3822" />
      </g>
      <g
         transform="matrix(0.97881687,0.22992163,-0.18231228,0.97881687,-23.686037,-27.709806)"
         id="g4043">
        <path
           inkscape:connector-curvature="0"
           d="m 14.448,30.485 c -5.421,5.421 -5.421,14.242 0.002,19.666 5.419,5.418 14.242,5.415 19.663,-0.005 0.071,-0.068 0.129,-0.147 0.196,-0.226 l 0.925,0.929 c -0.065,0.073 -0.123,0.15 -0.196,0.229 -5.933,5.933 -15.586,5.933 -21.519,0 -5.936,-5.936 -5.936,-15.589 0,-21.522 0.072,-0.073 0.152,-0.129 0.225,-0.196 l 0.927,0.928 c -0.072,0.071 -0.148,0.124 -0.223,0.197 z m 23.695,23.693 c -7.641,7.64 -20.082,7.64 -27.722,0 -7.641,-7.642 -7.643,-20.08 0,-27.72 0.071,-0.071 0.147,-0.131 0.22,-0.201 L 9.713,25.33 c -0.071,0.069 -0.147,0.133 -0.22,0.201 -8.154,8.154 -8.151,21.422 0,29.576 8.155,8.154 21.421,8.154 29.575,0 0.066,-0.069 0.137,-0.145 0.205,-0.217 l -0.926,-0.929 c -0.073,0.068 -0.136,0.146 -0.204,0.217 z M 19.246,34.859 18.314,33.93 c -0.073,0.066 -0.15,0.123 -0.225,0.196 -3.417,3.417 -3.41,8.974 0.002,12.389 3.415,3.412 8.972,3.417 12.39,0 0.07,-0.068 0.125,-0.146 0.194,-0.224 L 29.746,45.36 c -0.067,0.075 -0.125,0.152 -0.196,0.229 -2.9,2.901 -7.625,2.901 -10.529,0 -2.904,-2.906 -2.904,-7.631 0,-10.53 0.065,-0.077 0.143,-0.136 0.225,-0.2 z m 22.925,-1.355 -3.34,3.335 -1.414,-1.414 7.947,-7.953 c 0.629,-0.626 0.511,-1.761 -0.265,-2.537 L 39.665,19.504 C 38.89,18.728 37.76,18.612 37.128,19.238 l -7.947,7.951 -1.42,-1.42 3.335,-3.336 L 8.664,0 0.002,8.661 l 22.434,22.436 3.336,-3.337 1.42,1.422 -2.411,2.414 c -0.631,0.627 -0.513,1.763 0.265,2.537 l 1.866,1.863 -3.265,3.262 -1.46,-1.46 c -0.076,0.064 -0.159,0.114 -0.236,0.192 -1.287,1.286 -1.287,3.376 0,4.667 1.292,1.286 3.38,1.286 4.667,0 0.075,-0.073 0.124,-0.155 0.189,-0.237 l -1.459,-1.458 3.265,-3.264 1.861,1.865 c 0.778,0.775 1.914,0.893 2.542,0.265 l 2.412,-2.413 1.414,1.417 -3.336,3.337 22.436,22.435 8.659,-8.661 -22.43,-22.439 z"
           id="path4045" />
      </g>
    </g>
    <g
       id="g4047" />
    <g
       id="g4049" />
    <g
       id="g4051" />
    <g
       id="g4053" />
    <g
       id="g4055" />
    <g
       id="g4057" />
    <g
       id="g4059" />
    <g
       id="g4061" />
    <g
       id="g4063" />
    <g
       id="g4065" />
    <g
       id="g4067" />
    <g
       id="g4069" />
    <g
       id="g4071" />
    <g
       id="g4073" />
    <g
       id="g4075" />
  </g>
</svg>
