  0
SECTION
  2
HEADER
  9
$ACADVER
  1
AC1009
  9
$INSBASE
 10
0.0
 20
0.0
 30
0.0
  9
$EXTMIN
 10
0.0
 20
0.0
 30
0.0
  9
$EXTMAX
 10
0.0
 20
0.0
 30
0.0
  0
ENDSEC
  0
SECTION
  2
TABLES
  0
TABLE
  2
VPORT
 70
0
  0
ENDTAB
  0
TABLE
  2
LTYPE
 70
1
  0
LTYPE
  2
CONTINUOUS
 70
0
  3
Solid line
 72
65
 73
0
 40
0.0
  0
ENDTAB
  0
TABLE
  2
LAYER
 70
1
  0
LAYER
  2
0
 70
64
 62
7
  6
continuous
  0
ENDTAB
  0
TABLE
  2
STYLE
 70
1
  0
STYLE
  2
STANDARD
 70
0
 40
0
 41
1.0
 50
0.0
 71
0
 42
1
 3
ARIAL.TTF
 4

  0
ENDTAB
  0
TABLE
  2
VIEW
 70
0
  0
ENDTAB
  0
ENDSEC
  0
SECTION
  2
BLOCKS
  0
BLOCK
  8
0
  2
SCALE
 70
0
 10
0.0
 20
0.0
 30
0.0
  3
SCALE
  0
POLYLINE
  8
0
 62
0
 70
0
 66
1
 10
0.0
 20
0.0
 30
0.0
  0
VERTEX
  8
0
 10
107.076115628
 20
326.880349931
 30
0.0
  0
VERTEX
  8
0
 10
107.126115628
 20
326.880349931
 30
0.0
  0
VERTEX
  8
0
 10
107.176115628
 20
326.880349931
 30
0.0
  0
VERTEX
  8
0
 10
107.226115628
 20
326.880349931
 30
0.0
  0
VERTEX
  8
0
 10
107.276115628
 20
326.880349931
 30
0.0
  0
VERTEX
  8
0
 10
107.326115628
 20
326.880349931
 30
0.0
  0
VERTEX
  8
0
 10
107.376115628
 20
326.880349931
 30
0.0
  0
VERTEX
  8
0
 10
107.426115628
 20
326.880349931
 30
0.0
  0
VERTEX
  8
0
 10
107.476115628
 20
326.880349931
 30
0.0
  0
VERTEX
  8
0
 10
107.526115628
 20
326.880349931
 30
0.0
  0
VERTEX
  8
0
 10
107.576115628
 20
326.880349931
 30
0.0
  0
VERTEX
  8
0
 10
107.626115628
 20
326.880349931
 30
0.0
  0
VERTEX
  8
0
 10
107.676115628
 20
326.880349931
 30
0.0
  0
VERTEX
  8
0
 10
107.726115628
 20
326.880349931
 30
0.0
  0
VERTEX
  8
0
 10
107.776115628
 20
326.880349931
 30
0.0
  0
VERTEX
  8
0
 10
107.826115628
 20
326.880349931
 30
0.0
  0
VERTEX
  8
0
 10
107.876115628
 20
326.880349931
 30
0.0
  0
VERTEX
  8
0
 10
107.926115628
 20
326.880349931
 30
0.0
  0
VERTEX
  8
0
 10
107.976115628
 20
326.880349931
 30
0.0
  0
VERTEX
  8
0
 10
108.026115628
 20
326.880349931
 30
0.0
  0
VERTEX
  8
0
 10
108.076115628
 20
326.880349931
 30
0.0
  0
VERTEX
  8
0
 10
108.126115628
 20
326.880349931
 30
0.0
  0
VERTEX
  8
0
 10
108.176115628
 20
326.880349931
 30
0.0
  0
VERTEX
  8
0
 10
108.226115628
 20
326.880349931
 30
0.0
  0
VERTEX
  8
0
 10
108.276115628
 20
326.880349931
 30
0.0
  0
VERTEX
  8
0
 10
108.326115628
 20
326.880349931
 30
0.0
  0
VERTEX
  8
0
 10
108.376115628
 20
326.880349931
 30
0.0
  0
VERTEX
  8
0
 10
108.426115628
 20
326.880349931
 30
0.0
  0
VERTEX
  8
0
 10
108.476115628
 20
326.880349931
 30
0.0
  0
VERTEX
  8
0
 10
108.526115628
 20
326.880349931
 30
0.0
  0
VERTEX
  8
0
 10
108.576115628
 20
326.880349931
 30
0.0
  0
VERTEX
  8
0
 10
108.626115628
 20
326.880349931
 30
0.0
  0
VERTEX
  8
0
 10
108.676115628
 20
326.880349931
 30
0.0
  0
VERTEX
  8
0
 10
108.726115628
 20
326.880349931
 30
0.0
  0
VERTEX
  8
0
 10
108.776115628
 20
326.880349931
 30
0.0
  0
VERTEX
  8
0
 10
108.826115628
 20
326.880349931
 30
0.0
  0
VERTEX
  8
0
 10
108.876115628
 20
326.880349931
 30
0.0
  0
VERTEX
  8
0
 10
108.926115628
 20
326.880349931
 30
0.0
  0
VERTEX
  8
0
 10
108.976115628
 20
326.880349931
 30
0.0
  0
VERTEX
  8
0
 10
109.026115628
 20
326.880349931
 30
0.0
  0
VERTEX
  8
0
 10
109.076115628
 20
326.880349931
 30
0.0
  0
VERTEX
  8
0
 10
109.126115628
 20
326.880349931
 30
0.0
  0
VERTEX
  8
0
 10
109.176115628
 20
326.880349931
 30
0.0
  0
VERTEX
  8
0
 10
109.226115628
 20
326.880349931
 30
0.0
  0
VERTEX
  8
0
 10
109.276115628
 20
326.880349931
 30
0.0
  0
VERTEX
  8
0
 10
109.326115628
 20
326.880349931
 30
0.0
  0
VERTEX
  8
0
 10
109.376115628
 20
326.880349931
 30
0.0
  0
VERTEX
  8
0
 10
109.426115628
 20
326.880349931
 30
0.0
  0
VERTEX
  8
0
 10
109.476115628
 20
326.880349931
 30
0.0
  0
VERTEX
  8
0
 10
109.526115628
 20
326.880349931
 30
0.0
  0
VERTEX
  8
0
 10
109.576115628
 20
326.880349931
 30
0.0
  0
VERTEX
  8
0
 10
109.626115628
 20
326.880349931
 30
0.0
  0
VERTEX
  8
0
 10
109.676115628
 20
326.880349931
 30
0.0
  0
VERTEX
  8
0
 10
109.726115628
 20
326.880349931
 30
0.0
  0
VERTEX
  8
0
 10
109.776115628
 20
326.880349931
 30
0.0
  0
VERTEX
  8
0
 10
109.826115628
 20
326.880349931
 30
0.0
  0
VERTEX
  8
0
 10
109.876115628
 20
326.880349931
 30
0.0
  0
VERTEX
  8
0
 10
109.926115628
 20
326.880349931
 30
0.0
  0
VERTEX
  8
0
 10
109.976115628
 20
326.880349931
 30
0.0
  0
VERTEX
  8
0
 10
110.026115628
 20
326.880349931
 30
0.0
  0
VERTEX
  8
0
 10
110.076115628
 20
326.880349931
 30
0.0
  0
VERTEX
  8
0
 10
110.126115628
 20
326.880349931
 30
0.0
  0
VERTEX
  8
0
 10
110.176115628
 20
326.880349931
 30
0.0
  0
VERTEX
  8
0
 10
110.226115628
 20
326.880349931
 30
0.0
  0
VERTEX
  8
0
 10
110.276115628
 20
326.880349931
 30
0.0
  0
VERTEX
  8
0
 10
110.326115628
 20
326.880349931
 30
0.0
  0
VERTEX
  8
0
 10
110.376115628
 20
326.880349931
 30
0.0
  0
VERTEX
  8
0
 10
110.426115628
 20
326.880349931
 30
0.0
  0
VERTEX
  8
0
 10
110.476115628
 20
326.880349931
 30
0.0
  0
VERTEX
  8
0
 10
110.526115628
 20
326.880349931
 30
0.0
  0
VERTEX
  8
0
 10
110.576115628
 20
326.880349931
 30
0.0
  0
VERTEX
  8
0
 10
110.626115628
 20
326.880349931
 30
0.0
  0
VERTEX
  8
0
 10
110.676115628
 20
326.880349931
 30
0.0
  0
VERTEX
  8
0
 10
110.726115628
 20
326.880349931
 30
0.0
  0
VERTEX
  8
0
 10
110.776115628
 20
326.880349931
 30
0.0
  0
VERTEX
  8
0
 10
110.826115628
 20
326.880349931
 30
0.0
  0
VERTEX
  8
0
 10
110.876115628
 20
326.880349931
 30
0.0
  0
VERTEX
  8
0
 10
110.926115628
 20
326.880349931
 30
0.0
  0
VERTEX
  8
0
 10
110.976115628
 20
326.880349931
 30
0.0
  0
VERTEX
  8
0
 10
111.026115628
 20
326.880349931
 30
0.0
  0
VERTEX
  8
0
 10
111.076115628
 20
326.880349931
 30
0.0
  0
VERTEX
  8
0
 10
111.126115628
 20
326.880349931
 30
0.0
  0
VERTEX
  8
0
 10
111.176115628
 20
326.880349931
 30
0.0
  0
VERTEX
  8
0
 10
111.226115628
 20
326.880349931
 30
0.0
  0
VERTEX
  8
0
 10
111.276115628
 20
326.880349931
 30
0.0
  0
VERTEX
  8
0
 10
111.326115628
 20
326.880349931
 30
0.0
  0
VERTEX
  8
0
 10
111.376115628
 20
326.880349931
 30
0.0
  0
VERTEX
  8
0
 10
111.426115628
 20
326.880349931
 30
0.0
  0
VERTEX
  8
0
 10
111.476115628
 20
326.880349931
 30
0.0
  0
VERTEX
  8
0
 10
111.526115628
 20
326.880349931
 30
0.0
  0
VERTEX
  8
0
 10
111.576115628
 20
326.880349931
 30
0.0
  0
VERTEX
  8
0
 10
111.626115628
 20
326.880349931
 30
0.0
  0
VERTEX
  8
0
 10
111.676115628
 20
326.880349931
 30
0.0
  0
VERTEX
  8
0
 10
111.726115628
 20
326.880349931
 30
0.0
  0
VERTEX
  8
0
 10
111.776115628
 20
326.880349931
 30
0.0
  0
VERTEX
  8
0
 10
111.826115628
 20
326.880349931
 30
0.0
  0
VERTEX
  8
0
 10
111.876115628
 20
326.880349931
 30
0.0
  0
VERTEX
  8
0
 10
111.926115628
 20
326.880349931
 30
0.0
  0
VERTEX
  8
0
 10
111.976115628
 20
326.880349931
 30
0.0
  0
VERTEX
  8
0
 10
112.026115628
 20
326.880349931
 30
0.0
  0
VERTEX
  8
0
 10
112.076115628
 20
326.880349931
 30
0.0
  0
VERTEX
  8
0
 10
112.126115628
 20
326.880349931
 30
0.0
  0
VERTEX
  8
0
 10
112.176115628
 20
326.880349931
 30
0.0
  0
VERTEX
  8
0
 10
112.226115628
 20
326.880349931
 30
0.0
  0
VERTEX
  8
0
 10
112.276115628
 20
326.880349931
 30
0.0
  0
VERTEX
  8
0
 10
112.326115628
 20
326.880349931
 30
0.0
  0
VERTEX
  8
0
 10
112.376115628
 20
326.880349931
 30
0.0
  0
VERTEX
  8
0
 10
112.426115628
 20
326.880349931
 30
0.0
  0
VERTEX
  8
0
 10
112.476115628
 20
326.880349931
 30
0.0
  0
VERTEX
  8
0
 10
112.526115628
 20
326.880349931
 30
0.0
  0
VERTEX
  8
0
 10
112.576115628
 20
326.880349931
 30
0.0
  0
VERTEX
  8
0
 10
112.626115628
 20
326.880349931
 30
0.0
  0
VERTEX
  8
0
 10
112.676115628
 20
326.880349931
 30
0.0
  0
VERTEX
  8
0
 10
112.726115628
 20
326.880349931
 30
0.0
  0
VERTEX
  8
0
 10
112.776115628
 20
326.880349931
 30
0.0
  0
VERTEX
  8
0
 10
112.826115628
 20
326.880349931
 30
0.0
  0
VERTEX
  8
0
 10
112.876115628
 20
326.880349931
 30
0.0
  0
VERTEX
  8
0
 10
112.926115628
 20
326.880349931
 30
0.0
  0
VERTEX
  8
0
 10
112.976115628
 20
326.880349931
 30
0.0
  0
VERTEX
  8
0
 10
113.026115628
 20
326.880349931
 30
0.0
  0
VERTEX
  8
0
 10
113.076115628
 20
326.880349931
 30
0.0
  0
VERTEX
  8
0
 10
113.126115628
 20
326.880349931
 30
0.0
  0
VERTEX
  8
0
 10
113.176115628
 20
326.880349931
 30
0.0
  0
VERTEX
  8
0
 10
113.226115628
 20
326.880349931
 30
0.0
  0
VERTEX
  8
0
 10
113.276115628
 20
326.880349931
 30
0.0
  0
VERTEX
  8
0
 10
113.326115628
 20
326.880349931
 30
0.0
  0
VERTEX
  8
0
 10
113.376115628
 20
326.880349931
 30
0.0
  0
VERTEX
  8
0
 10
113.426115628
 20
326.880349931
 30
0.0
  0
VERTEX
  8
0
 10
113.476115628
 20
326.880349931
 30
0.0
  0
VERTEX
  8
0
 10
113.526115628
 20
326.880349931
 30
0.0
  0
VERTEX
  8
0
 10
113.576115628
 20
326.880349931
 30
0.0
  0
VERTEX
  8
0
 10
113.626115628
 20
326.880349931
 30
0.0
  0
VERTEX
  8
0
 10
113.676115628
 20
326.880349931
 30
0.0
  0
VERTEX
  8
0
 10
113.726115628
 20
326.880349931
 30
0.0
  0
VERTEX
  8
0
 10
113.776115628
 20
326.880349931
 30
0.0
  0
VERTEX
  8
0
 10
113.826115628
 20
326.880349931
 30
0.0
  0
VERTEX
  8
0
 10
113.876115628
 20
326.880349931
 30
0.0
  0
VERTEX
  8
0
 10
113.926115628
 20
326.880349931
 30
0.0
  0
VERTEX
  8
0
 10
113.976115628
 20
326.880349931
 30
0.0
  0
VERTEX
  8
0
 10
114.026115628
 20
326.880349931
 30
0.0
  0
VERTEX
  8
0
 10
114.076115628
 20
326.880349931
 30
0.0
  0
VERTEX
  8
0
 10
114.126115628
 20
326.880349931
 30
0.0
  0
VERTEX
  8
0
 10
114.176115628
 20
326.880349931
 30
0.0
  0
VERTEX
  8
0
 10
114.226115628
 20
326.880349931
 30
0.0
  0
VERTEX
  8
0
 10
114.276115628
 20
326.880349931
 30
0.0
  0
VERTEX
  8
0
 10
114.326115628
 20
326.880349931
 30
0.0
  0
VERTEX
  8
0
 10
114.376115628
 20
326.880349931
 30
0.0
  0
VERTEX
  8
0
 10
114.426115628
 20
326.880349931
 30
0.0
  0
VERTEX
  8
0
 10
114.476115628
 20
326.880349931
 30
0.0
  0
VERTEX
  8
0
 10
114.526115628
 20
326.880349931
 30
0.0
  0
VERTEX
  8
0
 10
114.576115628
 20
326.880349931
 30
0.0
  0
VERTEX
  8
0
 10
114.626115628
 20
326.880349931
 30
0.0
  0
VERTEX
  8
0
 10
114.676115628
 20
326.880349931
 30
0.0
  0
VERTEX
  8
0
 10
114.726115628
 20
326.880349931
 30
0.0
  0
VERTEX
  8
0
 10
114.776115628
 20
326.880349931
 30
0.0
  0
VERTEX
  8
0
 10
114.826115628
 20
326.880349931
 30
0.0
  0
VERTEX
  8
0
 10
114.876115628
 20
326.880349931
 30
0.0
  0
VERTEX
  8
0
 10
114.926115628
 20
326.880349931
 30
0.0
  0
VERTEX
  8
0
 10
114.976115628
 20
326.880349931
 30
0.0
  0
VERTEX
  8
0
 10
115.026115628
 20
326.880349931
 30
0.0
  0
VERTEX
  8
0
 10
115.076115628
 20
326.880349931
 30
0.0
  0
VERTEX
  8
0
 10
115.126115628
 20
326.880349931
 30
0.0
  0
VERTEX
  8
0
 10
115.176115628
 20
326.880349931
 30
0.0
  0
VERTEX
  8
0
 10
115.226115628
 20
326.880349931
 30
0.0
  0
VERTEX
  8
0
 10
115.276115628
 20
326.880349931
 30
0.0
  0
VERTEX
  8
0
 10
115.326115628
 20
326.880349931
 30
0.0
  0
VERTEX
  8
0
 10
115.376115628
 20
326.880349931
 30
0.0
  0
VERTEX
  8
0
 10
115.426115628
 20
326.880349931
 30
0.0
  0
VERTEX
  8
0
 10
115.476115628
 20
326.880349931
 30
0.0
  0
VERTEX
  8
0
 10
115.526115628
 20
326.880349931
 30
0.0
  0
VERTEX
  8
0
 10
115.576115628
 20
326.880349931
 30
0.0
  0
VERTEX
  8
0
 10
115.626115628
 20
326.880349931
 30
0.0
  0
VERTEX
  8
0
 10
115.676115628
 20
326.880349931
 30
0.0
  0
VERTEX
  8
0
 10
115.726115628
 20
326.880349931
 30
0.0
  0
VERTEX
  8
0
 10
115.776115628
 20
326.880349931
 30
0.0
  0
VERTEX
  8
0
 10
115.826115628
 20
326.880349931
 30
0.0
  0
VERTEX
  8
0
 10
115.876115628
 20
326.880349931
 30
0.0
  0
VERTEX
  8
0
 10
115.926115628
 20
326.880349931
 30
0.0
  0
VERTEX
  8
0
 10
115.976115628
 20
326.880349931
 30
0.0
  0
VERTEX
  8
0
 10
116.026115628
 20
326.880349931
 30
0.0
  0
VERTEX
  8
0
 10
116.076115628
 20
326.880349931
 30
0.0
  0
VERTEX
  8
0
 10
116.126115628
 20
326.880349931
 30
0.0
  0
VERTEX
  8
0
 10
116.176115628
 20
326.880349931
 30
0.0
  0
VERTEX
  8
0
 10
116.226115628
 20
326.880349931
 30
0.0
  0
VERTEX
  8
0
 10
116.276115628
 20
326.880349931
 30
0.0
  0
VERTEX
  8
0
 10
116.326115628
 20
326.880349931
 30
0.0
  0
VERTEX
  8
0
 10
116.376115628
 20
326.880349931
 30
0.0
  0
VERTEX
  8
0
 10
116.426115628
 20
326.880349931
 30
0.0
  0
VERTEX
  8
0
 10
116.476115628
 20
326.880349931
 30
0.0
  0
VERTEX
  8
0
 10
116.526115628
 20
326.880349931
 30
0.0
  0
VERTEX
  8
0
 10
116.576115628
 20
326.880349931
 30
0.0
  0
VERTEX
  8
0
 10
116.626115628
 20
326.880349931
 30
0.0
  0
VERTEX
  8
0
 10
116.676115628
 20
326.880349931
 30
0.0
  0
VERTEX
  8
0
 10
116.726115628
 20
326.880349931
 30
0.0
  0
VERTEX
  8
0
 10
116.776115628
 20
326.880349931
 30
0.0
  0
VERTEX
  8
0
 10
116.826115628
 20
326.880349931
 30
0.0
  0
VERTEX
  8
0
 10
116.876115628
 20
326.880349931
 30
0.0
  0
VERTEX
  8
0
 10
116.926115628
 20
326.880349931
 30
0.0
  0
VERTEX
  8
0
 10
116.976115628
 20
326.880349931
 30
0.0
  0
VERTEX
  8
0
 10
117.026115628
 20
326.880349931
 30
0.0
  0
VERTEX
  8
0
 10
117.076115628
 20
326.880349931
 30
0.0
  0
VERTEX
  8
0
 10
117.126115628
 20
326.880349931
 30
0.0
  0
VERTEX
  8
0
 10
117.176115628
 20
326.880349931
 30
0.0
  0
VERTEX
  8
0
 10
117.226115628
 20
326.880349931
 30
0.0
  0
VERTEX
  8
0
 10
117.276115628
 20
326.880349931
 30
0.0
  0
VERTEX
  8
0
 10
117.326115628
 20
326.880349931
 30
0.0
  0
VERTEX
  8
0
 10
117.376115628
 20
326.880349931
 30
0.0
  0
VERTEX
  8
0
 10
117.426115628
 20
326.880349931
 30
0.0
  0
VERTEX
  8
0
 10
117.476115628
 20
326.880349931
 30
0.0
  0
VERTEX
  8
0
 10
117.526115628
 20
326.880349931
 30
0.0
  0
VERTEX
  8
0
 10
117.576115628
 20
326.880349931
 30
0.0
  0
VERTEX
  8
0
 10
117.626115628
 20
326.880349931
 30
0.0
  0
VERTEX
  8
0
 10
117.676115628
 20
326.880349931
 30
0.0
  0
VERTEX
  8
0
 10
117.726115628
 20
326.880349931
 30
0.0
  0
VERTEX
  8
0
 10
117.776115628
 20
326.880349931
 30
0.0
  0
VERTEX
  8
0
 10
117.826115628
 20
326.880349931
 30
0.0
  0
VERTEX
  8
0
 10
117.876115628
 20
326.880349931
 30
0.0
  0
VERTEX
  8
0
 10
117.926115628
 20
326.880349931
 30
0.0
  0
VERTEX
  8
0
 10
117.976115628
 20
326.880349931
 30
0.0
  0
VERTEX
  8
0
 10
118.026115628
 20
326.880349931
 30
0.0
  0
VERTEX
  8
0
 10
118.076115628
 20
326.880349931
 30
0.0
  0
VERTEX
  8
0
 10
118.126115628
 20
326.880349931
 30
0.0
  0
VERTEX
  8
0
 10
118.176115628
 20
326.880349931
 30
0.0
  0
VERTEX
  8
0
 10
118.226115628
 20
326.880349931
 30
0.0
  0
VERTEX
  8
0
 10
118.276115628
 20
326.880349931
 30
0.0
  0
VERTEX
  8
0
 10
118.326115628
 20
326.880349931
 30
0.0
  0
VERTEX
  8
0
 10
118.376115628
 20
326.880349931
 30
0.0
  0
VERTEX
  8
0
 10
118.426115628
 20
326.880349931
 30
0.0
  0
VERTEX
  8
0
 10
118.476115628
 20
326.880349931
 30
0.0
  0
VERTEX
  8
0
 10
118.526115628
 20
326.880349931
 30
0.0
  0
VERTEX
  8
0
 10
118.576115628
 20
326.880349931
 30
0.0
  0
VERTEX
  8
0
 10
118.626115628
 20
326.880349931
 30
0.0
  0
VERTEX
  8
0
 10
118.676115628
 20
326.880349931
 30
0.0
  0
VERTEX
  8
0
 10
118.726115628
 20
326.880349931
 30
0.0
  0
VERTEX
  8
0
 10
118.776115628
 20
326.880349931
 30
0.0
  0
VERTEX
  8
0
 10
118.826115628
 20
326.880349931
 30
0.0
  0
VERTEX
  8
0
 10
118.876115628
 20
326.880349931
 30
0.0
  0
VERTEX
  8
0
 10
118.926115628
 20
326.880349931
 30
0.0
  0
VERTEX
  8
0
 10
118.976115628
 20
326.880349931
 30
0.0
  0
VERTEX
  8
0
 10
119.026115628
 20
326.880349931
 30
0.0
  0
VERTEX
  8
0
 10
119.076115628
 20
326.880349931
 30
0.0
  0
VERTEX
  8
0
 10
119.126115628
 20
326.880349931
 30
0.0
  0
VERTEX
  8
0
 10
119.176115628
 20
326.880349931
 30
0.0
  0
VERTEX
  8
0
 10
119.226115628
 20
326.880349931
 30
0.0
  0
VERTEX
  8
0
 10
119.276115628
 20
326.880349931
 30
0.0
  0
VERTEX
  8
0
 10
119.326115628
 20
326.880349931
 30
0.0
  0
VERTEX
  8
0
 10
119.376115628
 20
326.880349931
 30
0.0
  0
VERTEX
  8
0
 10
119.426115628
 20
326.880349931
 30
0.0
  0
VERTEX
  8
0
 10
119.476115628
 20
326.880349931
 30
0.0
  0
VERTEX
  8
0
 10
119.526115628
 20
326.880349931
 30
0.0
  0
VERTEX
  8
0
 10
119.576115628
 20
326.880349931
 30
0.0
  0
VERTEX
  8
0
 10
119.626115628
 20
326.880349931
 30
0.0
  0
VERTEX
  8
0
 10
119.676115628
 20
326.880349931
 30
0.0
  0
VERTEX
  8
0
 10
119.726115628
 20
326.880349931
 30
0.0
  0
VERTEX
  8
0
 10
119.776115628
 20
326.880349931
 30
0.0
  0
VERTEX
  8
0
 10
119.826115628
 20
326.880349931
 30
0.0
  0
VERTEX
  8
0
 10
119.876115628
 20
326.880349931
 30
0.0
  0
VERTEX
  8
0
 10
119.926115628
 20
326.880349931
 30
0.0
  0
VERTEX
  8
0
 10
119.976115628
 20
326.880349931
 30
0.0
  0
VERTEX
  8
0
 10
120.026115628
 20
326.880349931
 30
0.0
  0
VERTEX
  8
0
 10
120.076115628
 20
326.880349931
 30
0.0
  0
VERTEX
  8
0
 10
120.126115628
 20
326.880349931
 30
0.0
  0
VERTEX
  8
0
 10
120.176115628
 20
326.880349931
 30
0.0
  0
VERTEX
  8
0
 10
120.226115628
 20
326.880349931
 30
0.0
  0
VERTEX
  8
0
 10
120.276115628
 20
326.880349931
 30
0.0
  0
VERTEX
  8
0
 10
120.326115628
 20
326.880349931
 30
0.0
  0
VERTEX
  8
0
 10
120.376115628
 20
326.880349931
 30
0.0
  0
VERTEX
  8
0
 10
120.426115628
 20
326.880349931
 30
0.0
  0
VERTEX
  8
0
 10
120.476115628
 20
326.880349931
 30
0.0
  0
VERTEX
  8
0
 10
120.526115628
 20
326.880349931
 30
0.0
  0
VERTEX
  8
0
 10
120.576115628
 20
326.880349931
 30
0.0
  0
VERTEX
  8
0
 10
120.626115628
 20
326.880349931
 30
0.0
  0
VERTEX
  8
0
 10
120.676115628
 20
326.880349931
 30
0.0
  0
VERTEX
  8
0
 10
120.726115628
 20
326.880349931
 30
0.0
  0
VERTEX
  8
0
 10
120.776115628
 20
326.880349931
 30
0.0
  0
VERTEX
  8
0
 10
120.826115628
 20
326.880349931
 30
0.0
  0
VERTEX
  8
0
 10
120.876115628
 20
326.880349931
 30
0.0
  0
VERTEX
  8
0
 10
120.926115628
 20
326.880349931
 30
0.0
  0
VERTEX
  8
0
 10
120.976115628
 20
326.880349931
 30
0.0
  0
VERTEX
  8
0
 10
121.026115628
 20
326.880349931
 30
0.0
  0
VERTEX
  8
0
 10
121.076115628
 20
326.880349931
 30
0.0
  0
VERTEX
  8
0
 10
121.126115628
 20
326.880349931
 30
0.0
  0
VERTEX
  8
0
 10
121.176115628
 20
326.880349931
 30
0.0
  0
VERTEX
  8
0
 10
121.226115628
 20
326.880349931
 30
0.0
  0
VERTEX
  8
0
 10
121.276115628
 20
326.880349931
 30
0.0
  0
VERTEX
  8
0
 10
121.326115628
 20
326.880349931
 30
0.0
  0
VERTEX
  8
0
 10
121.376115628
 20
326.880349931
 30
0.0
  0
VERTEX
  8
0
 10
121.426115628
 20
326.880349931
 30
0.0
  0
VERTEX
  8
0
 10
121.476115628
 20
326.880349931
 30
0.0
  0
VERTEX
  8
0
 10
121.526115628
 20
326.880349931
 30
0.0
  0
VERTEX
  8
0
 10
121.576115628
 20
326.880349931
 30
0.0
  0
VERTEX
  8
0
 10
121.626115628
 20
326.880349931
 30
0.0
  0
VERTEX
  8
0
 10
121.676115628
 20
326.880349931
 30
0.0
  0
VERTEX
  8
0
 10
121.726115628
 20
326.880349931
 30
0.0
  0
VERTEX
  8
0
 10
121.776115628
 20
326.880349931
 30
0.0
  0
VERTEX
  8
0
 10
121.826115628
 20
326.880349931
 30
0.0
  0
VERTEX
  8
0
 10
121.876115628
 20
326.880349931
 30
0.0
  0
VERTEX
  8
0
 10
121.926115628
 20
326.880349931
 30
0.0
  0
VERTEX
  8
0
 10
121.976115628
 20
326.880349931
 30
0.0
  0
VERTEX
  8
0
 10
122.026115628
 20
326.880349931
 30
0.0
  0
VERTEX
  8
0
 10
122.076115628
 20
326.880349931
 30
0.0
  0
VERTEX
  8
0
 10
122.126115628
 20
326.880349931
 30
0.0
  0
VERTEX
  8
0
 10
122.176115628
 20
326.880349931
 30
0.0
  0
VERTEX
  8
0
 10
122.226115628
 20
326.880349931
 30
0.0
  0
VERTEX
  8
0
 10
122.276115628
 20
326.880349931
 30
0.0
  0
VERTEX
  8
0
 10
122.326115628
 20
326.880349931
 30
0.0
  0
VERTEX
  8
0
 10
122.376115628
 20
326.880349931
 30
0.0
  0
VERTEX
  8
0
 10
122.426115628
 20
326.880349931
 30
0.0
  0
VERTEX
  8
0
 10
122.476115628
 20
326.880349931
 30
0.0
  0
VERTEX
  8
0
 10
122.526115628
 20
326.880349931
 30
0.0
  0
VERTEX
  8
0
 10
122.576115628
 20
326.880349931
 30
0.0
  0
VERTEX
  8
0
 10
122.626115628
 20
326.880349931
 30
0.0
  0
VERTEX
  8
0
 10
122.676115628
 20
326.880349931
 30
0.0
  0
VERTEX
  8
0
 10
122.726115628
 20
326.880349931
 30
0.0
  0
VERTEX
  8
0
 10
122.776115628
 20
326.880349931
 30
0.0
  0
VERTEX
  8
0
 10
122.826115628
 20
326.880349931
 30
0.0
  0
VERTEX
  8
0
 10
122.876115628
 20
326.880349931
 30
0.0
  0
VERTEX
  8
0
 10
122.926115628
 20
326.880349931
 30
0.0
  0
VERTEX
  8
0
 10
122.976115628
 20
326.880349931
 30
0.0
  0
VERTEX
  8
0
 10
123.026115628
 20
326.880349931
 30
0.0
  0
VERTEX
  8
0
 10
123.076115628
 20
326.880349931
 30
0.0
  0
VERTEX
  8
0
 10
123.126115628
 20
326.880349931
 30
0.0
  0
VERTEX
  8
0
 10
123.176115628
 20
326.880349931
 30
0.0
  0
VERTEX
  8
0
 10
123.226115628
 20
326.880349931
 30
0.0
  0
VERTEX
  8
0
 10
123.276115628
 20
326.880349931
 30
0.0
  0
VERTEX
  8
0
 10
123.326115628
 20
326.880349931
 30
0.0
  0
VERTEX
  8
0
 10
123.376115628
 20
326.880349931
 30
0.0
  0
VERTEX
  8
0
 10
123.426115628
 20
326.880349931
 30
0.0
  0
VERTEX
  8
0
 10
123.476115628
 20
326.880349931
 30
0.0
  0
VERTEX
  8
0
 10
123.526115628
 20
326.880349931
 30
0.0
  0
VERTEX
  8
0
 10
123.576115628
 20
326.880349931
 30
0.0
  0
VERTEX
  8
0
 10
123.626115628
 20
326.880349931
 30
0.0
  0
VERTEX
  8
0
 10
123.676115628
 20
326.880349931
 30
0.0
  0
VERTEX
  8
0
 10
123.726115628
 20
326.880349931
 30
0.0
  0
VERTEX
  8
0
 10
123.776115628
 20
326.880349931
 30
0.0
  0
VERTEX
  8
0
 10
123.826115628
 20
326.880349931
 30
0.0
  0
VERTEX
  8
0
 10
123.876115628
 20
326.880349931
 30
0.0
  0
VERTEX
  8
0
 10
123.926115628
 20
326.880349931
 30
0.0
  0
VERTEX
  8
0
 10
123.976115628
 20
326.880349931
 30
0.0
  0
VERTEX
  8
0
 10
124.026115628
 20
326.880349931
 30
0.0
  0
VERTEX
  8
0
 10
124.076115628
 20
326.880349931
 30
0.0
  0
VERTEX
  8
0
 10
124.126115628
 20
326.880349931
 30
0.0
  0
VERTEX
  8
0
 10
124.176115628
 20
326.880349931
 30
0.0
  0
VERTEX
  8
0
 10
124.226115628
 20
326.880349931
 30
0.0
  0
VERTEX
  8
0
 10
124.276115628
 20
326.880349931
 30
0.0
  0
VERTEX
  8
0
 10
124.326115628
 20
326.880349931
 30
0.0
  0
VERTEX
  8
0
 10
124.376115628
 20
326.880349931
 30
0.0
  0
VERTEX
  8
0
 10
124.426115628
 20
326.880349931
 30
0.0
  0
VERTEX
  8
0
 10
124.476115628
 20
326.880349931
 30
0.0
  0
VERTEX
  8
0
 10
124.526115628
 20
326.880349931
 30
0.0
  0
VERTEX
  8
0
 10
124.576115628
 20
326.880349931
 30
0.0
  0
VERTEX
  8
0
 10
124.626115628
 20
326.880349931
 30
0.0
  0
VERTEX
  8
0
 10
124.676115628
 20
326.880349931
 30
0.0
  0
VERTEX
  8
0
 10
124.726115628
 20
326.880349931
 30
0.0
  0
VERTEX
  8
0
 10
124.776115628
 20
326.880349931
 30
0.0
  0
VERTEX
  8
0
 10
124.826115628
 20
326.880349931
 30
0.0
  0
VERTEX
  8
0
 10
124.876115628
 20
326.880349931
 30
0.0
  0
VERTEX
  8
0
 10
124.926115628
 20
326.880349931
 30
0.0
  0
VERTEX
  8
0
 10
124.976115628
 20
326.880349931
 30
0.0
  0
VERTEX
  8
0
 10
125.026115628
 20
326.880349931
 30
0.0
  0
VERTEX
  8
0
 10
125.076115628
 20
326.880349931
 30
0.0
  0
VERTEX
  8
0
 10
125.126115628
 20
326.880349931
 30
0.0
  0
VERTEX
  8
0
 10
125.176115628
 20
326.880349931
 30
0.0
  0
VERTEX
  8
0
 10
125.226115628
 20
326.880349931
 30
0.0
  0
VERTEX
  8
0
 10
125.276115628
 20
326.880349931
 30
0.0
  0
VERTEX
  8
0
 10
125.326115628
 20
326.880349931
 30
0.0
  0
VERTEX
  8
0
 10
125.376115628
 20
326.880349931
 30
0.0
  0
VERTEX
  8
0
 10
125.426115628
 20
326.880349931
 30
0.0
  0
VERTEX
  8
0
 10
125.476115628
 20
326.880349931
 30
0.0
  0
VERTEX
  8
0
 10
125.526115628
 20
326.880349931
 30
0.0
  0
VERTEX
  8
0
 10
125.576115628
 20
326.880349931
 30
0.0
  0
VERTEX
  8
0
 10
125.626115628
 20
326.880349931
 30
0.0
  0
VERTEX
  8
0
 10
125.676115628
 20
326.880349931
 30
0.0
  0
VERTEX
  8
0
 10
125.726115628
 20
326.880349931
 30
0.0
  0
VERTEX
  8
0
 10
125.776115628
 20
326.880349931
 30
0.0
  0
VERTEX
  8
0
 10
125.826115628
 20
326.880349931
 30
0.0
  0
VERTEX
  8
0
 10
125.876115628
 20
326.880349931
 30
0.0
  0
VERTEX
  8
0
 10
125.926115628
 20
326.880349931
 30
0.0
  0
VERTEX
  8
0
 10
125.976115628
 20
326.880349931
 30
0.0
  0
VERTEX
  8
0
 10
126.026115628
 20
326.880349931
 30
0.0
  0
VERTEX
  8
0
 10
126.076115628
 20
326.880349931
 30
0.0
  0
VERTEX
  8
0
 10
126.126115628
 20
326.880349931
 30
0.0
  0
VERTEX
  8
0
 10
126.176115628
 20
326.880349931
 30
0.0
  0
VERTEX
  8
0
 10
126.226115628
 20
326.880349931
 30
0.0
  0
VERTEX
  8
0
 10
126.276115628
 20
326.880349931
 30
0.0
  0
VERTEX
  8
0
 10
126.326115628
 20
326.880349931
 30
0.0
  0
VERTEX
  8
0
 10
126.376115628
 20
326.880349931
 30
0.0
  0
VERTEX
  8
0
 10
126.426115628
 20
326.880349931
 30
0.0
  0
VERTEX
  8
0
 10
126.476115628
 20
326.880349931
 30
0.0
  0
VERTEX
  8
0
 10
126.526115628
 20
326.880349931
 30
0.0
  0
VERTEX
  8
0
 10
126.576115628
 20
326.880349931
 30
0.0
  0
VERTEX
  8
0
 10
126.626115628
 20
326.880349931
 30
0.0
  0
VERTEX
  8
0
 10
126.676115628
 20
326.880349931
 30
0.0
  0
VERTEX
  8
0
 10
126.726115628
 20
326.880349931
 30
0.0
  0
VERTEX
  8
0
 10
126.776115628
 20
326.880349931
 30
0.0
  0
VERTEX
  8
0
 10
126.826115628
 20
326.880349931
 30
0.0
  0
VERTEX
  8
0
 10
126.876115628
 20
326.880349931
 30
0.0
  0
VERTEX
  8
0
 10
126.926115628
 20
326.880349931
 30
0.0
  0
VERTEX
  8
0
 10
126.976115628
 20
326.880349931
 30
0.0
  0
VERTEX
  8
0
 10
127.026115628
 20
326.880349931
 30
0.0
  0
VERTEX
  8
0
 10
127.076115628
 20
326.880349931
 30
0.0
  0
VERTEX
  8
0
 10
127.126115628
 20
326.880349931
 30
0.0
  0
VERTEX
  8
0
 10
127.176115628
 20
326.880349931
 30
0.0
  0
VERTEX
  8
0
 10
127.226115628
 20
326.880349931
 30
0.0
  0
VERTEX
  8
0
 10
127.276115628
 20
326.880349931
 30
0.0
  0
VERTEX
  8
0
 10
127.326115628
 20
326.880349931
 30
0.0
  0
VERTEX
  8
0
 10
127.376115628
 20
326.880349931
 30
0.0
  0
VERTEX
  8
0
 10
127.426115628
 20
326.880349931
 30
0.0
  0
VERTEX
  8
0
 10
127.476115628
 20
326.880349931
 30
0.0
  0
VERTEX
  8
0
 10
127.526115628
 20
326.880349931
 30
0.0
  0
VERTEX
  8
0
 10
127.576115628
 20
326.880349931
 30
0.0
  0
VERTEX
  8
0
 10
127.626115628
 20
326.880349931
 30
0.0
  0
VERTEX
  8
0
 10
127.676115628
 20
326.880349931
 30
0.0
  0
VERTEX
  8
0
 10
127.726115628
 20
326.880349931
 30
0.0
  0
VERTEX
  8
0
 10
127.776115628
 20
326.880349931
 30
0.0
  0
VERTEX
  8
0
 10
127.826115628
 20
326.880349931
 30
0.0
  0
VERTEX
  8
0
 10
127.876115628
 20
326.880349931
 30
0.0
  0
VERTEX
  8
0
 10
127.926115628
 20
326.880349931
 30
0.0
  0
VERTEX
  8
0
 10
127.976115628
 20
326.880349931
 30
0.0
  0
VERTEX
  8
0
 10
128.026115628
 20
326.880349931
 30
0.0
  0
VERTEX
  8
0
 10
128.076115628
 20
326.880349931
 30
0.0
  0
VERTEX
  8
0
 10
128.126115628
 20
326.880349931
 30
0.0
  0
VERTEX
  8
0
 10
128.176115628
 20
326.880349931
 30
0.0
  0
VERTEX
  8
0
 10
128.226115628
 20
326.880349931
 30
0.0
  0
VERTEX
  8
0
 10
128.276115628
 20
326.880349931
 30
0.0
  0
VERTEX
  8
0
 10
128.326115628
 20
326.880349931
 30
0.0
  0
VERTEX
  8
0
 10
128.376115628
 20
326.880349931
 30
0.0
  0
VERTEX
  8
0
 10
128.426115628
 20
326.880349931
 30
0.0
  0
VERTEX
  8
0
 10
128.476115628
 20
326.880349931
 30
0.0
  0
VERTEX
  8
0
 10
128.526115628
 20
326.880349931
 30
0.0
  0
VERTEX
  8
0
 10
128.576115628
 20
326.880349931
 30
0.0
  0
VERTEX
  8
0
 10
128.626115628
 20
326.880349931
 30
0.0
  0
VERTEX
  8
0
 10
128.676115628
 20
326.880349931
 30
0.0
  0
VERTEX
  8
0
 10
128.726115628
 20
326.880349931
 30
0.0
  0
VERTEX
  8
0
 10
128.776115628
 20
326.880349931
 30
0.0
  0
VERTEX
  8
0
 10
128.826115628
 20
326.880349931
 30
0.0
  0
VERTEX
  8
0
 10
128.876115628
 20
326.880349931
 30
0.0
  0
VERTEX
  8
0
 10
128.926115628
 20
326.880349931
 30
0.0
  0
VERTEX
  8
0
 10
128.976115628
 20
326.880349931
 30
0.0
  0
VERTEX
  8
0
 10
129.026115628
 20
326.880349931
 30
0.0
  0
VERTEX
  8
0
 10
129.076115628
 20
326.880349931
 30
0.0
  0
VERTEX
  8
0
 10
129.126115628
 20
326.880349931
 30
0.0
  0
VERTEX
  8
0
 10
129.176115628
 20
326.880349931
 30
0.0
  0
VERTEX
  8
0
 10
129.226115628
 20
326.880349931
 30
0.0
  0
VERTEX
  8
0
 10
129.276115628
 20
326.880349931
 30
0.0
  0
VERTEX
  8
0
 10
129.326115628
 20
326.880349931
 30
0.0
  0
VERTEX
  8
0
 10
129.376115628
 20
326.880349931
 30
0.0
  0
VERTEX
  8
0
 10
129.426115628
 20
326.880349931
 30
0.0
  0
VERTEX
  8
0
 10
129.476115628
 20
326.880349931
 30
0.0
  0
VERTEX
  8
0
 10
129.526115628
 20
326.880349931
 30
0.0
  0
VERTEX
  8
0
 10
129.576115628
 20
326.880349931
 30
0.0
  0
VERTEX
  8
0
 10
129.626115628
 20
326.880349931
 30
0.0
  0
VERTEX
  8
0
 10
129.676115628
 20
326.880349931
 30
0.0
  0
VERTEX
  8
0
 10
129.726115628
 20
326.880349931
 30
0.0
  0
VERTEX
  8
0
 10
129.776115628
 20
326.880349931
 30
0.0
  0
VERTEX
  8
0
 10
129.826115628
 20
326.880349931
 30
0.0
  0
VERTEX
  8
0
 10
129.876115628
 20
326.880349931
 30
0.0
  0
VERTEX
  8
0
 10
129.926115628
 20
326.880349931
 30
0.0
  0
VERTEX
  8
0
 10
129.976115628
 20
326.880349931
 30
0.0
  0
VERTEX
  8
0
 10
130.026115628
 20
326.880349931
 30
0.0
  0
VERTEX
  8
0
 10
130.076115628
 20
326.880349931
 30
0.0
  0
VERTEX
  8
0
 10
130.126115628
 20
326.880349931
 30
0.0
  0
VERTEX
  8
0
 10
130.176115628
 20
326.880349931
 30
0.0
  0
VERTEX
  8
0
 10
130.226115628
 20
326.880349931
 30
0.0
  0
VERTEX
  8
0
 10
130.276115628
 20
326.880349931
 30
0.0
  0
VERTEX
  8
0
 10
130.326115628
 20
326.880349931
 30
0.0
  0
VERTEX
  8
0
 10
130.376115628
 20
326.880349931
 30
0.0
  0
VERTEX
  8
0
 10
130.426115628
 20
326.880349931
 30
0.0
  0
VERTEX
  8
0
 10
130.476115628
 20
326.880349931
 30
0.0
  0
VERTEX
  8
0
 10
130.526115628
 20
326.880349931
 30
0.0
  0
VERTEX
  8
0
 10
130.576115628
 20
326.880349931
 30
0.0
  0
VERTEX
  8
0
 10
130.626115628
 20
326.880349931
 30
0.0
  0
VERTEX
  8
0
 10
130.676115628
 20
326.880349931
 30
0.0
  0
VERTEX
  8
0
 10
130.726115628
 20
326.880349931
 30
0.0
  0
VERTEX
  8
0
 10
130.776115628
 20
326.880349931
 30
0.0
  0
VERTEX
  8
0
 10
130.826115628
 20
326.880349931
 30
0.0
  0
VERTEX
  8
0
 10
130.876115628
 20
326.880349931
 30
0.0
  0
VERTEX
  8
0
 10
130.926115628
 20
326.880349931
 30
0.0
  0
VERTEX
  8
0
 10
130.976115628
 20
326.880349931
 30
0.0
  0
VERTEX
  8
0
 10
131.026115628
 20
326.880349931
 30
0.0
  0
VERTEX
  8
0
 10
131.076115628
 20
326.880349931
 30
0.0
  0
VERTEX
  8
0
 10
131.126115628
 20
326.880349931
 30
0.0
  0
VERTEX
  8
0
 10
131.176115628
 20
326.880349931
 30
0.0
  0
VERTEX
  8
0
 10
131.226115628
 20
326.880349931
 30
0.0
  0
VERTEX
  8
0
 10
131.276115628
 20
326.880349931
 30
0.0
  0
VERTEX
  8
0
 10
131.326115628
 20
326.880349931
 30
0.0
  0
VERTEX
  8
0
 10
131.376115628
 20
326.880349931
 30
0.0
  0
VERTEX
  8
0
 10
131.426115628
 20
326.880349931
 30
0.0
  0
VERTEX
  8
0
 10
131.476115628
 20
326.880349931
 30
0.0
  0
VERTEX
  8
0
 10
131.526115628
 20
326.880349931
 30
0.0
  0
VERTEX
  8
0
 10
131.576115628
 20
326.880349931
 30
0.0
  0
VERTEX
  8
0
 10
131.626115628
 20
326.880349931
 30
0.0
  0
VERTEX
  8
0
 10
131.676115628
 20
326.880349931
 30
0.0
  0
VERTEX
  8
0
 10
131.726115628
 20
326.880349931
 30
0.0
  0
VERTEX
  8
0
 10
131.776115628
 20
326.880349931
 30
0.0
  0
VERTEX
  8
0
 10
131.826115628
 20
326.880349931
 30
0.0
  0
VERTEX
  8
0
 10
131.876115628
 20
326.880349931
 30
0.0
  0
VERTEX
  8
0
 10
131.926115628
 20
326.880349931
 30
0.0
  0
VERTEX
  8
0
 10
131.976115628
 20
326.880349931
 30
0.0
  0
VERTEX
  8
0
 10
132.026115628
 20
326.880349931
 30
0.0
  0
VERTEX
  8
0
 10
132.076115628
 20
326.880349931
 30
0.0
  0
VERTEX
  8
0
 10
132.126115628
 20
326.880349931
 30
0.0
  0
VERTEX
  8
0
 10
132.176115628
 20
326.880349931
 30
0.0
  0
VERTEX
  8
0
 10
132.226115628
 20
326.880349931
 30
0.0
  0
VERTEX
  8
0
 10
132.276115628
 20
326.880349931
 30
0.0
  0
VERTEX
  8
0
 10
132.326115628
 20
326.880349931
 30
0.0
  0
VERTEX
  8
0
 10
132.376115628
 20
326.880349931
 30
0.0
  0
VERTEX
  8
0
 10
132.426115628
 20
326.880349931
 30
0.0
  0
VERTEX
  8
0
 10
132.476115628
 20
326.880349931
 30
0.0
  0
VERTEX
  8
0
 10
132.526115628
 20
326.880349931
 30
0.0
  0
VERTEX
  8
0
 10
132.576115628
 20
326.880349931
 30
0.0
  0
VERTEX
  8
0
 10
132.626115628
 20
326.880349931
 30
0.0
  0
VERTEX
  8
0
 10
132.676115628
 20
326.880349931
 30
0.0
  0
VERTEX
  8
0
 10
132.726115628
 20
326.880349931
 30
0.0
  0
VERTEX
  8
0
 10
132.776115628
 20
326.880349931
 30
0.0
  0
VERTEX
  8
0
 10
132.826115628
 20
326.880349931
 30
0.0
  0
VERTEX
  8
0
 10
132.876115628
 20
326.880349931
 30
0.0
  0
VERTEX
  8
0
 10
132.926115628
 20
326.880349931
 30
0.0
  0
VERTEX
  8
0
 10
132.976115628
 20
326.880349931
 30
0.0
  0
VERTEX
  8
0
 10
133.026115628
 20
326.880349931
 30
0.0
  0
VERTEX
  8
0
 10
133.076115628
 20
326.880349931
 30
0.0
  0
VERTEX
  8
0
 10
133.126115628
 20
326.880349931
 30
0.0
  0
VERTEX
  8
0
 10
133.176115628
 20
326.880349931
 30
0.0
  0
VERTEX
  8
0
 10
133.226115628
 20
326.880349931
 30
0.0
  0
VERTEX
  8
0
 10
133.276115628
 20
326.880349931
 30
0.0
  0
VERTEX
  8
0
 10
133.326115628
 20
326.880349931
 30
0.0
  0
VERTEX
  8
0
 10
133.376115628
 20
326.880349931
 30
0.0
  0
VERTEX
  8
0
 10
133.426115628
 20
326.880349931
 30
0.0
  0
VERTEX
  8
0
 10
133.476115628
 20
326.880349931
 30
0.0
  0
VERTEX
  8
0
 10
133.526115628
 20
326.880349931
 30
0.0
  0
VERTEX
  8
0
 10
133.576115628
 20
326.880349931
 30
0.0
  0
VERTEX
  8
0
 10
133.626115628
 20
326.880349931
 30
0.0
  0
VERTEX
  8
0
 10
133.676115628
 20
326.880349931
 30
0.0
  0
VERTEX
  8
0
 10
133.726115628
 20
326.880349931
 30
0.0
  0
VERTEX
  8
0
 10
133.776115628
 20
326.880349931
 30
0.0
  0
VERTEX
  8
0
 10
133.826115628
 20
326.880349931
 30
0.0
  0
VERTEX
  8
0
 10
133.876115628
 20
326.880349931
 30
0.0
  0
VERTEX
  8
0
 10
133.926115628
 20
326.880349931
 30
0.0
  0
VERTEX
  8
0
 10
133.976115628
 20
326.880349931
 30
0.0
  0
VERTEX
  8
0
 10
134.026115628
 20
326.880349931
 30
0.0
  0
VERTEX
  8
0
 10
134.076115628
 20
326.880349931
 30
0.0
  0
VERTEX
  8
0
 10
134.126115628
 20
326.880349931
 30
0.0
  0
VERTEX
  8
0
 10
134.176115628
 20
326.880349931
 30
0.0
  0
VERTEX
  8
0
 10
134.226115628
 20
326.880349931
 30
0.0
  0
VERTEX
  8
0
 10
134.276115628
 20
326.880349931
 30
0.0
  0
VERTEX
  8
0
 10
134.326115628
 20
326.880349931
 30
0.0
  0
VERTEX
  8
0
 10
134.376115628
 20
326.880349931
 30
0.0
  0
VERTEX
  8
0
 10
134.426115628
 20
326.880349931
 30
0.0
  0
VERTEX
  8
0
 10
134.476115628
 20
326.880349931
 30
0.0
  0
VERTEX
  8
0
 10
134.526115628
 20
326.880349931
 30
0.0
  0
VERTEX
  8
0
 10
134.576115628
 20
326.880349931
 30
0.0
  0
VERTEX
  8
0
 10
134.626115628
 20
326.880349931
 30
0.0
  0
VERTEX
  8
0
 10
134.676115628
 20
326.880349931
 30
0.0
  0
VERTEX
  8
0
 10
134.726115628
 20
326.880349931
 30
0.0
  0
VERTEX
  8
0
 10
134.776115628
 20
326.880349931
 30
0.0
  0
VERTEX
  8
0
 10
134.826115628
 20
326.880349931
 30
0.0
  0
VERTEX
  8
0
 10
134.876115628
 20
326.880349931
 30
0.0
  0
VERTEX
  8
0
 10
134.926115628
 20
326.880349931
 30
0.0
  0
VERTEX
  8
0
 10
134.976115628
 20
326.880349931
 30
0.0
  0
VERTEX
  8
0
 10
135.026115628
 20
326.880349931
 30
0.0
  0
VERTEX
  8
0
 10
135.076115628
 20
326.880349931
 30
0.0
  0
VERTEX
  8
0
 10
135.126115628
 20
326.880349931
 30
0.0
  0
VERTEX
  8
0
 10
135.176115628
 20
326.880349931
 30
0.0
  0
VERTEX
  8
0
 10
135.226115628
 20
326.880349931
 30
0.0
  0
VERTEX
  8
0
 10
135.276115628
 20
326.880349931
 30
0.0
  0
VERTEX
  8
0
 10
135.326115628
 20
326.880349931
 30
0.0
  0
VERTEX
  8
0
 10
135.376115628
 20
326.880349931
 30
0.0
  0
VERTEX
  8
0
 10
135.426115628
 20
326.880349931
 30
0.0
  0
VERTEX
  8
0
 10
135.476115628
 20
326.880349931
 30
0.0
  0
VERTEX
  8
0
 10
135.526115628
 20
326.880349931
 30
0.0
  0
VERTEX
  8
0
 10
135.576115628
 20
326.880349931
 30
0.0
  0
VERTEX
  8
0
 10
135.626115628
 20
326.880349931
 30
0.0
  0
VERTEX
  8
0
 10
135.676115628
 20
326.880349931
 30
0.0
  0
VERTEX
  8
0
 10
135.726115628
 20
326.880349931
 30
0.0
  0
VERTEX
  8
0
 10
135.776115628
 20
326.880349931
 30
0.0
  0
VERTEX
  8
0
 10
135.826115628
 20
326.880349931
 30
0.0
  0
VERTEX
  8
0
 10
135.876115628
 20
326.880349931
 30
0.0
  0
VERTEX
  8
0
 10
135.926115628
 20
326.880349931
 30
0.0
  0
VERTEX
  8
0
 10
135.976115628
 20
326.880349931
 30
0.0
  0
VERTEX
  8
0
 10
136.026115628
 20
326.880349931
 30
0.0
  0
VERTEX
  8
0
 10
136.076115628
 20
326.880349931
 30
0.0
  0
VERTEX
  8
0
 10
136.126115628
 20
326.880349931
 30
0.0
  0
VERTEX
  8
0
 10
136.176115628
 20
326.880349931
 30
0.0
  0
VERTEX
  8
0
 10
136.226115628
 20
326.880349931
 30
0.0
  0
VERTEX
  8
0
 10
136.276115628
 20
326.880349931
 30
0.0
  0
VERTEX
  8
0
 10
136.326115628
 20
326.880349931
 30
0.0
  0
VERTEX
  8
0
 10
136.376115628
 20
326.880349931
 30
0.0
  0
VERTEX
  8
0
 10
136.426115628
 20
326.880349931
 30
0.0
  0
VERTEX
  8
0
 10
136.476115628
 20
326.880349931
 30
0.0
  0
VERTEX
  8
0
 10
136.526115628
 20
326.880349931
 30
0.0
  0
VERTEX
  8
0
 10
136.576115628
 20
326.880349931
 30
0.0
  0
VERTEX
  8
0
 10
136.626115628
 20
326.880349931
 30
0.0
  0
VERTEX
  8
0
 10
136.676115628
 20
326.880349931
 30
0.0
  0
VERTEX
  8
0
 10
136.726115628
 20
326.880349931
 30
0.0
  0
VERTEX
  8
0
 10
136.776115628
 20
326.880349931
 30
0.0
  0
VERTEX
  8
0
 10
136.826115628
 20
326.880349931
 30
0.0
  0
VERTEX
  8
0
 10
136.876115628
 20
326.880349931
 30
0.0
  0
VERTEX
  8
0
 10
136.926115628
 20
326.880349931
 30
0.0
  0
VERTEX
  8
0
 10
136.976115628
 20
326.880349931
 30
0.0
  0
VERTEX
  8
0
 10
137.026115628
 20
326.880349931
 30
0.0
  0
VERTEX
  8
0
 10
137.076115628
 20
326.880349931
 30
0.0
  0
VERTEX
  8
0
 10
137.126115628
 20
326.880349931
 30
0.0
  0
VERTEX
  8
0
 10
137.176115628
 20
326.880349931
 30
0.0
  0
VERTEX
  8
0
 10
137.226115628
 20
326.880349931
 30
0.0
  0
VERTEX
  8
0
 10
137.276115628
 20
326.880349931
 30
0.0
  0
VERTEX
  8
0
 10
137.326115628
 20
326.880349931
 30
0.0
  0
VERTEX
  8
0
 10
137.376115628
 20
326.880349931
 30
0.0
  0
VERTEX
  8
0
 10
137.426115628
 20
326.880349931
 30
0.0
  0
VERTEX
  8
0
 10
137.476115628
 20
326.880349931
 30
0.0
  0
VERTEX
  8
0
 10
137.526115628
 20
326.880349931
 30
0.0
  0
VERTEX
  8
0
 10
137.576115628
 20
326.880349931
 30
0.0
  0
VERTEX
  8
0
 10
137.626115628
 20
326.880349931
 30
0.0
  0
VERTEX
  8
0
 10
137.676115628
 20
326.880349931
 30
0.0
  0
VERTEX
  8
0
 10
137.726115628
 20
326.880349931
 30
0.0
  0
VERTEX
  8
0
 10
137.776115628
 20
326.880349931
 30
0.0
  0
VERTEX
  8
0
 10
137.826115628
 20
326.880349931
 30
0.0
  0
VERTEX
  8
0
 10
137.876115628
 20
326.880349931
 30
0.0
  0
VERTEX
  8
0
 10
137.926115628
 20
326.880349931
 30
0.0
  0
VERTEX
  8
0
 10
137.976115628
 20
326.880349931
 30
0.0
  0
VERTEX
  8
0
 10
138.026115628
 20
326.880349931
 30
0.0
  0
VERTEX
  8
0
 10
138.076115628
 20
326.880349931
 30
0.0
  0
VERTEX
  8
0
 10
138.126115628
 20
326.880349931
 30
0.0
  0
VERTEX
  8
0
 10
138.176115628
 20
326.880349931
 30
0.0
  0
VERTEX
  8
0
 10
138.226115628
 20
326.880349931
 30
0.0
  0
VERTEX
  8
0
 10
138.276115628
 20
326.880349931
 30
0.0
  0
VERTEX
  8
0
 10
138.326115628
 20
326.880349931
 30
0.0
  0
VERTEX
  8
0
 10
138.376115628
 20
326.880349931
 30
0.0
  0
VERTEX
  8
0
 10
138.426115628
 20
326.880349931
 30
0.0
  0
VERTEX
  8
0
 10
138.476115628
 20
326.880349931
 30
0.0
  0
VERTEX
  8
0
 10
138.526115628
 20
326.880349931
 30
0.0
  0
VERTEX
  8
0
 10
138.576115628
 20
326.880349931
 30
0.0
  0
VERTEX
  8
0
 10
138.626115628
 20
326.880349931
 30
0.0
  0
VERTEX
  8
0
 10
138.676115628
 20
326.880349931
 30
0.0
  0
VERTEX
  8
0
 10
138.726115628
 20
326.880349931
 30
0.0
  0
VERTEX
  8
0
 10
138.776115628
 20
326.880349931
 30
0.0
  0
VERTEX
  8
0
 10
138.826115628
 20
326.880349931
 30
0.0
  0
VERTEX
  8
0
 10
138.876115628
 20
326.880349931
 30
0.0
  0
VERTEX
  8
0
 10
138.926115628
 20
326.880349931
 30
0.0
  0
VERTEX
  8
0
 10
138.976115628
 20
326.880349931
 30
0.0
  0
VERTEX
  8
0
 10
139.026115628
 20
326.880349931
 30
0.0
  0
VERTEX
  8
0
 10
139.076115628
 20
326.880349931
 30
0.0
  0
VERTEX
  8
0
 10
139.126115628
 20
326.880349931
 30
0.0
  0
VERTEX
  8
0
 10
139.176115628
 20
326.880349931
 30
0.0
  0
VERTEX
  8
0
 10
139.226115628
 20
326.880349931
 30
0.0
  0
VERTEX
  8
0
 10
139.276115628
 20
326.880349931
 30
0.0
  0
VERTEX
  8
0
 10
139.326115628
 20
326.880349931
 30
0.0
  0
VERTEX
  8
0
 10
139.376115628
 20
326.880349931
 30
0.0
  0
VERTEX
  8
0
 10
139.426115628
 20
326.880349931
 30
0.0
  0
VERTEX
  8
0
 10
139.476115628
 20
326.880349931
 30
0.0
  0
VERTEX
  8
0
 10
139.526115628
 20
326.880349931
 30
0.0
  0
VERTEX
  8
0
 10
139.576115628
 20
326.880349931
 30
0.0
  0
VERTEX
  8
0
 10
139.626115628
 20
326.880349931
 30
0.0
  0
VERTEX
  8
0
 10
139.676115628
 20
326.880349931
 30
0.0
  0
VERTEX
  8
0
 10
139.726115628
 20
326.880349931
 30
0.0
  0
VERTEX
  8
0
 10
139.776115628
 20
326.880349931
 30
0.0
  0
VERTEX
  8
0
 10
139.826115628
 20
326.880349931
 30
0.0
  0
VERTEX
  8
0
 10
139.876115628
 20
326.880349931
 30
0.0
  0
VERTEX
  8
0
 10
139.926115628
 20
326.880349931
 30
0.0
  0
VERTEX
  8
0
 10
139.976115628
 20
326.880349931
 30
0.0
  0
VERTEX
  8
0
 10
140.026115628
 20
326.880349931
 30
0.0
  0
VERTEX
  8
0
 10
140.076115628
 20
326.880349931
 30
0.0
  0
VERTEX
  8
0
 10
140.126115628
 20
326.880349931
 30
0.0
  0
VERTEX
  8
0
 10
140.176115628
 20
326.880349931
 30
0.0
  0
VERTEX
  8
0
 10
140.226115628
 20
326.880349931
 30
0.0
  0
VERTEX
  8
0
 10
140.276115628
 20
326.880349931
 30
0.0
  0
VERTEX
  8
0
 10
140.326115628
 20
326.880349931
 30
0.0
  0
VERTEX
  8
0
 10
140.376115628
 20
326.880349931
 30
0.0
  0
VERTEX
  8
0
 10
140.426115628
 20
326.880349931
 30
0.0
  0
VERTEX
  8
0
 10
140.476115628
 20
326.880349931
 30
0.0
  0
VERTEX
  8
0
 10
140.526115628
 20
326.880349931
 30
0.0
  0
VERTEX
  8
0
 10
140.576115628
 20
326.880349931
 30
0.0
  0
VERTEX
  8
0
 10
140.626115628
 20
326.880349931
 30
0.0
  0
VERTEX
  8
0
 10
140.676115628
 20
326.880349931
 30
0.0
  0
VERTEX
  8
0
 10
140.726115628
 20
326.880349931
 30
0.0
  0
VERTEX
  8
0
 10
140.776115628
 20
326.880349931
 30
0.0
  0
VERTEX
  8
0
 10
140.826115628
 20
326.880349931
 30
0.0
  0
VERTEX
  8
0
 10
140.876115628
 20
326.880349931
 30
0.0
  0
VERTEX
  8
0
 10
140.926115628
 20
326.880349931
 30
0.0
  0
VERTEX
  8
0
 10
140.976115628
 20
326.880349931
 30
0.0
  0
VERTEX
  8
0
 10
141.026115628
 20
326.880349931
 30
0.0
  0
VERTEX
  8
0
 10
141.076115628
 20
326.880349931
 30
0.0
  0
VERTEX
  8
0
 10
141.126115628
 20
326.880349931
 30
0.0
  0
VERTEX
  8
0
 10
141.176115628
 20
326.880349931
 30
0.0
  0
VERTEX
  8
0
 10
141.226115628
 20
326.880349931
 30
0.0
  0
VERTEX
  8
0
 10
141.276115628
 20
326.880349931
 30
0.0
  0
VERTEX
  8
0
 10
141.326115628
 20
326.880349931
 30
0.0
  0
VERTEX
  8
0
 10
141.376115628
 20
326.880349931
 30
0.0
  0
VERTEX
  8
0
 10
141.426115628
 20
326.880349931
 30
0.0
  0
VERTEX
  8
0
 10
141.476115628
 20
326.880349931
 30
0.0
  0
VERTEX
  8
0
 10
141.526115628
 20
326.880349931
 30
0.0
  0
VERTEX
  8
0
 10
141.572049786
 20
326.880349931
 30
0.0
  0
SEQEND
  8
0
  0
POLYLINE
  8
0
 62
0
 70
0
 66
1
 10
0.0
 20
0.0
 30
0.0
  0
VERTEX
  8
0
 10
141.572049786
 20
326.880349931
 30
0.0
  0
VERTEX
  8
0
 10
141.572049786
 20
326.930349931
 30
0.0
  0
VERTEX
  8
0
 10
141.572049786
 20
326.980349931
 30
0.0
  0
VERTEX
  8
0
 10
141.572049786
 20
327.030349931
 30
0.0
  0
VERTEX
  8
0
 10
141.572049786
 20
327.080349931
 30
0.0
  0
VERTEX
  8
0
 10
141.572049786
 20
327.130349931
 30
0.0
  0
VERTEX
  8
0
 10
141.572049786
 20
327.180349931
 30
0.0
  0
VERTEX
  8
0
 10
141.572049786
 20
327.230349931
 30
0.0
  0
VERTEX
  8
0
 10
141.572049786
 20
327.280349931
 30
0.0
  0
VERTEX
  8
0
 10
141.572049786
 20
327.330349931
 30
0.0
  0
VERTEX
  8
0
 10
141.572049786
 20
327.380349931
 30
0.0
  0
VERTEX
  8
0
 10
141.572049786
 20
327.430349931
 30
0.0
  0
VERTEX
  8
0
 10
141.572049786
 20
327.480349931
 30
0.0
  0
VERTEX
  8
0
 10
141.572049786
 20
327.530349931
 30
0.0
  0
VERTEX
  8
0
 10
141.572049786
 20
327.580349931
 30
0.0
  0
VERTEX
  8
0
 10
141.572049786
 20
327.630349931
 30
0.0
  0
VERTEX
  8
0
 10
141.572049786
 20
327.680349931
 30
0.0
  0
VERTEX
  8
0
 10
141.572049786
 20
327.730349931
 30
0.0
  0
VERTEX
  8
0
 10
141.572049786
 20
327.780349931
 30
0.0
  0
VERTEX
  8
0
 10
141.572049786
 20
327.830349931
 30
0.0
  0
VERTEX
  8
0
 10
141.572049786
 20
327.880349931
 30
0.0
  0
VERTEX
  8
0
 10
141.572049786
 20
327.930349931
 30
0.0
  0
VERTEX
  8
0
 10
141.572049786
 20
327.980349931
 30
0.0
  0
VERTEX
  8
0
 10
141.572049786
 20
328.030349931
 30
0.0
  0
VERTEX
  8
0
 10
141.572049786
 20
328.080349931
 30
0.0
  0
VERTEX
  8
0
 10
141.572049786
 20
328.130349931
 30
0.0
  0
VERTEX
  8
0
 10
141.572049786
 20
328.180349931
 30
0.0
  0
VERTEX
  8
0
 10
141.572049786
 20
328.230349931
 30
0.0
  0
VERTEX
  8
0
 10
141.572049786
 20
328.280349931
 30
0.0
  0
VERTEX
  8
0
 10
141.572049786
 20
328.330349931
 30
0.0
  0
VERTEX
  8
0
 10
141.572049786
 20
328.380349931
 30
0.0
  0
VERTEX
  8
0
 10
141.572049786
 20
328.430349931
 30
0.0
  0
VERTEX
  8
0
 10
141.572049786
 20
328.480349931
 30
0.0
  0
VERTEX
  8
0
 10
141.572049786
 20
328.530349931
 30
0.0
  0
VERTEX
  8
0
 10
141.572049786
 20
328.580349931
 30
0.0
  0
VERTEX
  8
0
 10
141.572049786
 20
328.630349931
 30
0.0
  0
VERTEX
  8
0
 10
141.572049786
 20
328.680349931
 30
0.0
  0
VERTEX
  8
0
 10
141.572049786
 20
328.730349931
 30
0.0
  0
VERTEX
  8
0
 10
141.572049786
 20
328.780349931
 30
0.0
  0
VERTEX
  8
0
 10
141.572049786
 20
328.830349931
 30
0.0
  0
VERTEX
  8
0
 10
141.572049786
 20
328.880349931
 30
0.0
  0
VERTEX
  8
0
 10
141.572049786
 20
328.930349931
 30
0.0
  0
VERTEX
  8
0
 10
141.572049786
 20
328.980349931
 30
0.0
  0
VERTEX
  8
0
 10
141.572049786
 20
329.030349931
 30
0.0
  0
VERTEX
  8
0
 10
141.572049786
 20
329.080349931
 30
0.0
  0
VERTEX
  8
0
 10
141.572049786
 20
329.130349931
 30
0.0
  0
VERTEX
  8
0
 10
141.572049786
 20
329.180349931
 30
0.0
  0
VERTEX
  8
0
 10
141.572049786
 20
329.230349931
 30
0.0
  0
VERTEX
  8
0
 10
141.572049786
 20
329.280349931
 30
0.0
  0
VERTEX
  8
0
 10
141.572049786
 20
329.330349931
 30
0.0
  0
VERTEX
  8
0
 10
141.572049786
 20
329.380349931
 30
0.0
  0
VERTEX
  8
0
 10
141.572049786
 20
329.430349931
 30
0.0
  0
VERTEX
  8
0
 10
141.572049786
 20
329.480349931
 30
0.0
  0
VERTEX
  8
0
 10
141.572049786
 20
329.530349931
 30
0.0
  0
VERTEX
  8
0
 10
141.572049786
 20
329.580349931
 30
0.0
  0
VERTEX
  8
0
 10
141.572049786
 20
329.630349931
 30
0.0
  0
VERTEX
  8
0
 10
141.572049786
 20
329.680349931
 30
0.0
  0
VERTEX
  8
0
 10
141.572049786
 20
329.730349931
 30
0.0
  0
VERTEX
  8
0
 10
141.572049786
 20
329.780349931
 30
0.0
  0
VERTEX
  8
0
 10
141.572049786
 20
329.830349931
 30
0.0
  0
VERTEX
  8
0
 10
141.572049786
 20
329.880349931
 30
0.0
  0
VERTEX
  8
0
 10
141.572049786
 20
329.930349931
 30
0.0
  0
VERTEX
  8
0
 10
141.572049786
 20
329.980349931
 30
0.0
  0
VERTEX
  8
0
 10
141.572049786
 20
330.030349931
 30
0.0
  0
VERTEX
  8
0
 10
141.572049786
 20
330.080349931
 30
0.0
  0
VERTEX
  8
0
 10
141.572049786
 20
330.130349931
 30
0.0
  0
VERTEX
  8
0
 10
141.572049786
 20
330.180349931
 30
0.0
  0
VERTEX
  8
0
 10
141.572049786
 20
330.230349931
 30
0.0
  0
VERTEX
  8
0
 10
141.572049786
 20
330.280349931
 30
0.0
  0
VERTEX
  8
0
 10
141.572049786
 20
330.330349931
 30
0.0
  0
VERTEX
  8
0
 10
141.572049786
 20
330.380349931
 30
0.0
  0
VERTEX
  8
0
 10
141.572049786
 20
330.430349931
 30
0.0
  0
VERTEX
  8
0
 10
141.572049786
 20
330.480349931
 30
0.0
  0
VERTEX
  8
0
 10
141.572049786
 20
330.530349931
 30
0.0
  0
VERTEX
  8
0
 10
141.572049786
 20
330.580349931
 30
0.0
  0
VERTEX
  8
0
 10
141.572049786
 20
330.630349931
 30
0.0
  0
VERTEX
  8
0
 10
141.572049786
 20
330.680349931
 30
0.0
  0
VERTEX
  8
0
 10
141.572049786
 20
330.730349931
 30
0.0
  0
VERTEX
  8
0
 10
141.572049786
 20
330.780349931
 30
0.0
  0
VERTEX
  8
0
 10
141.572049786
 20
330.830349931
 30
0.0
  0
VERTEX
  8
0
 10
141.572049786
 20
330.880349931
 30
0.0
  0
VERTEX
  8
0
 10
141.572049786
 20
330.930349931
 30
0.0
  0
VERTEX
  8
0
 10
141.572049786
 20
330.980349931
 30
0.0
  0
VERTEX
  8
0
 10
141.572049786
 20
331.030349931
 30
0.0
  0
VERTEX
  8
0
 10
141.572049786
 20
331.080349931
 30
0.0
  0
VERTEX
  8
0
 10
141.572049786
 20
331.130349931
 30
0.0
  0
VERTEX
  8
0
 10
141.572049786
 20
331.180349931
 30
0.0
  0
VERTEX
  8
0
 10
141.572049786
 20
331.230349931
 30
0.0
  0
VERTEX
  8
0
 10
141.572049786
 20
331.280349931
 30
0.0
  0
VERTEX
  8
0
 10
141.572049786
 20
331.330349931
 30
0.0
  0
VERTEX
  8
0
 10
141.572049786
 20
331.380349931
 30
0.0
  0
VERTEX
  8
0
 10
141.572049786
 20
331.430349931
 30
0.0
  0
VERTEX
  8
0
 10
141.572049786
 20
331.480349931
 30
0.0
  0
VERTEX
  8
0
 10
141.572049786
 20
331.530349931
 30
0.0
  0
VERTEX
  8
0
 10
141.572049786
 20
331.580349931
 30
0.0
  0
VERTEX
  8
0
 10
141.572049786
 20
331.630349931
 30
0.0
  0
VERTEX
  8
0
 10
141.572049786
 20
331.680349931
 30
0.0
  0
VERTEX
  8
0
 10
141.572049786
 20
331.730349931
 30
0.0
  0
VERTEX
  8
0
 10
141.572049786
 20
331.780349931
 30
0.0
  0
VERTEX
  8
0
 10
141.572049786
 20
331.830349931
 30
0.0
  0
VERTEX
  8
0
 10
141.572049786
 20
331.880349931
 30
0.0
  0
VERTEX
  8
0
 10
141.572049786
 20
331.930349931
 30
0.0
  0
VERTEX
  8
0
 10
141.572049786
 20
331.980349931
 30
0.0
  0
VERTEX
  8
0
 10
141.572049786
 20
332.030349931
 30
0.0
  0
VERTEX
  8
0
 10
141.572049786
 20
332.080349931
 30
0.0
  0
VERTEX
  8
0
 10
141.572049786
 20
332.130349931
 30
0.0
  0
VERTEX
  8
0
 10
141.572049786
 20
332.180349931
 30
0.0
  0
VERTEX
  8
0
 10
141.572049786
 20
332.230349931
 30
0.0
  0
VERTEX
  8
0
 10
141.572049786
 20
332.280349931
 30
0.0
  0
VERTEX
  8
0
 10
141.572049786
 20
332.330349931
 30
0.0
  0
VERTEX
  8
0
 10
141.572049786
 20
332.380349931
 30
0.0
  0
VERTEX
  8
0
 10
141.572049786
 20
332.430349931
 30
0.0
  0
VERTEX
  8
0
 10
141.572049786
 20
332.480349931
 30
0.0
  0
VERTEX
  8
0
 10
141.572049786
 20
332.530349931
 30
0.0
  0
VERTEX
  8
0
 10
141.572049786
 20
332.580349931
 30
0.0
  0
VERTEX
  8
0
 10
141.572049786
 20
332.630349931
 30
0.0
  0
VERTEX
  8
0
 10
141.572049786
 20
332.680349931
 30
0.0
  0
VERTEX
  8
0
 10
141.572049786
 20
332.730349931
 30
0.0
  0
VERTEX
  8
0
 10
141.572049786
 20
332.780349931
 30
0.0
  0
VERTEX
  8
0
 10
141.572049786
 20
332.830349931
 30
0.0
  0
VERTEX
  8
0
 10
141.572049786
 20
332.880349931
 30
0.0
  0
VERTEX
  8
0
 10
141.572049786
 20
332.930349931
 30
0.0
  0
VERTEX
  8
0
 10
141.572049786
 20
332.980349931
 30
0.0
  0
VERTEX
  8
0
 10
141.572049786
 20
333.030349931
 30
0.0
  0
VERTEX
  8
0
 10
141.572049786
 20
333.080349931
 30
0.0
  0
VERTEX
  8
0
 10
141.572049786
 20
333.130349931
 30
0.0
  0
VERTEX
  8
0
 10
141.572049786
 20
333.180349931
 30
0.0
  0
VERTEX
  8
0
 10
141.572049786
 20
333.230349931
 30
0.0
  0
VERTEX
  8
0
 10
141.572049786
 20
333.280349931
 30
0.0
  0
VERTEX
  8
0
 10
141.572049786
 20
333.330349931
 30
0.0
  0
VERTEX
  8
0
 10
141.572049786
 20
333.380349931
 30
0.0
  0
VERTEX
  8
0
 10
141.572049786
 20
333.430349931
 30
0.0
  0
VERTEX
  8
0
 10
141.572049786
 20
333.480349931
 30
0.0
  0
VERTEX
  8
0
 10
141.572049786
 20
333.530349931
 30
0.0
  0
VERTEX
  8
0
 10
141.572049786
 20
333.580349931
 30
0.0
  0
VERTEX
  8
0
 10
141.572049786
 20
333.630349931
 30
0.0
  0
VERTEX
  8
0
 10
141.572049786
 20
333.680349931
 30
0.0
  0
VERTEX
  8
0
 10
141.572049786
 20
333.730349931
 30
0.0
  0
VERTEX
  8
0
 10
141.572049786
 20
333.780349931
 30
0.0
  0
VERTEX
  8
0
 10
141.572049786
 20
333.830349931
 30
0.0
  0
VERTEX
  8
0
 10
141.572049786
 20
333.880349931
 30
0.0
  0
VERTEX
  8
0
 10
141.572049786
 20
333.930349931
 30
0.0
  0
VERTEX
  8
0
 10
141.572049786
 20
333.980349931
 30
0.0
  0
VERTEX
  8
0
 10
141.572049786
 20
334.030349931
 30
0.0
  0
VERTEX
  8
0
 10
141.572049786
 20
334.080349931
 30
0.0
  0
VERTEX
  8
0
 10
141.572049786
 20
334.130349931
 30
0.0
  0
VERTEX
  8
0
 10
141.572049786
 20
334.180349931
 30
0.0
  0
VERTEX
  8
0
 10
141.572049786
 20
334.230349931
 30
0.0
  0
VERTEX
  8
0
 10
141.572049786
 20
334.280349931
 30
0.0
  0
VERTEX
  8
0
 10
141.572049786
 20
334.330349931
 30
0.0
  0
VERTEX
  8
0
 10
141.572049786
 20
334.380349931
 30
0.0
  0
VERTEX
  8
0
 10
141.572049786
 20
334.430349931
 30
0.0
  0
VERTEX
  8
0
 10
141.572049786
 20
334.480349931
 30
0.0
  0
VERTEX
  8
0
 10
141.572049786
 20
334.530349931
 30
0.0
  0
VERTEX
  8
0
 10
141.572049786
 20
334.580349931
 30
0.0
  0
VERTEX
  8
0
 10
141.572049786
 20
334.630349931
 30
0.0
  0
VERTEX
  8
0
 10
141.572049786
 20
334.680349931
 30
0.0
  0
VERTEX
  8
0
 10
141.572049786
 20
334.730349931
 30
0.0
  0
VERTEX
  8
0
 10
141.572049786
 20
334.780349931
 30
0.0
  0
VERTEX
  8
0
 10
141.572049786
 20
334.830349931
 30
0.0
  0
VERTEX
  8
0
 10
141.572049786
 20
334.880349931
 30
0.0
  0
VERTEX
  8
0
 10
141.572049786
 20
334.930349931
 30
0.0
  0
VERTEX
  8
0
 10
141.572049786
 20
334.980349931
 30
0.0
  0
VERTEX
  8
0
 10
141.572049786
 20
335.030349931
 30
0.0
  0
VERTEX
  8
0
 10
141.572049786
 20
335.080349931
 30
0.0
  0
VERTEX
  8
0
 10
141.572049786
 20
335.130349931
 30
0.0
  0
VERTEX
  8
0
 10
141.572049786
 20
335.180349931
 30
0.0
  0
VERTEX
  8
0
 10
141.572049786
 20
335.230349931
 30
0.0
  0
VERTEX
  8
0
 10
141.572049786
 20
335.280349931
 30
0.0
  0
VERTEX
  8
0
 10
141.572049786
 20
335.330349931
 30
0.0
  0
VERTEX
  8
0
 10
141.572049786
 20
335.380349931
 30
0.0
  0
VERTEX
  8
0
 10
141.572049786
 20
335.430349931
 30
0.0
  0
VERTEX
  8
0
 10
141.572049786
 20
335.480349931
 30
0.0
  0
VERTEX
  8
0
 10
141.572049786
 20
335.530349931
 30
0.0
  0
VERTEX
  8
0
 10
141.572049786
 20
335.580349931
 30
0.0
  0
VERTEX
  8
0
 10
141.572049786
 20
335.630349931
 30
0.0
  0
VERTEX
  8
0
 10
141.572049786
 20
335.680349931
 30
0.0
  0
VERTEX
  8
0
 10
141.572049786
 20
335.730349931
 30
0.0
  0
VERTEX
  8
0
 10
141.572049786
 20
335.780349931
 30
0.0
  0
VERTEX
  8
0
 10
141.572049786
 20
335.830349931
 30
0.0
  0
VERTEX
  8
0
 10
141.572049786
 20
335.880349931
 30
0.0
  0
VERTEX
  8
0
 10
141.572049786
 20
335.930349931
 30
0.0
  0
VERTEX
  8
0
 10
141.572049786
 20
335.980349931
 30
0.0
  0
VERTEX
  8
0
 10
141.572049786
 20
336.030349931
 30
0.0
  0
VERTEX
  8
0
 10
141.572049786
 20
336.080349931
 30
0.0
  0
VERTEX
  8
0
 10
141.572049786
 20
336.130349931
 30
0.0
  0
VERTEX
  8
0
 10
141.572049786
 20
336.180349931
 30
0.0
  0
VERTEX
  8
0
 10
141.572049786
 20
336.230349931
 30
0.0
  0
VERTEX
  8
0
 10
141.572049786
 20
336.280349931
 30
0.0
  0
VERTEX
  8
0
 10
141.572049786
 20
336.330349931
 30
0.0
  0
VERTEX
  8
0
 10
141.572049786
 20
336.380349931
 30
0.0
  0
VERTEX
  8
0
 10
141.572049786
 20
336.430349931
 30
0.0
  0
VERTEX
  8
0
 10
141.572049786
 20
336.480349931
 30
0.0
  0
VERTEX
  8
0
 10
141.572049786
 20
336.530349931
 30
0.0
  0
VERTEX
  8
0
 10
141.572049786
 20
336.580349931
 30
0.0
  0
VERTEX
  8
0
 10
141.572049786
 20
336.630349931
 30
0.0
  0
VERTEX
  8
0
 10
141.572049786
 20
336.680349931
 30
0.0
  0
VERTEX
  8
0
 10
141.572049786
 20
336.730349931
 30
0.0
  0
VERTEX
  8
0
 10
141.572049786
 20
336.780349931
 30
0.0
  0
VERTEX
  8
0
 10
141.572049786
 20
336.830349931
 30
0.0
  0
VERTEX
  8
0
 10
141.572049786
 20
336.880349931
 30
0.0
  0
VERTEX
  8
0
 10
141.572049786
 20
336.930349931
 30
0.0
  0
VERTEX
  8
0
 10
141.572049786
 20
336.980349931
 30
0.0
  0
VERTEX
  8
0
 10
141.572049786
 20
337.030349931
 30
0.0
  0
VERTEX
  8
0
 10
141.572049786
 20
337.080349931
 30
0.0
  0
VERTEX
  8
0
 10
141.572049786
 20
337.130349931
 30
0.0
  0
VERTEX
  8
0
 10
141.572049786
 20
337.180349931
 30
0.0
  0
VERTEX
  8
0
 10
141.572049786
 20
337.230349931
 30
0.0
  0
VERTEX
  8
0
 10
141.572049786
 20
337.280349931
 30
0.0
  0
VERTEX
  8
0
 10
141.572049786
 20
337.330349931
 30
0.0
  0
VERTEX
  8
0
 10
141.572049786
 20
337.380349931
 30
0.0
  0
VERTEX
  8
0
 10
141.572049786
 20
337.430349931
 30
0.0
  0
VERTEX
  8
0
 10
141.572049786
 20
337.480349931
 30
0.0
  0
VERTEX
  8
0
 10
141.572049786
 20
337.530349931
 30
0.0
  0
VERTEX
  8
0
 10
141.572049786
 20
337.580349931
 30
0.0
  0
VERTEX
  8
0
 10
141.572049786
 20
337.630349931
 30
0.0
  0
VERTEX
  8
0
 10
141.572049786
 20
337.680349931
 30
0.0
  0
VERTEX
  8
0
 10
141.572049786
 20
337.730349931
 30
0.0
  0
VERTEX
  8
0
 10
141.572049786
 20
337.780349931
 30
0.0
  0
VERTEX
  8
0
 10
141.572049786
 20
337.830349931
 30
0.0
  0
VERTEX
  8
0
 10
141.572049786
 20
337.880349931
 30
0.0
  0
VERTEX
  8
0
 10
141.572049786
 20
337.930349931
 30
0.0
  0
VERTEX
  8
0
 10
141.572049786
 20
337.980349931
 30
0.0
  0
VERTEX
  8
0
 10
141.572049786
 20
338.030349931
 30
0.0
  0
VERTEX
  8
0
 10
141.572049786
 20
338.080349931
 30
0.0
  0
VERTEX
  8
0
 10
141.572049786
 20
338.130349931
 30
0.0
  0
VERTEX
  8
0
 10
141.572049786
 20
338.180349931
 30
0.0
  0
VERTEX
  8
0
 10
141.572049786
 20
338.230349931
 30
0.0
  0
VERTEX
  8
0
 10
141.572049786
 20
338.280349931
 30
0.0
  0
VERTEX
  8
0
 10
141.572049786
 20
338.330349931
 30
0.0
  0
VERTEX
  8
0
 10
141.572049786
 20
338.380349931
 30
0.0
  0
VERTEX
  8
0
 10
141.572049786
 20
338.430349931
 30
0.0
  0
VERTEX
  8
0
 10
141.572049786
 20
338.480349931
 30
0.0
  0
VERTEX
  8
0
 10
141.572049786
 20
338.530349931
 30
0.0
  0
VERTEX
  8
0
 10
141.572049786
 20
338.580349931
 30
0.0
  0
VERTEX
  8
0
 10
141.572049786
 20
338.630349931
 30
0.0
  0
VERTEX
  8
0
 10
141.572049786
 20
338.680349931
 30
0.0
  0
VERTEX
  8
0
 10
141.572049786
 20
338.730349931
 30
0.0
  0
VERTEX
  8
0
 10
141.572049786
 20
338.780349931
 30
0.0
  0
VERTEX
  8
0
 10
141.572049786
 20
338.830349931
 30
0.0
  0
VERTEX
  8
0
 10
141.572049786
 20
338.880349931
 30
0.0
  0
VERTEX
  8
0
 10
141.572049786
 20
338.930349931
 30
0.0
  0
VERTEX
  8
0
 10
141.572049786
 20
338.980349931
 30
0.0
  0
VERTEX
  8
0
 10
141.572049786
 20
339.030349931
 30
0.0
  0
VERTEX
  8
0
 10
141.572049786
 20
339.080349931
 30
0.0
  0
VERTEX
  8
0
 10
141.572049786
 20
339.130349931
 30
0.0
  0
VERTEX
  8
0
 10
141.572049786
 20
339.180349931
 30
0.0
  0
VERTEX
  8
0
 10
141.572049786
 20
339.230349931
 30
0.0
  0
VERTEX
  8
0
 10
141.572049786
 20
339.280349931
 30
0.0
  0
VERTEX
  8
0
 10
141.572049786
 20
339.330349931
 30
0.0
  0
VERTEX
  8
0
 10
141.572049786
 20
339.380349931
 30
0.0
  0
VERTEX
  8
0
 10
141.572049786
 20
339.430349931
 30
0.0
  0
VERTEX
  8
0
 10
141.572049786
 20
339.480349931
 30
0.0
  0
VERTEX
  8
0
 10
141.572049786
 20
339.530349931
 30
0.0
  0
VERTEX
  8
0
 10
141.572049786
 20
339.580349931
 30
0.0
  0
VERTEX
  8
0
 10
141.572049786
 20
339.630349931
 30
0.0
  0
VERTEX
  8
0
 10
141.572049786
 20
339.680349931
 30
0.0
  0
VERTEX
  8
0
 10
141.572049786
 20
339.730349931
 30
0.0
  0
VERTEX
  8
0
 10
141.572049786
 20
339.780349931
 30
0.0
  0
VERTEX
  8
0
 10
141.572049786
 20
339.830349931
 30
0.0
  0
VERTEX
  8
0
 10
141.572049786
 20
339.880349931
 30
0.0
  0
VERTEX
  8
0
 10
141.572049786
 20
339.930349931
 30
0.0
  0
VERTEX
  8
0
 10
141.572049786
 20
339.980349931
 30
0.0
  0
VERTEX
  8
0
 10
141.572049786
 20
340.030349931
 30
0.0
  0
VERTEX
  8
0
 10
141.572049786
 20
340.080349931
 30
0.0
  0
VERTEX
  8
0
 10
141.572049786
 20
340.130349931
 30
0.0
  0
VERTEX
  8
0
 10
141.572049786
 20
340.180349931
 30
0.0
  0
VERTEX
  8
0
 10
141.572049786
 20
340.230349931
 30
0.0
  0
VERTEX
  8
0
 10
141.572049786
 20
340.280349931
 30
0.0
  0
VERTEX
  8
0
 10
141.572049786
 20
340.330349931
 30
0.0
  0
VERTEX
  8
0
 10
141.572049786
 20
340.380349931
 30
0.0
  0
VERTEX
  8
0
 10
141.572049786
 20
340.430349931
 30
0.0
  0
VERTEX
  8
0
 10
141.572049786
 20
340.480349931
 30
0.0
  0
VERTEX
  8
0
 10
141.572049786
 20
340.530349931
 30
0.0
  0
VERTEX
  8
0
 10
141.572049786
 20
340.580349931
 30
0.0
  0
VERTEX
  8
0
 10
141.572049786
 20
340.630349931
 30
0.0
  0
VERTEX
  8
0
 10
141.572049786
 20
340.680349931
 30
0.0
  0
VERTEX
  8
0
 10
141.572049786
 20
340.730349931
 30
0.0
  0
VERTEX
  8
0
 10
141.572049786
 20
340.780349931
 30
0.0
  0
VERTEX
  8
0
 10
141.572049786
 20
340.830349931
 30
0.0
  0
VERTEX
  8
0
 10
141.572049786
 20
340.880349931
 30
0.0
  0
VERTEX
  8
0
 10
141.572049786
 20
340.930349931
 30
0.0
  0
VERTEX
  8
0
 10
141.572049786
 20
340.980349931
 30
0.0
  0
VERTEX
  8
0
 10
141.572049786
 20
341.030349931
 30
0.0
  0
VERTEX
  8
0
 10
141.572049786
 20
341.080349931
 30
0.0
  0
VERTEX
  8
0
 10
141.572049786
 20
341.130349931
 30
0.0
  0
VERTEX
  8
0
 10
141.572049786
 20
341.180349931
 30
0.0
  0
VERTEX
  8
0
 10
141.572049786
 20
341.230349931
 30
0.0
  0
VERTEX
  8
0
 10
141.572049786
 20
341.280349931
 30
0.0
  0
VERTEX
  8
0
 10
141.572049786
 20
341.330349931
 30
0.0
  0
VERTEX
  8
0
 10
141.572049786
 20
341.380349931
 30
0.0
  0
VERTEX
  8
0
 10
141.572049786
 20
341.430349931
 30
0.0
  0
VERTEX
  8
0
 10
141.572049786
 20
341.480349931
 30
0.0
  0
VERTEX
  8
0
 10
141.572049786
 20
341.530349931
 30
0.0
  0
VERTEX
  8
0
 10
141.572049786
 20
341.580349931
 30
0.0
  0
VERTEX
  8
0
 10
141.572049786
 20
341.630349931
 30
0.0
  0
VERTEX
  8
0
 10
141.572049786
 20
341.680349931
 30
0.0
  0
VERTEX
  8
0
 10
141.572049786
 20
341.730349931
 30
0.0
  0
VERTEX
  8
0
 10
141.572049786
 20
341.780349931
 30
0.0
  0
VERTEX
  8
0
 10
141.572049786
 20
341.830349931
 30
0.0
  0
VERTEX
  8
0
 10
141.572049786
 20
341.880349931
 30
0.0
  0
VERTEX
  8
0
 10
141.572049786
 20
341.930349931
 30
0.0
  0
VERTEX
  8
0
 10
141.572049786
 20
341.980349931
 30
0.0
  0
VERTEX
  8
0
 10
141.572049786
 20
342.030349931
 30
0.0
  0
VERTEX
  8
0
 10
141.572049786
 20
342.080349931
 30
0.0
  0
VERTEX
  8
0
 10
141.572049786
 20
342.130349931
 30
0.0
  0
VERTEX
  8
0
 10
141.572049786
 20
342.180349931
 30
0.0
  0
VERTEX
  8
0
 10
141.572049786
 20
342.230349931
 30
0.0
  0
VERTEX
  8
0
 10
141.572049786
 20
342.280349931
 30
0.0
  0
VERTEX
  8
0
 10
141.572049786
 20
342.330349931
 30
0.0
  0
VERTEX
  8
0
 10
141.572049786
 20
342.380349931
 30
0.0
  0
VERTEX
  8
0
 10
141.572049786
 20
342.430349931
 30
0.0
  0
VERTEX
  8
0
 10
141.572049786
 20
342.480349931
 30
0.0
  0
VERTEX
  8
0
 10
141.572049786
 20
342.530349931
 30
0.0
  0
VERTEX
  8
0
 10
141.572049786
 20
342.580349931
 30
0.0
  0
VERTEX
  8
0
 10
141.572049786
 20
342.630349931
 30
0.0
  0
VERTEX
  8
0
 10
141.572049786
 20
342.680349931
 30
0.0
  0
VERTEX
  8
0
 10
141.572049786
 20
342.730349931
 30
0.0
  0
VERTEX
  8
0
 10
141.572049786
 20
342.780349931
 30
0.0
  0
VERTEX
  8
0
 10
141.572049786
 20
342.830349931
 30
0.0
  0
VERTEX
  8
0
 10
141.572049786
 20
342.880349931
 30
0.0
  0
VERTEX
  8
0
 10
141.572049786
 20
342.930349931
 30
0.0
  0
VERTEX
  8
0
 10
141.572049786
 20
342.980349931
 30
0.0
  0
VERTEX
  8
0
 10
141.572049786
 20
343.030349931
 30
0.0
  0
VERTEX
  8
0
 10
141.572049786
 20
343.080349931
 30
0.0
  0
VERTEX
  8
0
 10
141.572049786
 20
343.130349931
 30
0.0
  0
VERTEX
  8
0
 10
141.572049786
 20
343.180349931
 30
0.0
  0
VERTEX
  8
0
 10
141.572049786
 20
343.230349931
 30
0.0
  0
VERTEX
  8
0
 10
141.572049786
 20
343.280349931
 30
0.0
  0
VERTEX
  8
0
 10
141.572049786
 20
343.330349931
 30
0.0
  0
VERTEX
  8
0
 10
141.572049786
 20
343.380349931
 30
0.0
  0
VERTEX
  8
0
 10
141.572049786
 20
343.430349931
 30
0.0
  0
VERTEX
  8
0
 10
141.572049786
 20
343.480349931
 30
0.0
  0
VERTEX
  8
0
 10
141.572049786
 20
343.530349931
 30
0.0
  0
VERTEX
  8
0
 10
141.572049786
 20
343.580349931
 30
0.0
  0
VERTEX
  8
0
 10
141.572049786
 20
343.630349931
 30
0.0
  0
VERTEX
  8
0
 10
141.572049786
 20
343.680349931
 30
0.0
  0
VERTEX
  8
0
 10
141.572049786
 20
343.730349931
 30
0.0
  0
VERTEX
  8
0
 10
141.572049786
 20
343.780349931
 30
0.0
  0
VERTEX
  8
0
 10
141.572049786
 20
343.830349931
 30
0.0
  0
VERTEX
  8
0
 10
141.572049786
 20
343.880349931
 30
0.0
  0
VERTEX
  8
0
 10
141.572049786
 20
343.930349931
 30
0.0
  0
VERTEX
  8
0
 10
141.572049786
 20
343.980349931
 30
0.0
  0
VERTEX
  8
0
 10
141.572049786
 20
344.030349931
 30
0.0
  0
VERTEX
  8
0
 10
141.572049786
 20
344.080349931
 30
0.0
  0
VERTEX
  8
0
 10
141.572049786
 20
344.130349931
 30
0.0
  0
VERTEX
  8
0
 10
141.572049786
 20
344.180349931
 30
0.0
  0
VERTEX
  8
0
 10
141.572049786
 20
344.230349931
 30
0.0
  0
VERTEX
  8
0
 10
141.572049786
 20
344.280349931
 30
0.0
  0
VERTEX
  8
0
 10
141.572049786
 20
344.330349931
 30
0.0
  0
VERTEX
  8
0
 10
141.572049786
 20
344.380349931
 30
0.0
  0
VERTEX
  8
0
 10
141.572049786
 20
344.430349931
 30
0.0
  0
VERTEX
  8
0
 10
141.572049786
 20
344.480349931
 30
0.0
  0
VERTEX
  8
0
 10
141.572049786
 20
344.530349931
 30
0.0
  0
VERTEX
  8
0
 10
141.572049786
 20
344.580349931
 30
0.0
  0
VERTEX
  8
0
 10
141.572049786
 20
344.630349931
 30
0.0
  0
VERTEX
  8
0
 10
141.572049786
 20
344.680349931
 30
0.0
  0
VERTEX
  8
0
 10
141.572049786
 20
344.730349931
 30
0.0
  0
VERTEX
  8
0
 10
141.572049786
 20
344.780349931
 30
0.0
  0
VERTEX
  8
0
 10
141.572049786
 20
344.830349931
 30
0.0
  0
VERTEX
  8
0
 10
141.572049786
 20
344.880349931
 30
0.0
  0
VERTEX
  8
0
 10
141.572049786
 20
344.930349931
 30
0.0
  0
VERTEX
  8
0
 10
141.572049786
 20
344.980349931
 30
0.0
  0
VERTEX
  8
0
 10
141.572049786
 20
345.030349931
 30
0.0
  0
VERTEX
  8
0
 10
141.572049786
 20
345.080349931
 30
0.0
  0
VERTEX
  8
0
 10
141.572049786
 20
345.130349931
 30
0.0
  0
VERTEX
  8
0
 10
141.572049786
 20
345.180349931
 30
0.0
  0
VERTEX
  8
0
 10
141.572049786
 20
345.230349931
 30
0.0
  0
VERTEX
  8
0
 10
141.572049786
 20
345.280349931
 30
0.0
  0
VERTEX
  8
0
 10
141.572049786
 20
345.330349931
 30
0.0
  0
VERTEX
  8
0
 10
141.572049786
 20
345.380349931
 30
0.0
  0
VERTEX
  8
0
 10
141.572049786
 20
345.430349931
 30
0.0
  0
VERTEX
  8
0
 10
141.572049786
 20
345.480349931
 30
0.0
  0
VERTEX
  8
0
 10
141.572049786
 20
345.530349931
 30
0.0
  0
VERTEX
  8
0
 10
141.572049786
 20
345.580349931
 30
0.0
  0
VERTEX
  8
0
 10
141.572049786
 20
345.630349931
 30
0.0
  0
VERTEX
  8
0
 10
141.572049786
 20
345.680349931
 30
0.0
  0
VERTEX
  8
0
 10
141.572049786
 20
345.730349931
 30
0.0
  0
VERTEX
  8
0
 10
141.572049786
 20
345.780349931
 30
0.0
  0
VERTEX
  8
0
 10
141.572049786
 20
345.830349931
 30
0.0
  0
VERTEX
  8
0
 10
141.572049786
 20
345.880349931
 30
0.0
  0
VERTEX
  8
0
 10
141.572049786
 20
345.930349931
 30
0.0
  0
VERTEX
  8
0
 10
141.572049786
 20
345.980349931
 30
0.0
  0
VERTEX
  8
0
 10
141.572049786
 20
346.030349931
 30
0.0
  0
VERTEX
  8
0
 10
141.572049786
 20
346.080349931
 30
0.0
  0
VERTEX
  8
0
 10
141.572049786
 20
346.130349931
 30
0.0
  0
VERTEX
  8
0
 10
141.572049786
 20
346.180349931
 30
0.0
  0
VERTEX
  8
0
 10
141.572049786
 20
346.230349931
 30
0.0
  0
VERTEX
  8
0
 10
141.572049786
 20
346.24119647
 30
0.0
  0
SEQEND
  8
0
  0
POLYLINE
  8
0
 62
0
 70
0
 66
1
 10
0.0
 20
0.0
 30
0.0
  0
VERTEX
  8
0
 10
141.572049786
 20
346.24119647
 30
0.0
  0
VERTEX
  8
0
 10
141.522049786
 20
346.24119647
 30
0.0
  0
VERTEX
  8
0
 10
141.472049786
 20
346.24119647
 30
0.0
  0
VERTEX
  8
0
 10
141.422049786
 20
346.24119647
 30
0.0
  0
VERTEX
  8
0
 10
141.372049786
 20
346.24119647
 30
0.0
  0
VERTEX
  8
0
 10
141.322049786
 20
346.24119647
 30
0.0
  0
VERTEX
  8
0
 10
141.272049786
 20
346.24119647
 30
0.0
  0
VERTEX
  8
0
 10
141.222049786
 20
346.24119647
 30
0.0
  0
VERTEX
  8
0
 10
141.172049786
 20
346.24119647
 30
0.0
  0
VERTEX
  8
0
 10
141.122049786
 20
346.24119647
 30
0.0
  0
VERTEX
  8
0
 10
141.072049786
 20
346.24119647
 30
0.0
  0
VERTEX
  8
0
 10
141.022049786
 20
346.24119647
 30
0.0
  0
VERTEX
  8
0
 10
140.972049786
 20
346.24119647
 30
0.0
  0
VERTEX
  8
0
 10
140.922049786
 20
346.24119647
 30
0.0
  0
VERTEX
  8
0
 10
140.872049786
 20
346.24119647
 30
0.0
  0
VERTEX
  8
0
 10
140.822049786
 20
346.24119647
 30
0.0
  0
VERTEX
  8
0
 10
140.772049786
 20
346.24119647
 30
0.0
  0
VERTEX
  8
0
 10
140.722049786
 20
346.24119647
 30
0.0
  0
VERTEX
  8
0
 10
140.672049786
 20
346.24119647
 30
0.0
  0
VERTEX
  8
0
 10
140.622049786
 20
346.24119647
 30
0.0
  0
VERTEX
  8
0
 10
140.572049786
 20
346.24119647
 30
0.0
  0
VERTEX
  8
0
 10
140.522049786
 20
346.24119647
 30
0.0
  0
VERTEX
  8
0
 10
140.472049786
 20
346.24119647
 30
0.0
  0
VERTEX
  8
0
 10
140.422049786
 20
346.24119647
 30
0.0
  0
VERTEX
  8
0
 10
140.372049786
 20
346.24119647
 30
0.0
  0
VERTEX
  8
0
 10
140.322049786
 20
346.24119647
 30
0.0
  0
VERTEX
  8
0
 10
140.272049786
 20
346.24119647
 30
0.0
  0
VERTEX
  8
0
 10
140.222049786
 20
346.24119647
 30
0.0
  0
VERTEX
  8
0
 10
140.172049786
 20
346.24119647
 30
0.0
  0
VERTEX
  8
0
 10
140.122049786
 20
346.24119647
 30
0.0
  0
VERTEX
  8
0
 10
140.072049786
 20
346.24119647
 30
0.0
  0
VERTEX
  8
0
 10
140.022049786
 20
346.24119647
 30
0.0
  0
VERTEX
  8
0
 10
139.972049786
 20
346.24119647
 30
0.0
  0
VERTEX
  8
0
 10
139.922049786
 20
346.24119647
 30
0.0
  0
VERTEX
  8
0
 10
139.872049786
 20
346.24119647
 30
0.0
  0
VERTEX
  8
0
 10
139.822049786
 20
346.24119647
 30
0.0
  0
VERTEX
  8
0
 10
139.772049786
 20
346.24119647
 30
0.0
  0
VERTEX
  8
0
 10
139.722049786
 20
346.24119647
 30
0.0
  0
VERTEX
  8
0
 10
139.672049786
 20
346.24119647
 30
0.0
  0
VERTEX
  8
0
 10
139.622049786
 20
346.24119647
 30
0.0
  0
VERTEX
  8
0
 10
139.572049786
 20
346.24119647
 30
0.0
  0
VERTEX
  8
0
 10
139.522049786
 20
346.24119647
 30
0.0
  0
VERTEX
  8
0
 10
139.472049786
 20
346.24119647
 30
0.0
  0
VERTEX
  8
0
 10
139.422049786
 20
346.24119647
 30
0.0
  0
VERTEX
  8
0
 10
139.372049786
 20
346.24119647
 30
0.0
  0
VERTEX
  8
0
 10
139.322049786
 20
346.24119647
 30
0.0
  0
VERTEX
  8
0
 10
139.272049786
 20
346.24119647
 30
0.0
  0
VERTEX
  8
0
 10
139.222049786
 20
346.24119647
 30
0.0
  0
VERTEX
  8
0
 10
139.172049786
 20
346.24119647
 30
0.0
  0
VERTEX
  8
0
 10
139.122049786
 20
346.24119647
 30
0.0
  0
VERTEX
  8
0
 10
139.072049786
 20
346.24119647
 30
0.0
  0
VERTEX
  8
0
 10
139.022049786
 20
346.24119647
 30
0.0
  0
VERTEX
  8
0
 10
138.972049786
 20
346.24119647
 30
0.0
  0
VERTEX
  8
0
 10
138.922049786
 20
346.24119647
 30
0.0
  0
VERTEX
  8
0
 10
138.872049786
 20
346.24119647
 30
0.0
  0
VERTEX
  8
0
 10
138.822049786
 20
346.24119647
 30
0.0
  0
VERTEX
  8
0
 10
138.772049786
 20
346.24119647
 30
0.0
  0
VERTEX
  8
0
 10
138.722049786
 20
346.24119647
 30
0.0
  0
VERTEX
  8
0
 10
138.672049786
 20
346.24119647
 30
0.0
  0
VERTEX
  8
0
 10
138.622049786
 20
346.24119647
 30
0.0
  0
VERTEX
  8
0
 10
138.572049786
 20
346.24119647
 30
0.0
  0
VERTEX
  8
0
 10
138.522049786
 20
346.24119647
 30
0.0
  0
VERTEX
  8
0
 10
138.472049786
 20
346.24119647
 30
0.0
  0
VERTEX
  8
0
 10
138.422049786
 20
346.24119647
 30
0.0
  0
VERTEX
  8
0
 10
138.372049786
 20
346.24119647
 30
0.0
  0
VERTEX
  8
0
 10
138.322049786
 20
346.24119647
 30
0.0
  0
VERTEX
  8
0
 10
138.272049786
 20
346.24119647
 30
0.0
  0
VERTEX
  8
0
 10
138.222049786
 20
346.24119647
 30
0.0
  0
VERTEX
  8
0
 10
138.172049786
 20
346.24119647
 30
0.0
  0
VERTEX
  8
0
 10
138.122049786
 20
346.24119647
 30
0.0
  0
VERTEX
  8
0
 10
138.072049786
 20
346.24119647
 30
0.0
  0
VERTEX
  8
0
 10
138.022049786
 20
346.24119647
 30
0.0
  0
VERTEX
  8
0
 10
137.972049786
 20
346.24119647
 30
0.0
  0
VERTEX
  8
0
 10
137.922049786
 20
346.24119647
 30
0.0
  0
VERTEX
  8
0
 10
137.872049786
 20
346.24119647
 30
0.0
  0
VERTEX
  8
0
 10
137.822049786
 20
346.24119647
 30
0.0
  0
VERTEX
  8
0
 10
137.772049786
 20
346.24119647
 30
0.0
  0
VERTEX
  8
0
 10
137.722049786
 20
346.24119647
 30
0.0
  0
VERTEX
  8
0
 10
137.672049786
 20
346.24119647
 30
0.0
  0
VERTEX
  8
0
 10
137.622049786
 20
346.24119647
 30
0.0
  0
VERTEX
  8
0
 10
137.572049786
 20
346.24119647
 30
0.0
  0
VERTEX
  8
0
 10
137.522049786
 20
346.24119647
 30
0.0
  0
VERTEX
  8
0
 10
137.472049786
 20
346.24119647
 30
0.0
  0
VERTEX
  8
0
 10
137.422049786
 20
346.24119647
 30
0.0
  0
VERTEX
  8
0
 10
137.372049786
 20
346.24119647
 30
0.0
  0
VERTEX
  8
0
 10
137.322049786
 20
346.24119647
 30
0.0
  0
VERTEX
  8
0
 10
137.272049786
 20
346.24119647
 30
0.0
  0
VERTEX
  8
0
 10
137.222049786
 20
346.24119647
 30
0.0
  0
VERTEX
  8
0
 10
137.172049786
 20
346.24119647
 30
0.0
  0
VERTEX
  8
0
 10
137.122049786
 20
346.24119647
 30
0.0
  0
VERTEX
  8
0
 10
137.072049786
 20
346.24119647
 30
0.0
  0
VERTEX
  8
0
 10
137.022049786
 20
346.24119647
 30
0.0
  0
VERTEX
  8
0
 10
136.972049786
 20
346.24119647
 30
0.0
  0
VERTEX
  8
0
 10
136.922049786
 20
346.24119647
 30
0.0
  0
VERTEX
  8
0
 10
136.872049786
 20
346.24119647
 30
0.0
  0
VERTEX
  8
0
 10
136.822049786
 20
346.24119647
 30
0.0
  0
VERTEX
  8
0
 10
136.772049786
 20
346.24119647
 30
0.0
  0
VERTEX
  8
0
 10
136.722049786
 20
346.24119647
 30
0.0
  0
VERTEX
  8
0
 10
136.672049786
 20
346.24119647
 30
0.0
  0
VERTEX
  8
0
 10
136.622049786
 20
346.24119647
 30
0.0
  0
VERTEX
  8
0
 10
136.572049786
 20
346.24119647
 30
0.0
  0
VERTEX
  8
0
 10
136.522049786
 20
346.24119647
 30
0.0
  0
VERTEX
  8
0
 10
136.472049786
 20
346.24119647
 30
0.0
  0
VERTEX
  8
0
 10
136.422049786
 20
346.24119647
 30
0.0
  0
VERTEX
  8
0
 10
136.372049786
 20
346.24119647
 30
0.0
  0
VERTEX
  8
0
 10
136.322049786
 20
346.24119647
 30
0.0
  0
VERTEX
  8
0
 10
136.272049786
 20
346.24119647
 30
0.0
  0
VERTEX
  8
0
 10
136.222049786
 20
346.24119647
 30
0.0
  0
VERTEX
  8
0
 10
136.172049786
 20
346.24119647
 30
0.0
  0
VERTEX
  8
0
 10
136.122049786
 20
346.24119647
 30
0.0
  0
VERTEX
  8
0
 10
136.072049786
 20
346.24119647
 30
0.0
  0
VERTEX
  8
0
 10
136.022049786
 20
346.24119647
 30
0.0
  0
VERTEX
  8
0
 10
135.972049786
 20
346.24119647
 30
0.0
  0
VERTEX
  8
0
 10
135.922049786
 20
346.24119647
 30
0.0
  0
VERTEX
  8
0
 10
135.872049786
 20
346.24119647
 30
0.0
  0
VERTEX
  8
0
 10
135.822049786
 20
346.24119647
 30
0.0
  0
VERTEX
  8
0
 10
135.772049786
 20
346.24119647
 30
0.0
  0
VERTEX
  8
0
 10
135.722049786
 20
346.24119647
 30
0.0
  0
VERTEX
  8
0
 10
135.672049786
 20
346.24119647
 30
0.0
  0
VERTEX
  8
0
 10
135.622049786
 20
346.24119647
 30
0.0
  0
VERTEX
  8
0
 10
135.572049786
 20
346.24119647
 30
0.0
  0
VERTEX
  8
0
 10
135.522049786
 20
346.24119647
 30
0.0
  0
VERTEX
  8
0
 10
135.472049786
 20
346.24119647
 30
0.0
  0
VERTEX
  8
0
 10
135.422049786
 20
346.24119647
 30
0.0
  0
VERTEX
  8
0
 10
135.372049786
 20
346.24119647
 30
0.0
  0
VERTEX
  8
0
 10
135.322049786
 20
346.24119647
 30
0.0
  0
VERTEX
  8
0
 10
135.272049786
 20
346.24119647
 30
0.0
  0
VERTEX
  8
0
 10
135.222049786
 20
346.24119647
 30
0.0
  0
VERTEX
  8
0
 10
135.172049786
 20
346.24119647
 30
0.0
  0
VERTEX
  8
0
 10
135.122049786
 20
346.24119647
 30
0.0
  0
VERTEX
  8
0
 10
135.072049786
 20
346.24119647
 30
0.0
  0
VERTEX
  8
0
 10
135.022049786
 20
346.24119647
 30
0.0
  0
VERTEX
  8
0
 10
134.972049786
 20
346.24119647
 30
0.0
  0
VERTEX
  8
0
 10
134.922049786
 20
346.24119647
 30
0.0
  0
VERTEX
  8
0
 10
134.872049786
 20
346.24119647
 30
0.0
  0
VERTEX
  8
0
 10
134.822049786
 20
346.24119647
 30
0.0
  0
VERTEX
  8
0
 10
134.772049786
 20
346.24119647
 30
0.0
  0
VERTEX
  8
0
 10
134.722049786
 20
346.24119647
 30
0.0
  0
VERTEX
  8
0
 10
134.672049786
 20
346.24119647
 30
0.0
  0
VERTEX
  8
0
 10
134.622049786
 20
346.24119647
 30
0.0
  0
VERTEX
  8
0
 10
134.572049786
 20
346.24119647
 30
0.0
  0
VERTEX
  8
0
 10
134.522049786
 20
346.24119647
 30
0.0
  0
VERTEX
  8
0
 10
134.472049786
 20
346.24119647
 30
0.0
  0
VERTEX
  8
0
 10
134.422049786
 20
346.24119647
 30
0.0
  0
VERTEX
  8
0
 10
134.372049786
 20
346.24119647
 30
0.0
  0
VERTEX
  8
0
 10
134.322049786
 20
346.24119647
 30
0.0
  0
VERTEX
  8
0
 10
134.272049786
 20
346.24119647
 30
0.0
  0
VERTEX
  8
0
 10
134.222049786
 20
346.24119647
 30
0.0
  0
VERTEX
  8
0
 10
134.172049786
 20
346.24119647
 30
0.0
  0
VERTEX
  8
0
 10
134.122049786
 20
346.24119647
 30
0.0
  0
VERTEX
  8
0
 10
134.072049786
 20
346.24119647
 30
0.0
  0
VERTEX
  8
0
 10
134.022049786
 20
346.24119647
 30
0.0
  0
VERTEX
  8
0
 10
133.972049786
 20
346.24119647
 30
0.0
  0
VERTEX
  8
0
 10
133.922049786
 20
346.24119647
 30
0.0
  0
VERTEX
  8
0
 10
133.872049786
 20
346.24119647
 30
0.0
  0
VERTEX
  8
0
 10
133.822049786
 20
346.24119647
 30
0.0
  0
VERTEX
  8
0
 10
133.772049786
 20
346.24119647
 30
0.0
  0
VERTEX
  8
0
 10
133.722049786
 20
346.24119647
 30
0.0
  0
VERTEX
  8
0
 10
133.672049786
 20
346.24119647
 30
0.0
  0
VERTEX
  8
0
 10
133.622049786
 20
346.24119647
 30
0.0
  0
VERTEX
  8
0
 10
133.572049786
 20
346.24119647
 30
0.0
  0
VERTEX
  8
0
 10
133.522049786
 20
346.24119647
 30
0.0
  0
VERTEX
  8
0
 10
133.472049786
 20
346.24119647
 30
0.0
  0
VERTEX
  8
0
 10
133.422049786
 20
346.24119647
 30
0.0
  0
VERTEX
  8
0
 10
133.372049786
 20
346.24119647
 30
0.0
  0
VERTEX
  8
0
 10
133.322049786
 20
346.24119647
 30
0.0
  0
VERTEX
  8
0
 10
133.272049786
 20
346.24119647
 30
0.0
  0
VERTEX
  8
0
 10
133.222049786
 20
346.24119647
 30
0.0
  0
VERTEX
  8
0
 10
133.172049786
 20
346.24119647
 30
0.0
  0
VERTEX
  8
0
 10
133.122049786
 20
346.24119647
 30
0.0
  0
VERTEX
  8
0
 10
133.072049786
 20
346.24119647
 30
0.0
  0
VERTEX
  8
0
 10
133.022049786
 20
346.24119647
 30
0.0
  0
VERTEX
  8
0
 10
132.972049786
 20
346.24119647
 30
0.0
  0
VERTEX
  8
0
 10
132.922049786
 20
346.24119647
 30
0.0
  0
VERTEX
  8
0
 10
132.872049786
 20
346.24119647
 30
0.0
  0
VERTEX
  8
0
 10
132.822049786
 20
346.24119647
 30
0.0
  0
VERTEX
  8
0
 10
132.772049786
 20
346.24119647
 30
0.0
  0
VERTEX
  8
0
 10
132.722049786
 20
346.24119647
 30
0.0
  0
VERTEX
  8
0
 10
132.672049786
 20
346.24119647
 30
0.0
  0
VERTEX
  8
0
 10
132.622049786
 20
346.24119647
 30
0.0
  0
VERTEX
  8
0
 10
132.572049786
 20
346.24119647
 30
0.0
  0
VERTEX
  8
0
 10
132.522049786
 20
346.24119647
 30
0.0
  0
VERTEX
  8
0
 10
132.472049786
 20
346.24119647
 30
0.0
  0
VERTEX
  8
0
 10
132.422049786
 20
346.24119647
 30
0.0
  0
VERTEX
  8
0
 10
132.372049786
 20
346.24119647
 30
0.0
  0
VERTEX
  8
0
 10
132.322049786
 20
346.24119647
 30
0.0
  0
VERTEX
  8
0
 10
132.272049786
 20
346.24119647
 30
0.0
  0
VERTEX
  8
0
 10
132.222049786
 20
346.24119647
 30
0.0
  0
VERTEX
  8
0
 10
132.172049786
 20
346.24119647
 30
0.0
  0
VERTEX
  8
0
 10
132.122049786
 20
346.24119647
 30
0.0
  0
VERTEX
  8
0
 10
132.072049786
 20
346.24119647
 30
0.0
  0
VERTEX
  8
0
 10
132.022049786
 20
346.24119647
 30
0.0
  0
VERTEX
  8
0
 10
131.972049786
 20
346.24119647
 30
0.0
  0
VERTEX
  8
0
 10
131.922049786
 20
346.24119647
 30
0.0
  0
VERTEX
  8
0
 10
131.872049786
 20
346.24119647
 30
0.0
  0
VERTEX
  8
0
 10
131.822049786
 20
346.24119647
 30
0.0
  0
VERTEX
  8
0
 10
131.772049786
 20
346.24119647
 30
0.0
  0
VERTEX
  8
0
 10
131.722049786
 20
346.24119647
 30
0.0
  0
VERTEX
  8
0
 10
131.672049786
 20
346.24119647
 30
0.0
  0
VERTEX
  8
0
 10
131.622049786
 20
346.24119647
 30
0.0
  0
VERTEX
  8
0
 10
131.572049786
 20
346.24119647
 30
0.0
  0
VERTEX
  8
0
 10
131.522049786
 20
346.24119647
 30
0.0
  0
VERTEX
  8
0
 10
131.472049786
 20
346.24119647
 30
0.0
  0
VERTEX
  8
0
 10
131.422049786
 20
346.24119647
 30
0.0
  0
VERTEX
  8
0
 10
131.372049786
 20
346.24119647
 30
0.0
  0
VERTEX
  8
0
 10
131.322049786
 20
346.24119647
 30
0.0
  0
VERTEX
  8
0
 10
131.272049786
 20
346.24119647
 30
0.0
  0
VERTEX
  8
0
 10
131.222049786
 20
346.24119647
 30
0.0
  0
VERTEX
  8
0
 10
131.172049786
 20
346.24119647
 30
0.0
  0
VERTEX
  8
0
 10
131.122049786
 20
346.24119647
 30
0.0
  0
VERTEX
  8
0
 10
131.072049786
 20
346.24119647
 30
0.0
  0
VERTEX
  8
0
 10
131.022049786
 20
346.24119647
 30
0.0
  0
VERTEX
  8
0
 10
130.972049786
 20
346.24119647
 30
0.0
  0
VERTEX
  8
0
 10
130.922049786
 20
346.24119647
 30
0.0
  0
VERTEX
  8
0
 10
130.872049786
 20
346.24119647
 30
0.0
  0
VERTEX
  8
0
 10
130.822049786
 20
346.24119647
 30
0.0
  0
VERTEX
  8
0
 10
130.772049786
 20
346.24119647
 30
0.0
  0
VERTEX
  8
0
 10
130.722049786
 20
346.24119647
 30
0.0
  0
VERTEX
  8
0
 10
130.672049786
 20
346.24119647
 30
0.0
  0
VERTEX
  8
0
 10
130.622049786
 20
346.24119647
 30
0.0
  0
VERTEX
  8
0
 10
130.572049786
 20
346.24119647
 30
0.0
  0
VERTEX
  8
0
 10
130.522049786
 20
346.24119647
 30
0.0
  0
VERTEX
  8
0
 10
130.472049786
 20
346.24119647
 30
0.0
  0
VERTEX
  8
0
 10
130.422049786
 20
346.24119647
 30
0.0
  0
VERTEX
  8
0
 10
130.372049786
 20
346.24119647
 30
0.0
  0
VERTEX
  8
0
 10
130.322049786
 20
346.24119647
 30
0.0
  0
VERTEX
  8
0
 10
130.272049786
 20
346.24119647
 30
0.0
  0
VERTEX
  8
0
 10
130.222049786
 20
346.24119647
 30
0.0
  0
VERTEX
  8
0
 10
130.172049786
 20
346.24119647
 30
0.0
  0
VERTEX
  8
0
 10
130.122049786
 20
346.24119647
 30
0.0
  0
VERTEX
  8
0
 10
130.072049786
 20
346.24119647
 30
0.0
  0
VERTEX
  8
0
 10
130.022049786
 20
346.24119647
 30
0.0
  0
VERTEX
  8
0
 10
129.972049786
 20
346.24119647
 30
0.0
  0
VERTEX
  8
0
 10
129.922049786
 20
346.24119647
 30
0.0
  0
VERTEX
  8
0
 10
129.872049786
 20
346.24119647
 30
0.0
  0
VERTEX
  8
0
 10
129.822049786
 20
346.24119647
 30
0.0
  0
VERTEX
  8
0
 10
129.772049786
 20
346.24119647
 30
0.0
  0
VERTEX
  8
0
 10
129.722049786
 20
346.24119647
 30
0.0
  0
VERTEX
  8
0
 10
129.672049786
 20
346.24119647
 30
0.0
  0
VERTEX
  8
0
 10
129.622049786
 20
346.24119647
 30
0.0
  0
VERTEX
  8
0
 10
129.572049786
 20
346.24119647
 30
0.0
  0
VERTEX
  8
0
 10
129.522049786
 20
346.24119647
 30
0.0
  0
VERTEX
  8
0
 10
129.472049786
 20
346.24119647
 30
0.0
  0
VERTEX
  8
0
 10
129.422049786
 20
346.24119647
 30
0.0
  0
VERTEX
  8
0
 10
129.372049786
 20
346.24119647
 30
0.0
  0
VERTEX
  8
0
 10
129.322049786
 20
346.24119647
 30
0.0
  0
VERTEX
  8
0
 10
129.272049786
 20
346.24119647
 30
0.0
  0
VERTEX
  8
0
 10
129.222049786
 20
346.24119647
 30
0.0
  0
VERTEX
  8
0
 10
129.172049786
 20
346.24119647
 30
0.0
  0
VERTEX
  8
0
 10
129.122049786
 20
346.24119647
 30
0.0
  0
VERTEX
  8
0
 10
129.072049786
 20
346.24119647
 30
0.0
  0
VERTEX
  8
0
 10
129.022049786
 20
346.24119647
 30
0.0
  0
VERTEX
  8
0
 10
128.972049786
 20
346.24119647
 30
0.0
  0
VERTEX
  8
0
 10
128.922049786
 20
346.24119647
 30
0.0
  0
VERTEX
  8
0
 10
128.872049786
 20
346.24119647
 30
0.0
  0
VERTEX
  8
0
 10
128.822049786
 20
346.24119647
 30
0.0
  0
VERTEX
  8
0
 10
128.772049786
 20
346.24119647
 30
0.0
  0
VERTEX
  8
0
 10
128.722049786
 20
346.24119647
 30
0.0
  0
VERTEX
  8
0
 10
128.672049786
 20
346.24119647
 30
0.0
  0
VERTEX
  8
0
 10
128.622049786
 20
346.24119647
 30
0.0
  0
VERTEX
  8
0
 10
128.572049786
 20
346.24119647
 30
0.0
  0
VERTEX
  8
0
 10
128.522049786
 20
346.24119647
 30
0.0
  0
VERTEX
  8
0
 10
128.472049786
 20
346.24119647
 30
0.0
  0
VERTEX
  8
0
 10
128.422049786
 20
346.24119647
 30
0.0
  0
VERTEX
  8
0
 10
128.372049786
 20
346.24119647
 30
0.0
  0
VERTEX
  8
0
 10
128.322049786
 20
346.24119647
 30
0.0
  0
VERTEX
  8
0
 10
128.272049786
 20
346.24119647
 30
0.0
  0
VERTEX
  8
0
 10
128.222049786
 20
346.24119647
 30
0.0
  0
VERTEX
  8
0
 10
128.172049786
 20
346.24119647
 30
0.0
  0
VERTEX
  8
0
 10
128.122049786
 20
346.24119647
 30
0.0
  0
VERTEX
  8
0
 10
128.072049786
 20
346.24119647
 30
0.0
  0
VERTEX
  8
0
 10
128.022049786
 20
346.24119647
 30
0.0
  0
VERTEX
  8
0
 10
127.972049786
 20
346.24119647
 30
0.0
  0
VERTEX
  8
0
 10
127.922049786
 20
346.24119647
 30
0.0
  0
VERTEX
  8
0
 10
127.872049786
 20
346.24119647
 30
0.0
  0
VERTEX
  8
0
 10
127.822049786
 20
346.24119647
 30
0.0
  0
VERTEX
  8
0
 10
127.772049786
 20
346.24119647
 30
0.0
  0
VERTEX
  8
0
 10
127.722049786
 20
346.24119647
 30
0.0
  0
VERTEX
  8
0
 10
127.672049786
 20
346.24119647
 30
0.0
  0
VERTEX
  8
0
 10
127.622049786
 20
346.24119647
 30
0.0
  0
VERTEX
  8
0
 10
127.572049786
 20
346.24119647
 30
0.0
  0
VERTEX
  8
0
 10
127.522049786
 20
346.24119647
 30
0.0
  0
VERTEX
  8
0
 10
127.472049786
 20
346.24119647
 30
0.0
  0
VERTEX
  8
0
 10
127.422049786
 20
346.24119647
 30
0.0
  0
VERTEX
  8
0
 10
127.372049786
 20
346.24119647
 30
0.0
  0
VERTEX
  8
0
 10
127.322049786
 20
346.24119647
 30
0.0
  0
VERTEX
  8
0
 10
127.272049786
 20
346.24119647
 30
0.0
  0
VERTEX
  8
0
 10
127.222049786
 20
346.24119647
 30
0.0
  0
VERTEX
  8
0
 10
127.172049786
 20
346.24119647
 30
0.0
  0
VERTEX
  8
0
 10
127.122049786
 20
346.24119647
 30
0.0
  0
VERTEX
  8
0
 10
127.072049786
 20
346.24119647
 30
0.0
  0
VERTEX
  8
0
 10
127.022049786
 20
346.24119647
 30
0.0
  0
VERTEX
  8
0
 10
126.972049786
 20
346.24119647
 30
0.0
  0
VERTEX
  8
0
 10
126.922049786
 20
346.24119647
 30
0.0
  0
VERTEX
  8
0
 10
126.872049786
 20
346.24119647
 30
0.0
  0
VERTEX
  8
0
 10
126.822049786
 20
346.24119647
 30
0.0
  0
VERTEX
  8
0
 10
126.772049786
 20
346.24119647
 30
0.0
  0
VERTEX
  8
0
 10
126.722049786
 20
346.24119647
 30
0.0
  0
VERTEX
  8
0
 10
126.672049786
 20
346.24119647
 30
0.0
  0
VERTEX
  8
0
 10
126.622049786
 20
346.24119647
 30
0.0
  0
VERTEX
  8
0
 10
126.572049786
 20
346.24119647
 30
0.0
  0
VERTEX
  8
0
 10
126.522049786
 20
346.24119647
 30
0.0
  0
VERTEX
  8
0
 10
126.472049786
 20
346.24119647
 30
0.0
  0
VERTEX
  8
0
 10
126.422049786
 20
346.24119647
 30
0.0
  0
VERTEX
  8
0
 10
126.372049786
 20
346.24119647
 30
0.0
  0
VERTEX
  8
0
 10
126.322049786
 20
346.24119647
 30
0.0
  0
VERTEX
  8
0
 10
126.272049786
 20
346.24119647
 30
0.0
  0
VERTEX
  8
0
 10
126.222049786
 20
346.24119647
 30
0.0
  0
VERTEX
  8
0
 10
126.172049786
 20
346.24119647
 30
0.0
  0
VERTEX
  8
0
 10
126.122049786
 20
346.24119647
 30
0.0
  0
VERTEX
  8
0
 10
126.072049786
 20
346.24119647
 30
0.0
  0
VERTEX
  8
0
 10
126.022049786
 20
346.24119647
 30
0.0
  0
VERTEX
  8
0
 10
125.972049786
 20
346.24119647
 30
0.0
  0
VERTEX
  8
0
 10
125.922049786
 20
346.24119647
 30
0.0
  0
VERTEX
  8
0
 10
125.872049786
 20
346.24119647
 30
0.0
  0
VERTEX
  8
0
 10
125.822049786
 20
346.24119647
 30
0.0
  0
VERTEX
  8
0
 10
125.772049786
 20
346.24119647
 30
0.0
  0
VERTEX
  8
0
 10
125.722049786
 20
346.24119647
 30
0.0
  0
VERTEX
  8
0
 10
125.672049786
 20
346.24119647
 30
0.0
  0
VERTEX
  8
0
 10
125.622049786
 20
346.24119647
 30
0.0
  0
VERTEX
  8
0
 10
125.572049786
 20
346.24119647
 30
0.0
  0
VERTEX
  8
0
 10
125.522049786
 20
346.24119647
 30
0.0
  0
VERTEX
  8
0
 10
125.472049786
 20
346.24119647
 30
0.0
  0
VERTEX
  8
0
 10
125.422049786
 20
346.24119647
 30
0.0
  0
VERTEX
  8
0
 10
125.372049786
 20
346.24119647
 30
0.0
  0
VERTEX
  8
0
 10
125.322049786
 20
346.24119647
 30
0.0
  0
VERTEX
  8
0
 10
125.272049786
 20
346.24119647
 30
0.0
  0
VERTEX
  8
0
 10
125.222049786
 20
346.24119647
 30
0.0
  0
VERTEX
  8
0
 10
125.172049786
 20
346.24119647
 30
0.0
  0
VERTEX
  8
0
 10
125.122049786
 20
346.24119647
 30
0.0
  0
VERTEX
  8
0
 10
125.072049786
 20
346.24119647
 30
0.0
  0
VERTEX
  8
0
 10
125.022049786
 20
346.24119647
 30
0.0
  0
VERTEX
  8
0
 10
124.972049786
 20
346.24119647
 30
0.0
  0
VERTEX
  8
0
 10
124.922049786
 20
346.24119647
 30
0.0
  0
VERTEX
  8
0
 10
124.872049786
 20
346.24119647
 30
0.0
  0
VERTEX
  8
0
 10
124.822049786
 20
346.24119647
 30
0.0
  0
VERTEX
  8
0
 10
124.772049786
 20
346.24119647
 30
0.0
  0
VERTEX
  8
0
 10
124.722049786
 20
346.24119647
 30
0.0
  0
VERTEX
  8
0
 10
124.672049786
 20
346.24119647
 30
0.0
  0
VERTEX
  8
0
 10
124.622049786
 20
346.24119647
 30
0.0
  0
VERTEX
  8
0
 10
124.572049786
 20
346.24119647
 30
0.0
  0
VERTEX
  8
0
 10
124.522049786
 20
346.24119647
 30
0.0
  0
VERTEX
  8
0
 10
124.472049786
 20
346.24119647
 30
0.0
  0
VERTEX
  8
0
 10
124.422049786
 20
346.24119647
 30
0.0
  0
VERTEX
  8
0
 10
124.372049786
 20
346.24119647
 30
0.0
  0
VERTEX
  8
0
 10
124.322049786
 20
346.24119647
 30
0.0
  0
VERTEX
  8
0
 10
124.272049786
 20
346.24119647
 30
0.0
  0
VERTEX
  8
0
 10
124.222049786
 20
346.24119647
 30
0.0
  0
VERTEX
  8
0
 10
124.172049786
 20
346.24119647
 30
0.0
  0
VERTEX
  8
0
 10
124.122049786
 20
346.24119647
 30
0.0
  0
VERTEX
  8
0
 10
124.072049786
 20
346.24119647
 30
0.0
  0
VERTEX
  8
0
 10
124.022049786
 20
346.24119647
 30
0.0
  0
VERTEX
  8
0
 10
123.972049786
 20
346.24119647
 30
0.0
  0
VERTEX
  8
0
 10
123.922049786
 20
346.24119647
 30
0.0
  0
VERTEX
  8
0
 10
123.872049786
 20
346.24119647
 30
0.0
  0
VERTEX
  8
0
 10
123.822049786
 20
346.24119647
 30
0.0
  0
VERTEX
  8
0
 10
123.772049786
 20
346.24119647
 30
0.0
  0
VERTEX
  8
0
 10
123.722049786
 20
346.24119647
 30
0.0
  0
VERTEX
  8
0
 10
123.672049786
 20
346.24119647
 30
0.0
  0
VERTEX
  8
0
 10
123.622049786
 20
346.24119647
 30
0.0
  0
VERTEX
  8
0
 10
123.572049786
 20
346.24119647
 30
0.0
  0
VERTEX
  8
0
 10
123.522049786
 20
346.24119647
 30
0.0
  0
VERTEX
  8
0
 10
123.472049786
 20
346.24119647
 30
0.0
  0
VERTEX
  8
0
 10
123.422049786
 20
346.24119647
 30
0.0
  0
VERTEX
  8
0
 10
123.372049786
 20
346.24119647
 30
0.0
  0
VERTEX
  8
0
 10
123.322049786
 20
346.24119647
 30
0.0
  0
VERTEX
  8
0
 10
123.272049786
 20
346.24119647
 30
0.0
  0
VERTEX
  8
0
 10
123.222049786
 20
346.24119647
 30
0.0
  0
VERTEX
  8
0
 10
123.172049786
 20
346.24119647
 30
0.0
  0
VERTEX
  8
0
 10
123.122049786
 20
346.24119647
 30
0.0
  0
VERTEX
  8
0
 10
123.072049786
 20
346.24119647
 30
0.0
  0
VERTEX
  8
0
 10
123.022049786
 20
346.24119647
 30
0.0
  0
VERTEX
  8
0
 10
122.972049786
 20
346.24119647
 30
0.0
  0
VERTEX
  8
0
 10
122.922049786
 20
346.24119647
 30
0.0
  0
VERTEX
  8
0
 10
122.872049786
 20
346.24119647
 30
0.0
  0
VERTEX
  8
0
 10
122.822049786
 20
346.24119647
 30
0.0
  0
VERTEX
  8
0
 10
122.772049786
 20
346.24119647
 30
0.0
  0
VERTEX
  8
0
 10
122.722049786
 20
346.24119647
 30
0.0
  0
VERTEX
  8
0
 10
122.672049786
 20
346.24119647
 30
0.0
  0
VERTEX
  8
0
 10
122.622049786
 20
346.24119647
 30
0.0
  0
VERTEX
  8
0
 10
122.572049786
 20
346.24119647
 30
0.0
  0
VERTEX
  8
0
 10
122.522049786
 20
346.24119647
 30
0.0
  0
VERTEX
  8
0
 10
122.472049786
 20
346.24119647
 30
0.0
  0
VERTEX
  8
0
 10
122.422049786
 20
346.24119647
 30
0.0
  0
VERTEX
  8
0
 10
122.372049786
 20
346.24119647
 30
0.0
  0
VERTEX
  8
0
 10
122.322049786
 20
346.24119647
 30
0.0
  0
VERTEX
  8
0
 10
122.272049786
 20
346.24119647
 30
0.0
  0
VERTEX
  8
0
 10
122.222049786
 20
346.24119647
 30
0.0
  0
VERTEX
  8
0
 10
122.172049786
 20
346.24119647
 30
0.0
  0
VERTEX
  8
0
 10
122.122049786
 20
346.24119647
 30
0.0
  0
VERTEX
  8
0
 10
122.072049786
 20
346.24119647
 30
0.0
  0
VERTEX
  8
0
 10
122.022049786
 20
346.24119647
 30
0.0
  0
VERTEX
  8
0
 10
121.972049786
 20
346.24119647
 30
0.0
  0
VERTEX
  8
0
 10
121.922049786
 20
346.24119647
 30
0.0
  0
VERTEX
  8
0
 10
121.872049786
 20
346.24119647
 30
0.0
  0
VERTEX
  8
0
 10
121.822049786
 20
346.24119647
 30
0.0
  0
VERTEX
  8
0
 10
121.772049786
 20
346.24119647
 30
0.0
  0
VERTEX
  8
0
 10
121.722049786
 20
346.24119647
 30
0.0
  0
VERTEX
  8
0
 10
121.672049786
 20
346.24119647
 30
0.0
  0
VERTEX
  8
0
 10
121.622049786
 20
346.24119647
 30
0.0
  0
VERTEX
  8
0
 10
121.572049786
 20
346.24119647
 30
0.0
  0
VERTEX
  8
0
 10
121.522049786
 20
346.24119647
 30
0.0
  0
VERTEX
  8
0
 10
121.472049786
 20
346.24119647
 30
0.0
  0
VERTEX
  8
0
 10
121.422049786
 20
346.24119647
 30
0.0
  0
VERTEX
  8
0
 10
121.372049786
 20
346.24119647
 30
0.0
  0
VERTEX
  8
0
 10
121.322049786
 20
346.24119647
 30
0.0
  0
VERTEX
  8
0
 10
121.272049786
 20
346.24119647
 30
0.0
  0
VERTEX
  8
0
 10
121.222049786
 20
346.24119647
 30
0.0
  0
VERTEX
  8
0
 10
121.172049786
 20
346.24119647
 30
0.0
  0
VERTEX
  8
0
 10
121.122049786
 20
346.24119647
 30
0.0
  0
VERTEX
  8
0
 10
121.072049786
 20
346.24119647
 30
0.0
  0
VERTEX
  8
0
 10
121.022049786
 20
346.24119647
 30
0.0
  0
VERTEX
  8
0
 10
120.972049786
 20
346.24119647
 30
0.0
  0
VERTEX
  8
0
 10
120.922049786
 20
346.24119647
 30
0.0
  0
VERTEX
  8
0
 10
120.872049786
 20
346.24119647
 30
0.0
  0
VERTEX
  8
0
 10
120.822049786
 20
346.24119647
 30
0.0
  0
VERTEX
  8
0
 10
120.772049786
 20
346.24119647
 30
0.0
  0
VERTEX
  8
0
 10
120.722049786
 20
346.24119647
 30
0.0
  0
VERTEX
  8
0
 10
120.672049786
 20
346.24119647
 30
0.0
  0
VERTEX
  8
0
 10
120.622049786
 20
346.24119647
 30
0.0
  0
VERTEX
  8
0
 10
120.572049786
 20
346.24119647
 30
0.0
  0
VERTEX
  8
0
 10
120.522049786
 20
346.24119647
 30
0.0
  0
VERTEX
  8
0
 10
120.472049786
 20
346.24119647
 30
0.0
  0
VERTEX
  8
0
 10
120.422049786
 20
346.24119647
 30
0.0
  0
VERTEX
  8
0
 10
120.372049786
 20
346.24119647
 30
0.0
  0
VERTEX
  8
0
 10
120.322049786
 20
346.24119647
 30
0.0
  0
VERTEX
  8
0
 10
120.272049786
 20
346.24119647
 30
0.0
  0
VERTEX
  8
0
 10
120.222049786
 20
346.24119647
 30
0.0
  0
VERTEX
  8
0
 10
120.172049786
 20
346.24119647
 30
0.0
  0
VERTEX
  8
0
 10
120.122049786
 20
346.24119647
 30
0.0
  0
VERTEX
  8
0
 10
120.072049786
 20
346.24119647
 30
0.0
  0
VERTEX
  8
0
 10
120.022049786
 20
346.24119647
 30
0.0
  0
VERTEX
  8
0
 10
119.972049786
 20
346.24119647
 30
0.0
  0
VERTEX
  8
0
 10
119.922049786
 20
346.24119647
 30
0.0
  0
VERTEX
  8
0
 10
119.872049786
 20
346.24119647
 30
0.0
  0
VERTEX
  8
0
 10
119.822049786
 20
346.24119647
 30
0.0
  0
VERTEX
  8
0
 10
119.772049786
 20
346.24119647
 30
0.0
  0
VERTEX
  8
0
 10
119.722049786
 20
346.24119647
 30
0.0
  0
VERTEX
  8
0
 10
119.672049786
 20
346.24119647
 30
0.0
  0
VERTEX
  8
0
 10
119.622049786
 20
346.24119647
 30
0.0
  0
VERTEX
  8
0
 10
119.572049786
 20
346.24119647
 30
0.0
  0
VERTEX
  8
0
 10
119.522049786
 20
346.24119647
 30
0.0
  0
VERTEX
  8
0
 10
119.472049786
 20
346.24119647
 30
0.0
  0
VERTEX
  8
0
 10
119.422049786
 20
346.24119647
 30
0.0
  0
VERTEX
  8
0
 10
119.372049786
 20
346.24119647
 30
0.0
  0
VERTEX
  8
0
 10
119.322049786
 20
346.24119647
 30
0.0
  0
VERTEX
  8
0
 10
119.272049786
 20
346.24119647
 30
0.0
  0
VERTEX
  8
0
 10
119.222049786
 20
346.24119647
 30
0.0
  0
VERTEX
  8
0
 10
119.172049786
 20
346.24119647
 30
0.0
  0
VERTEX
  8
0
 10
119.122049786
 20
346.24119647
 30
0.0
  0
VERTEX
  8
0
 10
119.072049786
 20
346.24119647
 30
0.0
  0
VERTEX
  8
0
 10
119.022049786
 20
346.24119647
 30
0.0
  0
VERTEX
  8
0
 10
118.972049786
 20
346.24119647
 30
0.0
  0
VERTEX
  8
0
 10
118.922049786
 20
346.24119647
 30
0.0
  0
VERTEX
  8
0
 10
118.872049786
 20
346.24119647
 30
0.0
  0
VERTEX
  8
0
 10
118.822049786
 20
346.24119647
 30
0.0
  0
VERTEX
  8
0
 10
118.772049786
 20
346.24119647
 30
0.0
  0
VERTEX
  8
0
 10
118.722049786
 20
346.24119647
 30
0.0
  0
VERTEX
  8
0
 10
118.672049786
 20
346.24119647
 30
0.0
  0
VERTEX
  8
0
 10
118.622049786
 20
346.24119647
 30
0.0
  0
VERTEX
  8
0
 10
118.572049786
 20
346.24119647
 30
0.0
  0
VERTEX
  8
0
 10
118.522049786
 20
346.24119647
 30
0.0
  0
VERTEX
  8
0
 10
118.472049786
 20
346.24119647
 30
0.0
  0
VERTEX
  8
0
 10
118.422049786
 20
346.24119647
 30
0.0
  0
VERTEX
  8
0
 10
118.372049786
 20
346.24119647
 30
0.0
  0
VERTEX
  8
0
 10
118.322049786
 20
346.24119647
 30
0.0
  0
VERTEX
  8
0
 10
118.272049786
 20
346.24119647
 30
0.0
  0
VERTEX
  8
0
 10
118.222049786
 20
346.24119647
 30
0.0
  0
VERTEX
  8
0
 10
118.172049786
 20
346.24119647
 30
0.0
  0
VERTEX
  8
0
 10
118.122049786
 20
346.24119647
 30
0.0
  0
VERTEX
  8
0
 10
118.072049786
 20
346.24119647
 30
0.0
  0
VERTEX
  8
0
 10
118.022049786
 20
346.24119647
 30
0.0
  0
VERTEX
  8
0
 10
117.972049786
 20
346.24119647
 30
0.0
  0
VERTEX
  8
0
 10
117.922049786
 20
346.24119647
 30
0.0
  0
VERTEX
  8
0
 10
117.872049786
 20
346.24119647
 30
0.0
  0
VERTEX
  8
0
 10
117.822049786
 20
346.24119647
 30
0.0
  0
VERTEX
  8
0
 10
117.772049786
 20
346.24119647
 30
0.0
  0
VERTEX
  8
0
 10
117.722049786
 20
346.24119647
 30
0.0
  0
VERTEX
  8
0
 10
117.672049786
 20
346.24119647
 30
0.0
  0
VERTEX
  8
0
 10
117.622049786
 20
346.24119647
 30
0.0
  0
VERTEX
  8
0
 10
117.572049786
 20
346.24119647
 30
0.0
  0
VERTEX
  8
0
 10
117.522049786
 20
346.24119647
 30
0.0
  0
VERTEX
  8
0
 10
117.472049786
 20
346.24119647
 30
0.0
  0
VERTEX
  8
0
 10
117.422049786
 20
346.24119647
 30
0.0
  0
VERTEX
  8
0
 10
117.372049786
 20
346.24119647
 30
0.0
  0
VERTEX
  8
0
 10
117.322049786
 20
346.24119647
 30
0.0
  0
VERTEX
  8
0
 10
117.272049786
 20
346.24119647
 30
0.0
  0
VERTEX
  8
0
 10
117.222049786
 20
346.24119647
 30
0.0
  0
VERTEX
  8
0
 10
117.172049786
 20
346.24119647
 30
0.0
  0
VERTEX
  8
0
 10
117.122049786
 20
346.24119647
 30
0.0
  0
VERTEX
  8
0
 10
117.072049786
 20
346.24119647
 30
0.0
  0
VERTEX
  8
0
 10
117.022049786
 20
346.24119647
 30
0.0
  0
VERTEX
  8
0
 10
116.972049786
 20
346.24119647
 30
0.0
  0
VERTEX
  8
0
 10
116.922049786
 20
346.24119647
 30
0.0
  0
VERTEX
  8
0
 10
116.872049786
 20
346.24119647
 30
0.0
  0
VERTEX
  8
0
 10
116.822049786
 20
346.24119647
 30
0.0
  0
VERTEX
  8
0
 10
116.772049786
 20
346.24119647
 30
0.0
  0
VERTEX
  8
0
 10
116.722049786
 20
346.24119647
 30
0.0
  0
VERTEX
  8
0
 10
116.672049786
 20
346.24119647
 30
0.0
  0
VERTEX
  8
0
 10
116.622049786
 20
346.24119647
 30
0.0
  0
VERTEX
  8
0
 10
116.572049786
 20
346.24119647
 30
0.0
  0
VERTEX
  8
0
 10
116.522049786
 20
346.24119647
 30
0.0
  0
VERTEX
  8
0
 10
116.472049786
 20
346.24119647
 30
0.0
  0
VERTEX
  8
0
 10
116.422049786
 20
346.24119647
 30
0.0
  0
VERTEX
  8
0
 10
116.372049786
 20
346.24119647
 30
0.0
  0
VERTEX
  8
0
 10
116.322049786
 20
346.24119647
 30
0.0
  0
VERTEX
  8
0
 10
116.272049786
 20
346.24119647
 30
0.0
  0
VERTEX
  8
0
 10
116.222049786
 20
346.24119647
 30
0.0
  0
VERTEX
  8
0
 10
116.172049786
 20
346.24119647
 30
0.0
  0
VERTEX
  8
0
 10
116.122049786
 20
346.24119647
 30
0.0
  0
VERTEX
  8
0
 10
116.072049786
 20
346.24119647
 30
0.0
  0
VERTEX
  8
0
 10
116.022049786
 20
346.24119647
 30
0.0
  0
VERTEX
  8
0
 10
115.972049786
 20
346.24119647
 30
0.0
  0
VERTEX
  8
0
 10
115.922049786
 20
346.24119647
 30
0.0
  0
VERTEX
  8
0
 10
115.872049786
 20
346.24119647
 30
0.0
  0
VERTEX
  8
0
 10
115.822049786
 20
346.24119647
 30
0.0
  0
VERTEX
  8
0
 10
115.772049786
 20
346.24119647
 30
0.0
  0
VERTEX
  8
0
 10
115.722049786
 20
346.24119647
 30
0.0
  0
VERTEX
  8
0
 10
115.672049786
 20
346.24119647
 30
0.0
  0
VERTEX
  8
0
 10
115.622049786
 20
346.24119647
 30
0.0
  0
VERTEX
  8
0
 10
115.572049786
 20
346.24119647
 30
0.0
  0
VERTEX
  8
0
 10
115.522049786
 20
346.24119647
 30
0.0
  0
VERTEX
  8
0
 10
115.472049786
 20
346.24119647
 30
0.0
  0
VERTEX
  8
0
 10
115.422049786
 20
346.24119647
 30
0.0
  0
VERTEX
  8
0
 10
115.372049786
 20
346.24119647
 30
0.0
  0
VERTEX
  8
0
 10
115.322049786
 20
346.24119647
 30
0.0
  0
VERTEX
  8
0
 10
115.272049786
 20
346.24119647
 30
0.0
  0
VERTEX
  8
0
 10
115.222049786
 20
346.24119647
 30
0.0
  0
VERTEX
  8
0
 10
115.172049786
 20
346.24119647
 30
0.0
  0
VERTEX
  8
0
 10
115.122049786
 20
346.24119647
 30
0.0
  0
VERTEX
  8
0
 10
115.072049786
 20
346.24119647
 30
0.0
  0
VERTEX
  8
0
 10
115.022049786
 20
346.24119647
 30
0.0
  0
VERTEX
  8
0
 10
114.972049786
 20
346.24119647
 30
0.0
  0
VERTEX
  8
0
 10
114.922049786
 20
346.24119647
 30
0.0
  0
VERTEX
  8
0
 10
114.872049786
 20
346.24119647
 30
0.0
  0
VERTEX
  8
0
 10
114.822049786
 20
346.24119647
 30
0.0
  0
VERTEX
  8
0
 10
114.772049786
 20
346.24119647
 30
0.0
  0
VERTEX
  8
0
 10
114.722049786
 20
346.24119647
 30
0.0
  0
VERTEX
  8
0
 10
114.672049786
 20
346.24119647
 30
0.0
  0
VERTEX
  8
0
 10
114.622049786
 20
346.24119647
 30
0.0
  0
VERTEX
  8
0
 10
114.572049786
 20
346.24119647
 30
0.0
  0
VERTEX
  8
0
 10
114.522049786
 20
346.24119647
 30
0.0
  0
VERTEX
  8
0
 10
114.472049786
 20
346.24119647
 30
0.0
  0
VERTEX
  8
0
 10
114.422049786
 20
346.24119647
 30
0.0
  0
VERTEX
  8
0
 10
114.372049786
 20
346.24119647
 30
0.0
  0
VERTEX
  8
0
 10
114.322049786
 20
346.24119647
 30
0.0
  0
VERTEX
  8
0
 10
114.272049786
 20
346.24119647
 30
0.0
  0
VERTEX
  8
0
 10
114.222049786
 20
346.24119647
 30
0.0
  0
VERTEX
  8
0
 10
114.172049786
 20
346.24119647
 30
0.0
  0
VERTEX
  8
0
 10
114.122049786
 20
346.24119647
 30
0.0
  0
VERTEX
  8
0
 10
114.072049786
 20
346.24119647
 30
0.0
  0
VERTEX
  8
0
 10
114.022049786
 20
346.24119647
 30
0.0
  0
VERTEX
  8
0
 10
113.972049786
 20
346.24119647
 30
0.0
  0
VERTEX
  8
0
 10
113.922049786
 20
346.24119647
 30
0.0
  0
VERTEX
  8
0
 10
113.872049786
 20
346.24119647
 30
0.0
  0
VERTEX
  8
0
 10
113.822049786
 20
346.24119647
 30
0.0
  0
VERTEX
  8
0
 10
113.772049786
 20
346.24119647
 30
0.0
  0
VERTEX
  8
0
 10
113.722049786
 20
346.24119647
 30
0.0
  0
VERTEX
  8
0
 10
113.672049786
 20
346.24119647
 30
0.0
  0
VERTEX
  8
0
 10
113.622049786
 20
346.24119647
 30
0.0
  0
VERTEX
  8
0
 10
113.572049786
 20
346.24119647
 30
0.0
  0
VERTEX
  8
0
 10
113.522049786
 20
346.24119647
 30
0.0
  0
VERTEX
  8
0
 10
113.472049786
 20
346.24119647
 30
0.0
  0
VERTEX
  8
0
 10
113.422049786
 20
346.24119647
 30
0.0
  0
VERTEX
  8
0
 10
113.372049786
 20
346.24119647
 30
0.0
  0
VERTEX
  8
0
 10
113.322049786
 20
346.24119647
 30
0.0
  0
VERTEX
  8
0
 10
113.272049786
 20
346.24119647
 30
0.0
  0
VERTEX
  8
0
 10
113.222049786
 20
346.24119647
 30
0.0
  0
VERTEX
  8
0
 10
113.172049786
 20
346.24119647
 30
0.0
  0
VERTEX
  8
0
 10
113.122049786
 20
346.24119647
 30
0.0
  0
VERTEX
  8
0
 10
113.072049786
 20
346.24119647
 30
0.0
  0
VERTEX
  8
0
 10
113.022049786
 20
346.24119647
 30
0.0
  0
VERTEX
  8
0
 10
112.972049786
 20
346.24119647
 30
0.0
  0
VERTEX
  8
0
 10
112.922049786
 20
346.24119647
 30
0.0
  0
VERTEX
  8
0
 10
112.872049786
 20
346.24119647
 30
0.0
  0
VERTEX
  8
0
 10
112.822049786
 20
346.24119647
 30
0.0
  0
VERTEX
  8
0
 10
112.772049786
 20
346.24119647
 30
0.0
  0
VERTEX
  8
0
 10
112.722049786
 20
346.24119647
 30
0.0
  0
VERTEX
  8
0
 10
112.672049786
 20
346.24119647
 30
0.0
  0
VERTEX
  8
0
 10
112.622049786
 20
346.24119647
 30
0.0
  0
VERTEX
  8
0
 10
112.572049786
 20
346.24119647
 30
0.0
  0
VERTEX
  8
0
 10
112.522049786
 20
346.24119647
 30
0.0
  0
VERTEX
  8
0
 10
112.472049786
 20
346.24119647
 30
0.0
  0
VERTEX
  8
0
 10
112.422049786
 20
346.24119647
 30
0.0
  0
VERTEX
  8
0
 10
112.372049786
 20
346.24119647
 30
0.0
  0
VERTEX
  8
0
 10
112.322049786
 20
346.24119647
 30
0.0
  0
VERTEX
  8
0
 10
112.272049786
 20
346.24119647
 30
0.0
  0
VERTEX
  8
0
 10
112.222049786
 20
346.24119647
 30
0.0
  0
VERTEX
  8
0
 10
112.172049786
 20
346.24119647
 30
0.0
  0
VERTEX
  8
0
 10
112.122049786
 20
346.24119647
 30
0.0
  0
VERTEX
  8
0
 10
112.072049786
 20
346.24119647
 30
0.0
  0
VERTEX
  8
0
 10
112.022049786
 20
346.24119647
 30
0.0
  0
VERTEX
  8
0
 10
111.972049786
 20
346.24119647
 30
0.0
  0
VERTEX
  8
0
 10
111.922049786
 20
346.24119647
 30
0.0
  0
VERTEX
  8
0
 10
111.872049786
 20
346.24119647
 30
0.0
  0
VERTEX
  8
0
 10
111.822049786
 20
346.24119647
 30
0.0
  0
VERTEX
  8
0
 10
111.772049786
 20
346.24119647
 30
0.0
  0
VERTEX
  8
0
 10
111.722049786
 20
346.24119647
 30
0.0
  0
VERTEX
  8
0
 10
111.672049786
 20
346.24119647
 30
0.0
  0
VERTEX
  8
0
 10
111.622049786
 20
346.24119647
 30
0.0
  0
VERTEX
  8
0
 10
111.572049786
 20
346.24119647
 30
0.0
  0
VERTEX
  8
0
 10
111.522049786
 20
346.24119647
 30
0.0
  0
VERTEX
  8
0
 10
111.472049786
 20
346.24119647
 30
0.0
  0
VERTEX
  8
0
 10
111.422049786
 20
346.24119647
 30
0.0
  0
VERTEX
  8
0
 10
111.372049786
 20
346.24119647
 30
0.0
  0
VERTEX
  8
0
 10
111.322049786
 20
346.24119647
 30
0.0
  0
VERTEX
  8
0
 10
111.272049786
 20
346.24119647
 30
0.0
  0
VERTEX
  8
0
 10
111.222049786
 20
346.24119647
 30
0.0
  0
VERTEX
  8
0
 10
111.172049786
 20
346.24119647
 30
0.0
  0
VERTEX
  8
0
 10
111.122049786
 20
346.24119647
 30
0.0
  0
VERTEX
  8
0
 10
111.072049786
 20
346.24119647
 30
0.0
  0
VERTEX
  8
0
 10
111.022049786
 20
346.24119647
 30
0.0
  0
VERTEX
  8
0
 10
110.972049786
 20
346.24119647
 30
0.0
  0
VERTEX
  8
0
 10
110.922049786
 20
346.24119647
 30
0.0
  0
VERTEX
  8
0
 10
110.872049786
 20
346.24119647
 30
0.0
  0
VERTEX
  8
0
 10
110.822049786
 20
346.24119647
 30
0.0
  0
VERTEX
  8
0
 10
110.772049786
 20
346.24119647
 30
0.0
  0
VERTEX
  8
0
 10
110.722049786
 20
346.24119647
 30
0.0
  0
VERTEX
  8
0
 10
110.672049786
 20
346.24119647
 30
0.0
  0
VERTEX
  8
0
 10
110.622049786
 20
346.24119647
 30
0.0
  0
VERTEX
  8
0
 10
110.572049786
 20
346.24119647
 30
0.0
  0
VERTEX
  8
0
 10
110.522049786
 20
346.24119647
 30
0.0
  0
VERTEX
  8
0
 10
110.472049786
 20
346.24119647
 30
0.0
  0
VERTEX
  8
0
 10
110.422049786
 20
346.24119647
 30
0.0
  0
VERTEX
  8
0
 10
110.372049786
 20
346.24119647
 30
0.0
  0
VERTEX
  8
0
 10
110.322049786
 20
346.24119647
 30
0.0
  0
VERTEX
  8
0
 10
110.272049786
 20
346.24119647
 30
0.0
  0
VERTEX
  8
0
 10
110.222049786
 20
346.24119647
 30
0.0
  0
VERTEX
  8
0
 10
110.172049786
 20
346.24119647
 30
0.0
  0
VERTEX
  8
0
 10
110.122049786
 20
346.24119647
 30
0.0
  0
VERTEX
  8
0
 10
110.072049786
 20
346.24119647
 30
0.0
  0
VERTEX
  8
0
 10
110.022049786
 20
346.24119647
 30
0.0
  0
VERTEX
  8
0
 10
109.972049786
 20
346.24119647
 30
0.0
  0
VERTEX
  8
0
 10
109.922049786
 20
346.24119647
 30
0.0
  0
VERTEX
  8
0
 10
109.872049786
 20
346.24119647
 30
0.0
  0
VERTEX
  8
0
 10
109.822049786
 20
346.24119647
 30
0.0
  0
VERTEX
  8
0
 10
109.772049786
 20
346.24119647
 30
0.0
  0
VERTEX
  8
0
 10
109.722049786
 20
346.24119647
 30
0.0
  0
VERTEX
  8
0
 10
109.672049786
 20
346.24119647
 30
0.0
  0
VERTEX
  8
0
 10
109.622049786
 20
346.24119647
 30
0.0
  0
VERTEX
  8
0
 10
109.572049786
 20
346.24119647
 30
0.0
  0
VERTEX
  8
0
 10
109.522049786
 20
346.24119647
 30
0.0
  0
VERTEX
  8
0
 10
109.472049786
 20
346.24119647
 30
0.0
  0
VERTEX
  8
0
 10
109.422049786
 20
346.24119647
 30
0.0
  0
VERTEX
  8
0
 10
109.372049786
 20
346.24119647
 30
0.0
  0
VERTEX
  8
0
 10
109.322049786
 20
346.24119647
 30
0.0
  0
VERTEX
  8
0
 10
109.272049786
 20
346.24119647
 30
0.0
  0
VERTEX
  8
0
 10
109.222049786
 20
346.24119647
 30
0.0
  0
VERTEX
  8
0
 10
109.172049786
 20
346.24119647
 30
0.0
  0
VERTEX
  8
0
 10
109.122049786
 20
346.24119647
 30
0.0
  0
VERTEX
  8
0
 10
109.072049786
 20
346.24119647
 30
0.0
  0
VERTEX
  8
0
 10
109.022049786
 20
346.24119647
 30
0.0
  0
VERTEX
  8
0
 10
108.972049786
 20
346.24119647
 30
0.0
  0
VERTEX
  8
0
 10
108.922049786
 20
346.24119647
 30
0.0
  0
VERTEX
  8
0
 10
108.872049786
 20
346.24119647
 30
0.0
  0
VERTEX
  8
0
 10
108.822049786
 20
346.24119647
 30
0.0
  0
VERTEX
  8
0
 10
108.772049786
 20
346.24119647
 30
0.0
  0
VERTEX
  8
0
 10
108.722049786
 20
346.24119647
 30
0.0
  0
VERTEX
  8
0
 10
108.672049786
 20
346.24119647
 30
0.0
  0
VERTEX
  8
0
 10
108.622049786
 20
346.24119647
 30
0.0
  0
VERTEX
  8
0
 10
108.572049786
 20
346.24119647
 30
0.0
  0
VERTEX
  8
0
 10
108.522049786
 20
346.24119647
 30
0.0
  0
VERTEX
  8
0
 10
108.472049786
 20
346.24119647
 30
0.0
  0
VERTEX
  8
0
 10
108.422049786
 20
346.24119647
 30
0.0
  0
VERTEX
  8
0
 10
108.372049786
 20
346.24119647
 30
0.0
  0
VERTEX
  8
0
 10
108.322049786
 20
346.24119647
 30
0.0
  0
VERTEX
  8
0
 10
108.272049786
 20
346.24119647
 30
0.0
  0
VERTEX
  8
0
 10
108.222049786
 20
346.24119647
 30
0.0
  0
VERTEX
  8
0
 10
108.172049786
 20
346.24119647
 30
0.0
  0
VERTEX
  8
0
 10
108.122049786
 20
346.24119647
 30
0.0
  0
VERTEX
  8
0
 10
108.072049786
 20
346.24119647
 30
0.0
  0
VERTEX
  8
0
 10
108.022049786
 20
346.24119647
 30
0.0
  0
VERTEX
  8
0
 10
107.972049786
 20
346.24119647
 30
0.0
  0
VERTEX
  8
0
 10
107.922049786
 20
346.24119647
 30
0.0
  0
VERTEX
  8
0
 10
107.872049786
 20
346.24119647
 30
0.0
  0
VERTEX
  8
0
 10
107.822049786
 20
346.24119647
 30
0.0
  0
VERTEX
  8
0
 10
107.772049786
 20
346.24119647
 30
0.0
  0
VERTEX
  8
0
 10
107.722049786
 20
346.24119647
 30
0.0
  0
VERTEX
  8
0
 10
107.672049786
 20
346.24119647
 30
0.0
  0
VERTEX
  8
0
 10
107.622049786
 20
346.24119647
 30
0.0
  0
VERTEX
  8
0
 10
107.572049786
 20
346.24119647
 30
0.0
  0
VERTEX
  8
0
 10
107.522049786
 20
346.24119647
 30
0.0
  0
VERTEX
  8
0
 10
107.472049786
 20
346.24119647
 30
0.0
  0
VERTEX
  8
0
 10
107.422049786
 20
346.24119647
 30
0.0
  0
VERTEX
  8
0
 10
107.372049786
 20
346.24119647
 30
0.0
  0
VERTEX
  8
0
 10
107.322049786
 20
346.24119647
 30
0.0
  0
VERTEX
  8
0
 10
107.272049786
 20
346.24119647
 30
0.0
  0
VERTEX
  8
0
 10
107.222049786
 20
346.24119647
 30
0.0
  0
VERTEX
  8
0
 10
107.172049786
 20
346.24119647
 30
0.0
  0
VERTEX
  8
0
 10
107.122049786
 20
346.24119647
 30
0.0
  0
VERTEX
  8
0
 10
107.076115628
 20
346.24119647
 30
0.0
  0
SEQEND
  8
0
  0
POLYLINE
  8
0
 62
0
 70
0
 66
1
 10
0.0
 20
0.0
 30
0.0
  0
VERTEX
  8
0
 10
107.076115628
 20
346.24119647
 30
0.0
  0
VERTEX
  8
0
 10
107.076115628
 20
346.19119647
 30
0.0
  0
VERTEX
  8
0
 10
107.076115628
 20
346.14119647
 30
0.0
  0
VERTEX
  8
0
 10
107.076115628
 20
346.09119647
 30
0.0
  0
VERTEX
  8
0
 10
107.076115628
 20
346.04119647
 30
0.0
  0
VERTEX
  8
0
 10
107.076115628
 20
345.99119647
 30
0.0
  0
VERTEX
  8
0
 10
107.076115628
 20
345.94119647
 30
0.0
  0
VERTEX
  8
0
 10
107.076115628
 20
345.89119647
 30
0.0
  0
VERTEX
  8
0
 10
107.076115628
 20
345.84119647
 30
0.0
  0
VERTEX
  8
0
 10
107.076115628
 20
345.79119647
 30
0.0
  0
VERTEX
  8
0
 10
107.076115628
 20
345.74119647
 30
0.0
  0
VERTEX
  8
0
 10
107.076115628
 20
345.69119647
 30
0.0
  0
VERTEX
  8
0
 10
107.076115628
 20
345.64119647
 30
0.0
  0
VERTEX
  8
0
 10
107.076115628
 20
345.59119647
 30
0.0
  0
VERTEX
  8
0
 10
107.076115628
 20
345.54119647
 30
0.0
  0
VERTEX
  8
0
 10
107.076115628
 20
345.49119647
 30
0.0
  0
VERTEX
  8
0
 10
107.076115628
 20
345.44119647
 30
0.0
  0
VERTEX
  8
0
 10
107.076115628
 20
345.39119647
 30
0.0
  0
VERTEX
  8
0
 10
107.076115628
 20
345.34119647
 30
0.0
  0
VERTEX
  8
0
 10
107.076115628
 20
345.29119647
 30
0.0
  0
VERTEX
  8
0
 10
107.076115628
 20
345.24119647
 30
0.0
  0
VERTEX
  8
0
 10
107.076115628
 20
345.19119647
 30
0.0
  0
VERTEX
  8
0
 10
107.076115628
 20
345.14119647
 30
0.0
  0
VERTEX
  8
0
 10
107.076115628
 20
345.09119647
 30
0.0
  0
VERTEX
  8
0
 10
107.076115628
 20
345.04119647
 30
0.0
  0
VERTEX
  8
0
 10
107.076115628
 20
344.99119647
 30
0.0
  0
VERTEX
  8
0
 10
107.076115628
 20
344.94119647
 30
0.0
  0
VERTEX
  8
0
 10
107.076115628
 20
344.89119647
 30
0.0
  0
VERTEX
  8
0
 10
107.076115628
 20
344.84119647
 30
0.0
  0
VERTEX
  8
0
 10
107.076115628
 20
344.79119647
 30
0.0
  0
VERTEX
  8
0
 10
107.076115628
 20
344.74119647
 30
0.0
  0
VERTEX
  8
0
 10
107.076115628
 20
344.69119647
 30
0.0
  0
VERTEX
  8
0
 10
107.076115628
 20
344.64119647
 30
0.0
  0
VERTEX
  8
0
 10
107.076115628
 20
344.59119647
 30
0.0
  0
VERTEX
  8
0
 10
107.076115628
 20
344.54119647
 30
0.0
  0
VERTEX
  8
0
 10
107.076115628
 20
344.49119647
 30
0.0
  0
VERTEX
  8
0
 10
107.076115628
 20
344.44119647
 30
0.0
  0
VERTEX
  8
0
 10
107.076115628
 20
344.39119647
 30
0.0
  0
VERTEX
  8
0
 10
107.076115628
 20
344.34119647
 30
0.0
  0
VERTEX
  8
0
 10
107.076115628
 20
344.29119647
 30
0.0
  0
VERTEX
  8
0
 10
107.076115628
 20
344.24119647
 30
0.0
  0
VERTEX
  8
0
 10
107.076115628
 20
344.19119647
 30
0.0
  0
VERTEX
  8
0
 10
107.076115628
 20
344.14119647
 30
0.0
  0
VERTEX
  8
0
 10
107.076115628
 20
344.09119647
 30
0.0
  0
VERTEX
  8
0
 10
107.076115628
 20
344.04119647
 30
0.0
  0
VERTEX
  8
0
 10
107.076115628
 20
343.99119647
 30
0.0
  0
VERTEX
  8
0
 10
107.076115628
 20
343.94119647
 30
0.0
  0
VERTEX
  8
0
 10
107.076115628
 20
343.89119647
 30
0.0
  0
VERTEX
  8
0
 10
107.076115628
 20
343.84119647
 30
0.0
  0
VERTEX
  8
0
 10
107.076115628
 20
343.79119647
 30
0.0
  0
VERTEX
  8
0
 10
107.076115628
 20
343.74119647
 30
0.0
  0
VERTEX
  8
0
 10
107.076115628
 20
343.69119647
 30
0.0
  0
VERTEX
  8
0
 10
107.076115628
 20
343.64119647
 30
0.0
  0
VERTEX
  8
0
 10
107.076115628
 20
343.59119647
 30
0.0
  0
VERTEX
  8
0
 10
107.076115628
 20
343.54119647
 30
0.0
  0
VERTEX
  8
0
 10
107.076115628
 20
343.49119647
 30
0.0
  0
VERTEX
  8
0
 10
107.076115628
 20
343.44119647
 30
0.0
  0
VERTEX
  8
0
 10
107.076115628
 20
343.39119647
 30
0.0
  0
VERTEX
  8
0
 10
107.076115628
 20
343.34119647
 30
0.0
  0
VERTEX
  8
0
 10
107.076115628
 20
343.29119647
 30
0.0
  0
VERTEX
  8
0
 10
107.076115628
 20
343.24119647
 30
0.0
  0
VERTEX
  8
0
 10
107.076115628
 20
343.19119647
 30
0.0
  0
VERTEX
  8
0
 10
107.076115628
 20
343.14119647
 30
0.0
  0
VERTEX
  8
0
 10
107.076115628
 20
343.09119647
 30
0.0
  0
VERTEX
  8
0
 10
107.076115628
 20
343.04119647
 30
0.0
  0
VERTEX
  8
0
 10
107.076115628
 20
342.99119647
 30
0.0
  0
VERTEX
  8
0
 10
107.076115628
 20
342.94119647
 30
0.0
  0
VERTEX
  8
0
 10
107.076115628
 20
342.89119647
 30
0.0
  0
VERTEX
  8
0
 10
107.076115628
 20
342.84119647
 30
0.0
  0
VERTEX
  8
0
 10
107.076115628
 20
342.79119647
 30
0.0
  0
VERTEX
  8
0
 10
107.076115628
 20
342.74119647
 30
0.0
  0
VERTEX
  8
0
 10
107.076115628
 20
342.69119647
 30
0.0
  0
VERTEX
  8
0
 10
107.076115628
 20
342.64119647
 30
0.0
  0
VERTEX
  8
0
 10
107.076115628
 20
342.59119647
 30
0.0
  0
VERTEX
  8
0
 10
107.076115628
 20
342.54119647
 30
0.0
  0
VERTEX
  8
0
 10
107.076115628
 20
342.49119647
 30
0.0
  0
VERTEX
  8
0
 10
107.076115628
 20
342.44119647
 30
0.0
  0
VERTEX
  8
0
 10
107.076115628
 20
342.39119647
 30
0.0
  0
VERTEX
  8
0
 10
107.076115628
 20
342.34119647
 30
0.0
  0
VERTEX
  8
0
 10
107.076115628
 20
342.29119647
 30
0.0
  0
VERTEX
  8
0
 10
107.076115628
 20
342.24119647
 30
0.0
  0
VERTEX
  8
0
 10
107.076115628
 20
342.19119647
 30
0.0
  0
VERTEX
  8
0
 10
107.076115628
 20
342.14119647
 30
0.0
  0
VERTEX
  8
0
 10
107.076115628
 20
342.09119647
 30
0.0
  0
VERTEX
  8
0
 10
107.076115628
 20
342.04119647
 30
0.0
  0
VERTEX
  8
0
 10
107.076115628
 20
341.99119647
 30
0.0
  0
VERTEX
  8
0
 10
107.076115628
 20
341.94119647
 30
0.0
  0
VERTEX
  8
0
 10
107.076115628
 20
341.89119647
 30
0.0
  0
VERTEX
  8
0
 10
107.076115628
 20
341.84119647
 30
0.0
  0
VERTEX
  8
0
 10
107.076115628
 20
341.79119647
 30
0.0
  0
VERTEX
  8
0
 10
107.076115628
 20
341.74119647
 30
0.0
  0
VERTEX
  8
0
 10
107.076115628
 20
341.69119647
 30
0.0
  0
VERTEX
  8
0
 10
107.076115628
 20
341.64119647
 30
0.0
  0
VERTEX
  8
0
 10
107.076115628
 20
341.59119647
 30
0.0
  0
VERTEX
  8
0
 10
107.076115628
 20
341.54119647
 30
0.0
  0
VERTEX
  8
0
 10
107.076115628
 20
341.49119647
 30
0.0
  0
VERTEX
  8
0
 10
107.076115628
 20
341.44119647
 30
0.0
  0
VERTEX
  8
0
 10
107.076115628
 20
341.39119647
 30
0.0
  0
VERTEX
  8
0
 10
107.076115628
 20
341.34119647
 30
0.0
  0
VERTEX
  8
0
 10
107.076115628
 20
341.29119647
 30
0.0
  0
VERTEX
  8
0
 10
107.076115628
 20
341.24119647
 30
0.0
  0
VERTEX
  8
0
 10
107.076115628
 20
341.19119647
 30
0.0
  0
VERTEX
  8
0
 10
107.076115628
 20
341.14119647
 30
0.0
  0
VERTEX
  8
0
 10
107.076115628
 20
341.09119647
 30
0.0
  0
VERTEX
  8
0
 10
107.076115628
 20
341.04119647
 30
0.0
  0
VERTEX
  8
0
 10
107.076115628
 20
340.99119647
 30
0.0
  0
VERTEX
  8
0
 10
107.076115628
 20
340.94119647
 30
0.0
  0
VERTEX
  8
0
 10
107.076115628
 20
340.89119647
 30
0.0
  0
VERTEX
  8
0
 10
107.076115628
 20
340.84119647
 30
0.0
  0
VERTEX
  8
0
 10
107.076115628
 20
340.79119647
 30
0.0
  0
VERTEX
  8
0
 10
107.076115628
 20
340.74119647
 30
0.0
  0
VERTEX
  8
0
 10
107.076115628
 20
340.69119647
 30
0.0
  0
VERTEX
  8
0
 10
107.076115628
 20
340.64119647
 30
0.0
  0
VERTEX
  8
0
 10
107.076115628
 20
340.59119647
 30
0.0
  0
VERTEX
  8
0
 10
107.076115628
 20
340.54119647
 30
0.0
  0
VERTEX
  8
0
 10
107.076115628
 20
340.49119647
 30
0.0
  0
VERTEX
  8
0
 10
107.076115628
 20
340.44119647
 30
0.0
  0
VERTEX
  8
0
 10
107.076115628
 20
340.39119647
 30
0.0
  0
VERTEX
  8
0
 10
107.076115628
 20
340.34119647
 30
0.0
  0
VERTEX
  8
0
 10
107.076115628
 20
340.29119647
 30
0.0
  0
VERTEX
  8
0
 10
107.076115628
 20
340.24119647
 30
0.0
  0
VERTEX
  8
0
 10
107.076115628
 20
340.19119647
 30
0.0
  0
VERTEX
  8
0
 10
107.076115628
 20
340.14119647
 30
0.0
  0
VERTEX
  8
0
 10
107.076115628
 20
340.09119647
 30
0.0
  0
VERTEX
  8
0
 10
107.076115628
 20
340.04119647
 30
0.0
  0
VERTEX
  8
0
 10
107.076115628
 20
339.99119647
 30
0.0
  0
VERTEX
  8
0
 10
107.076115628
 20
339.94119647
 30
0.0
  0
VERTEX
  8
0
 10
107.076115628
 20
339.89119647
 30
0.0
  0
VERTEX
  8
0
 10
107.076115628
 20
339.84119647
 30
0.0
  0
VERTEX
  8
0
 10
107.076115628
 20
339.79119647
 30
0.0
  0
VERTEX
  8
0
 10
107.076115628
 20
339.74119647
 30
0.0
  0
VERTEX
  8
0
 10
107.076115628
 20
339.69119647
 30
0.0
  0
VERTEX
  8
0
 10
107.076115628
 20
339.64119647
 30
0.0
  0
VERTEX
  8
0
 10
107.076115628
 20
339.59119647
 30
0.0
  0
VERTEX
  8
0
 10
107.076115628
 20
339.54119647
 30
0.0
  0
VERTEX
  8
0
 10
107.076115628
 20
339.49119647
 30
0.0
  0
VERTEX
  8
0
 10
107.076115628
 20
339.44119647
 30
0.0
  0
VERTEX
  8
0
 10
107.076115628
 20
339.39119647
 30
0.0
  0
VERTEX
  8
0
 10
107.076115628
 20
339.34119647
 30
0.0
  0
VERTEX
  8
0
 10
107.076115628
 20
339.29119647
 30
0.0
  0
VERTEX
  8
0
 10
107.076115628
 20
339.24119647
 30
0.0
  0
VERTEX
  8
0
 10
107.076115628
 20
339.19119647
 30
0.0
  0
VERTEX
  8
0
 10
107.076115628
 20
339.14119647
 30
0.0
  0
VERTEX
  8
0
 10
107.076115628
 20
339.09119647
 30
0.0
  0
VERTEX
  8
0
 10
107.076115628
 20
339.04119647
 30
0.0
  0
VERTEX
  8
0
 10
107.076115628
 20
338.99119647
 30
0.0
  0
VERTEX
  8
0
 10
107.076115628
 20
338.94119647
 30
0.0
  0
VERTEX
  8
0
 10
107.076115628
 20
338.89119647
 30
0.0
  0
VERTEX
  8
0
 10
107.076115628
 20
338.84119647
 30
0.0
  0
VERTEX
  8
0
 10
107.076115628
 20
338.79119647
 30
0.0
  0
VERTEX
  8
0
 10
107.076115628
 20
338.74119647
 30
0.0
  0
VERTEX
  8
0
 10
107.076115628
 20
338.69119647
 30
0.0
  0
VERTEX
  8
0
 10
107.076115628
 20
338.64119647
 30
0.0
  0
VERTEX
  8
0
 10
107.076115628
 20
338.59119647
 30
0.0
  0
VERTEX
  8
0
 10
107.076115628
 20
338.54119647
 30
0.0
  0
VERTEX
  8
0
 10
107.076115628
 20
338.49119647
 30
0.0
  0
VERTEX
  8
0
 10
107.076115628
 20
338.44119647
 30
0.0
  0
VERTEX
  8
0
 10
107.076115628
 20
338.39119647
 30
0.0
  0
VERTEX
  8
0
 10
107.076115628
 20
338.34119647
 30
0.0
  0
VERTEX
  8
0
 10
107.076115628
 20
338.29119647
 30
0.0
  0
VERTEX
  8
0
 10
107.076115628
 20
338.24119647
 30
0.0
  0
VERTEX
  8
0
 10
107.076115628
 20
338.19119647
 30
0.0
  0
VERTEX
  8
0
 10
107.076115628
 20
338.14119647
 30
0.0
  0
VERTEX
  8
0
 10
107.076115628
 20
338.09119647
 30
0.0
  0
VERTEX
  8
0
 10
107.076115628
 20
338.04119647
 30
0.0
  0
VERTEX
  8
0
 10
107.076115628
 20
337.99119647
 30
0.0
  0
VERTEX
  8
0
 10
107.076115628
 20
337.94119647
 30
0.0
  0
VERTEX
  8
0
 10
107.076115628
 20
337.89119647
 30
0.0
  0
VERTEX
  8
0
 10
107.076115628
 20
337.84119647
 30
0.0
  0
VERTEX
  8
0
 10
107.076115628
 20
337.79119647
 30
0.0
  0
VERTEX
  8
0
 10
107.076115628
 20
337.74119647
 30
0.0
  0
VERTEX
  8
0
 10
107.076115628
 20
337.69119647
 30
0.0
  0
VERTEX
  8
0
 10
107.076115628
 20
337.64119647
 30
0.0
  0
VERTEX
  8
0
 10
107.076115628
 20
337.59119647
 30
0.0
  0
VERTEX
  8
0
 10
107.076115628
 20
337.54119647
 30
0.0
  0
VERTEX
  8
0
 10
107.076115628
 20
337.49119647
 30
0.0
  0
VERTEX
  8
0
 10
107.076115628
 20
337.44119647
 30
0.0
  0
VERTEX
  8
0
 10
107.076115628
 20
337.39119647
 30
0.0
  0
VERTEX
  8
0
 10
107.076115628
 20
337.34119647
 30
0.0
  0
VERTEX
  8
0
 10
107.076115628
 20
337.29119647
 30
0.0
  0
VERTEX
  8
0
 10
107.076115628
 20
337.24119647
 30
0.0
  0
VERTEX
  8
0
 10
107.076115628
 20
337.19119647
 30
0.0
  0
VERTEX
  8
0
 10
107.076115628
 20
337.14119647
 30
0.0
  0
VERTEX
  8
0
 10
107.076115628
 20
337.09119647
 30
0.0
  0
VERTEX
  8
0
 10
107.076115628
 20
337.04119647
 30
0.0
  0
VERTEX
  8
0
 10
107.076115628
 20
336.99119647
 30
0.0
  0
VERTEX
  8
0
 10
107.076115628
 20
336.94119647
 30
0.0
  0
VERTEX
  8
0
 10
107.076115628
 20
336.89119647
 30
0.0
  0
VERTEX
  8
0
 10
107.076115628
 20
336.84119647
 30
0.0
  0
VERTEX
  8
0
 10
107.076115628
 20
336.79119647
 30
0.0
  0
VERTEX
  8
0
 10
107.076115628
 20
336.74119647
 30
0.0
  0
VERTEX
  8
0
 10
107.076115628
 20
336.69119647
 30
0.0
  0
VERTEX
  8
0
 10
107.076115628
 20
336.64119647
 30
0.0
  0
VERTEX
  8
0
 10
107.076115628
 20
336.59119647
 30
0.0
  0
VERTEX
  8
0
 10
107.076115628
 20
336.54119647
 30
0.0
  0
VERTEX
  8
0
 10
107.076115628
 20
336.49119647
 30
0.0
  0
VERTEX
  8
0
 10
107.076115628
 20
336.44119647
 30
0.0
  0
VERTEX
  8
0
 10
107.076115628
 20
336.39119647
 30
0.0
  0
VERTEX
  8
0
 10
107.076115628
 20
336.34119647
 30
0.0
  0
VERTEX
  8
0
 10
107.076115628
 20
336.29119647
 30
0.0
  0
VERTEX
  8
0
 10
107.076115628
 20
336.24119647
 30
0.0
  0
VERTEX
  8
0
 10
107.076115628
 20
336.19119647
 30
0.0
  0
VERTEX
  8
0
 10
107.076115628
 20
336.14119647
 30
0.0
  0
VERTEX
  8
0
 10
107.076115628
 20
336.09119647
 30
0.0
  0
VERTEX
  8
0
 10
107.076115628
 20
336.04119647
 30
0.0
  0
VERTEX
  8
0
 10
107.076115628
 20
335.99119647
 30
0.0
  0
VERTEX
  8
0
 10
107.076115628
 20
335.94119647
 30
0.0
  0
VERTEX
  8
0
 10
107.076115628
 20
335.89119647
 30
0.0
  0
VERTEX
  8
0
 10
107.076115628
 20
335.84119647
 30
0.0
  0
VERTEX
  8
0
 10
107.076115628
 20
335.79119647
 30
0.0
  0
VERTEX
  8
0
 10
107.076115628
 20
335.74119647
 30
0.0
  0
VERTEX
  8
0
 10
107.076115628
 20
335.69119647
 30
0.0
  0
VERTEX
  8
0
 10
107.076115628
 20
335.64119647
 30
0.0
  0
VERTEX
  8
0
 10
107.076115628
 20
335.59119647
 30
0.0
  0
VERTEX
  8
0
 10
107.076115628
 20
335.54119647
 30
0.0
  0
VERTEX
  8
0
 10
107.076115628
 20
335.49119647
 30
0.0
  0
VERTEX
  8
0
 10
107.076115628
 20
335.44119647
 30
0.0
  0
VERTEX
  8
0
 10
107.076115628
 20
335.39119647
 30
0.0
  0
VERTEX
  8
0
 10
107.076115628
 20
335.34119647
 30
0.0
  0
VERTEX
  8
0
 10
107.076115628
 20
335.29119647
 30
0.0
  0
VERTEX
  8
0
 10
107.076115628
 20
335.24119647
 30
0.0
  0
VERTEX
  8
0
 10
107.076115628
 20
335.19119647
 30
0.0
  0
VERTEX
  8
0
 10
107.076115628
 20
335.14119647
 30
0.0
  0
VERTEX
  8
0
 10
107.076115628
 20
335.09119647
 30
0.0
  0
VERTEX
  8
0
 10
107.076115628
 20
335.04119647
 30
0.0
  0
VERTEX
  8
0
 10
107.076115628
 20
334.99119647
 30
0.0
  0
VERTEX
  8
0
 10
107.076115628
 20
334.94119647
 30
0.0
  0
VERTEX
  8
0
 10
107.076115628
 20
334.89119647
 30
0.0
  0
VERTEX
  8
0
 10
107.076115628
 20
334.84119647
 30
0.0
  0
VERTEX
  8
0
 10
107.076115628
 20
334.79119647
 30
0.0
  0
VERTEX
  8
0
 10
107.076115628
 20
334.74119647
 30
0.0
  0
VERTEX
  8
0
 10
107.076115628
 20
334.69119647
 30
0.0
  0
VERTEX
  8
0
 10
107.076115628
 20
334.64119647
 30
0.0
  0
VERTEX
  8
0
 10
107.076115628
 20
334.59119647
 30
0.0
  0
VERTEX
  8
0
 10
107.076115628
 20
334.54119647
 30
0.0
  0
VERTEX
  8
0
 10
107.076115628
 20
334.49119647
 30
0.0
  0
VERTEX
  8
0
 10
107.076115628
 20
334.44119647
 30
0.0
  0
VERTEX
  8
0
 10
107.076115628
 20
334.39119647
 30
0.0
  0
VERTEX
  8
0
 10
107.076115628
 20
334.34119647
 30
0.0
  0
VERTEX
  8
0
 10
107.076115628
 20
334.29119647
 30
0.0
  0
VERTEX
  8
0
 10
107.076115628
 20
334.24119647
 30
0.0
  0
VERTEX
  8
0
 10
107.076115628
 20
334.19119647
 30
0.0
  0
VERTEX
  8
0
 10
107.076115628
 20
334.14119647
 30
0.0
  0
VERTEX
  8
0
 10
107.076115628
 20
334.09119647
 30
0.0
  0
VERTEX
  8
0
 10
107.076115628
 20
334.04119647
 30
0.0
  0
VERTEX
  8
0
 10
107.076115628
 20
333.99119647
 30
0.0
  0
VERTEX
  8
0
 10
107.076115628
 20
333.94119647
 30
0.0
  0
VERTEX
  8
0
 10
107.076115628
 20
333.89119647
 30
0.0
  0
VERTEX
  8
0
 10
107.076115628
 20
333.84119647
 30
0.0
  0
VERTEX
  8
0
 10
107.076115628
 20
333.79119647
 30
0.0
  0
VERTEX
  8
0
 10
107.076115628
 20
333.74119647
 30
0.0
  0
VERTEX
  8
0
 10
107.076115628
 20
333.69119647
 30
0.0
  0
VERTEX
  8
0
 10
107.076115628
 20
333.64119647
 30
0.0
  0
VERTEX
  8
0
 10
107.076115628
 20
333.59119647
 30
0.0
  0
VERTEX
  8
0
 10
107.076115628
 20
333.54119647
 30
0.0
  0
VERTEX
  8
0
 10
107.076115628
 20
333.49119647
 30
0.0
  0
VERTEX
  8
0
 10
107.076115628
 20
333.44119647
 30
0.0
  0
VERTEX
  8
0
 10
107.076115628
 20
333.39119647
 30
0.0
  0
VERTEX
  8
0
 10
107.076115628
 20
333.34119647
 30
0.0
  0
VERTEX
  8
0
 10
107.076115628
 20
333.29119647
 30
0.0
  0
VERTEX
  8
0
 10
107.076115628
 20
333.24119647
 30
0.0
  0
VERTEX
  8
0
 10
107.076115628
 20
333.19119647
 30
0.0
  0
VERTEX
  8
0
 10
107.076115628
 20
333.14119647
 30
0.0
  0
VERTEX
  8
0
 10
107.076115628
 20
333.09119647
 30
0.0
  0
VERTEX
  8
0
 10
107.076115628
 20
333.04119647
 30
0.0
  0
VERTEX
  8
0
 10
107.076115628
 20
332.99119647
 30
0.0
  0
VERTEX
  8
0
 10
107.076115628
 20
332.94119647
 30
0.0
  0
VERTEX
  8
0
 10
107.076115628
 20
332.89119647
 30
0.0
  0
VERTEX
  8
0
 10
107.076115628
 20
332.84119647
 30
0.0
  0
VERTEX
  8
0
 10
107.076115628
 20
332.79119647
 30
0.0
  0
VERTEX
  8
0
 10
107.076115628
 20
332.74119647
 30
0.0
  0
VERTEX
  8
0
 10
107.076115628
 20
332.69119647
 30
0.0
  0
VERTEX
  8
0
 10
107.076115628
 20
332.64119647
 30
0.0
  0
VERTEX
  8
0
 10
107.076115628
 20
332.59119647
 30
0.0
  0
VERTEX
  8
0
 10
107.076115628
 20
332.54119647
 30
0.0
  0
VERTEX
  8
0
 10
107.076115628
 20
332.49119647
 30
0.0
  0
VERTEX
  8
0
 10
107.076115628
 20
332.44119647
 30
0.0
  0
VERTEX
  8
0
 10
107.076115628
 20
332.39119647
 30
0.0
  0
VERTEX
  8
0
 10
107.076115628
 20
332.34119647
 30
0.0
  0
VERTEX
  8
0
 10
107.076115628
 20
332.29119647
 30
0.0
  0
VERTEX
  8
0
 10
107.076115628
 20
332.24119647
 30
0.0
  0
VERTEX
  8
0
 10
107.076115628
 20
332.19119647
 30
0.0
  0
VERTEX
  8
0
 10
107.076115628
 20
332.14119647
 30
0.0
  0
VERTEX
  8
0
 10
107.076115628
 20
332.09119647
 30
0.0
  0
VERTEX
  8
0
 10
107.076115628
 20
332.04119647
 30
0.0
  0
VERTEX
  8
0
 10
107.076115628
 20
331.99119647
 30
0.0
  0
VERTEX
  8
0
 10
107.076115628
 20
331.94119647
 30
0.0
  0
VERTEX
  8
0
 10
107.076115628
 20
331.89119647
 30
0.0
  0
VERTEX
  8
0
 10
107.076115628
 20
331.84119647
 30
0.0
  0
VERTEX
  8
0
 10
107.076115628
 20
331.79119647
 30
0.0
  0
VERTEX
  8
0
 10
107.076115628
 20
331.74119647
 30
0.0
  0
VERTEX
  8
0
 10
107.076115628
 20
331.69119647
 30
0.0
  0
VERTEX
  8
0
 10
107.076115628
 20
331.64119647
 30
0.0
  0
VERTEX
  8
0
 10
107.076115628
 20
331.59119647
 30
0.0
  0
VERTEX
  8
0
 10
107.076115628
 20
331.54119647
 30
0.0
  0
VERTEX
  8
0
 10
107.076115628
 20
331.49119647
 30
0.0
  0
VERTEX
  8
0
 10
107.076115628
 20
331.44119647
 30
0.0
  0
VERTEX
  8
0
 10
107.076115628
 20
331.39119647
 30
0.0
  0
VERTEX
  8
0
 10
107.076115628
 20
331.34119647
 30
0.0
  0
VERTEX
  8
0
 10
107.076115628
 20
331.29119647
 30
0.0
  0
VERTEX
  8
0
 10
107.076115628
 20
331.24119647
 30
0.0
  0
VERTEX
  8
0
 10
107.076115628
 20
331.19119647
 30
0.0
  0
VERTEX
  8
0
 10
107.076115628
 20
331.14119647
 30
0.0
  0
VERTEX
  8
0
 10
107.076115628
 20
331.09119647
 30
0.0
  0
VERTEX
  8
0
 10
107.076115628
 20
331.04119647
 30
0.0
  0
VERTEX
  8
0
 10
107.076115628
 20
330.99119647
 30
0.0
  0
VERTEX
  8
0
 10
107.076115628
 20
330.94119647
 30
0.0
  0
VERTEX
  8
0
 10
107.076115628
 20
330.89119647
 30
0.0
  0
VERTEX
  8
0
 10
107.076115628
 20
330.84119647
 30
0.0
  0
VERTEX
  8
0
 10
107.076115628
 20
330.79119647
 30
0.0
  0
VERTEX
  8
0
 10
107.076115628
 20
330.74119647
 30
0.0
  0
VERTEX
  8
0
 10
107.076115628
 20
330.69119647
 30
0.0
  0
VERTEX
  8
0
 10
107.076115628
 20
330.64119647
 30
0.0
  0
VERTEX
  8
0
 10
107.076115628
 20
330.59119647
 30
0.0
  0
VERTEX
  8
0
 10
107.076115628
 20
330.54119647
 30
0.0
  0
VERTEX
  8
0
 10
107.076115628
 20
330.49119647
 30
0.0
  0
VERTEX
  8
0
 10
107.076115628
 20
330.44119647
 30
0.0
  0
VERTEX
  8
0
 10
107.076115628
 20
330.39119647
 30
0.0
  0
VERTEX
  8
0
 10
107.076115628
 20
330.34119647
 30
0.0
  0
VERTEX
  8
0
 10
107.076115628
 20
330.29119647
 30
0.0
  0
VERTEX
  8
0
 10
107.076115628
 20
330.24119647
 30
0.0
  0
VERTEX
  8
0
 10
107.076115628
 20
330.19119647
 30
0.0
  0
VERTEX
  8
0
 10
107.076115628
 20
330.14119647
 30
0.0
  0
VERTEX
  8
0
 10
107.076115628
 20
330.09119647
 30
0.0
  0
VERTEX
  8
0
 10
107.076115628
 20
330.04119647
 30
0.0
  0
VERTEX
  8
0
 10
107.076115628
 20
329.99119647
 30
0.0
  0
VERTEX
  8
0
 10
107.076115628
 20
329.94119647
 30
0.0
  0
VERTEX
  8
0
 10
107.076115628
 20
329.89119647
 30
0.0
  0
VERTEX
  8
0
 10
107.076115628
 20
329.84119647
 30
0.0
  0
VERTEX
  8
0
 10
107.076115628
 20
329.79119647
 30
0.0
  0
VERTEX
  8
0
 10
107.076115628
 20
329.74119647
 30
0.0
  0
VERTEX
  8
0
 10
107.076115628
 20
329.69119647
 30
0.0
  0
VERTEX
  8
0
 10
107.076115628
 20
329.64119647
 30
0.0
  0
VERTEX
  8
0
 10
107.076115628
 20
329.59119647
 30
0.0
  0
VERTEX
  8
0
 10
107.076115628
 20
329.54119647
 30
0.0
  0
VERTEX
  8
0
 10
107.076115628
 20
329.49119647
 30
0.0
  0
VERTEX
  8
0
 10
107.076115628
 20
329.44119647
 30
0.0
  0
VERTEX
  8
0
 10
107.076115628
 20
329.39119647
 30
0.0
  0
VERTEX
  8
0
 10
107.076115628
 20
329.34119647
 30
0.0
  0
VERTEX
  8
0
 10
107.076115628
 20
329.29119647
 30
0.0
  0
VERTEX
  8
0
 10
107.076115628
 20
329.24119647
 30
0.0
  0
VERTEX
  8
0
 10
107.076115628
 20
329.19119647
 30
0.0
  0
VERTEX
  8
0
 10
107.076115628
 20
329.14119647
 30
0.0
  0
VERTEX
  8
0
 10
107.076115628
 20
329.09119647
 30
0.0
  0
VERTEX
  8
0
 10
107.076115628
 20
329.04119647
 30
0.0
  0
VERTEX
  8
0
 10
107.076115628
 20
328.99119647
 30
0.0
  0
VERTEX
  8
0
 10
107.076115628
 20
328.94119647
 30
0.0
  0
VERTEX
  8
0
 10
107.076115628
 20
328.89119647
 30
0.0
  0
VERTEX
  8
0
 10
107.076115628
 20
328.84119647
 30
0.0
  0
VERTEX
  8
0
 10
107.076115628
 20
328.79119647
 30
0.0
  0
VERTEX
  8
0
 10
107.076115628
 20
328.74119647
 30
0.0
  0
VERTEX
  8
0
 10
107.076115628
 20
328.69119647
 30
0.0
  0
VERTEX
  8
0
 10
107.076115628
 20
328.64119647
 30
0.0
  0
VERTEX
  8
0
 10
107.076115628
 20
328.59119647
 30
0.0
  0
VERTEX
  8
0
 10
107.076115628
 20
328.54119647
 30
0.0
  0
VERTEX
  8
0
 10
107.076115628
 20
328.49119647
 30
0.0
  0
VERTEX
  8
0
 10
107.076115628
 20
328.44119647
 30
0.0
  0
VERTEX
  8
0
 10
107.076115628
 20
328.39119647
 30
0.0
  0
VERTEX
  8
0
 10
107.076115628
 20
328.34119647
 30
0.0
  0
VERTEX
  8
0
 10
107.076115628
 20
328.29119647
 30
0.0
  0
VERTEX
  8
0
 10
107.076115628
 20
328.24119647
 30
0.0
  0
VERTEX
  8
0
 10
107.076115628
 20
328.19119647
 30
0.0
  0
VERTEX
  8
0
 10
107.076115628
 20
328.14119647
 30
0.0
  0
VERTEX
  8
0
 10
107.076115628
 20
328.09119647
 30
0.0
  0
VERTEX
  8
0
 10
107.076115628
 20
328.04119647
 30
0.0
  0
VERTEX
  8
0
 10
107.076115628
 20
327.99119647
 30
0.0
  0
VERTEX
  8
0
 10
107.076115628
 20
327.94119647
 30
0.0
  0
VERTEX
  8
0
 10
107.076115628
 20
327.89119647
 30
0.0
  0
VERTEX
  8
0
 10
107.076115628
 20
327.84119647
 30
0.0
  0
VERTEX
  8
0
 10
107.076115628
 20
327.79119647
 30
0.0
  0
VERTEX
  8
0
 10
107.076115628
 20
327.74119647
 30
0.0
  0
VERTEX
  8
0
 10
107.076115628
 20
327.69119647
 30
0.0
  0
VERTEX
  8
0
 10
107.076115628
 20
327.64119647
 30
0.0
  0
VERTEX
  8
0
 10
107.076115628
 20
327.59119647
 30
0.0
  0
VERTEX
  8
0
 10
107.076115628
 20
327.54119647
 30
0.0
  0
VERTEX
  8
0
 10
107.076115628
 20
327.49119647
 30
0.0
  0
VERTEX
  8
0
 10
107.076115628
 20
327.44119647
 30
0.0
  0
VERTEX
  8
0
 10
107.076115628
 20
327.39119647
 30
0.0
  0
VERTEX
  8
0
 10
107.076115628
 20
327.34119647
 30
0.0
  0
VERTEX
  8
0
 10
107.076115628
 20
327.29119647
 30
0.0
  0
VERTEX
  8
0
 10
107.076115628
 20
327.24119647
 30
0.0
  0
VERTEX
  8
0
 10
107.076115628
 20
327.19119647
 30
0.0
  0
VERTEX
  8
0
 10
107.076115628
 20
327.14119647
 30
0.0
  0
VERTEX
  8
0
 10
107.076115628
 20
327.09119647
 30
0.0
  0
VERTEX
  8
0
 10
107.076115628
 20
327.04119647
 30
0.0
  0
VERTEX
  8
0
 10
107.076115628
 20
326.99119647
 30
0.0
  0
VERTEX
  8
0
 10
107.076115628
 20
326.94119647
 30
0.0
  0
VERTEX
  8
0
 10
107.076115628
 20
326.89119647
 30
0.0
  0
VERTEX
  8
0
 10
107.076115628
 20
326.880349931
 30
0.0
  0
SEQEND
  8
0
  0
POLYLINE
  8
0
 62
0
 70
1
 66
1
 10
0.0
 20
0.0
 30
0.0
  0
VERTEX
  8
0
 10
138.158930302
 20
343.067313969
 30
0.0
  0
VERTEX
  8
0
 10
138.158163157
 20
343.117306121
 30
0.0
  0
VERTEX
  8
0
 10
138.155862445
 20
343.167251196
 30
0.0
  0
VERTEX
  8
0
 10
138.152030331
 20
343.217102161
 30
0.0
  0
VERTEX
  8
0
 10
138.146670425
 20
343.266812072
 30
0.0
  0
VERTEX
  8
0
 10
138.139787774
 20
343.316334116
 30
0.0
  0
VERTEX
  8
0
 10
138.131388859
 20
343.365621661
 30
0.0
  0
VERTEX
  8
0
 10
138.121481589
 20
343.414628291
 30
0.0
  0
VERTEX
  8
0
 10
138.110075295
 20
343.463307858
 30
0.0
  0
VERTEX
  8
0
 10
138.097180717
 20
343.511614521
 30
0.0
  0
VERTEX
  8
0
 10
138.082809998
 20
343.559502789
 30
0.0
  0
VERTEX
  8
0
 10
138.066976671
 20
343.606927567
 30
0.0
  0
VERTEX
  8
0
 10
138.049695646
 20
343.653844195
 30
0.0
  0
VERTEX
  8
0
 10
138.030983197
 20
343.700208492
 30
0.0
  0
VERTEX
  8
0
 10
138.010856944
 20
343.745976797
 30
0.0
  0
VERTEX
  8
0
 10
137.98933584
 20
343.791106011
 30
0.0
  0
VERTEX
  8
0
 10
137.966440153
 20
343.835553635
 30
0.0
  0
VERTEX
  8
0
 10
137.942191441
 20
343.879277814
 30
0.0
  0
VERTEX
  8
0
 10
137.916612541
 20
343.922237372
 30
0.0
  0
VERTEX
  8
0
 10
137.88972754
 20
343.964391856
 30
0.0
  0
VERTEX
  8
0
 10
137.861561755
 20
344.005701569
 30
0.0
  0
VERTEX
  8
0
 10
137.83214171
 20
344.046127609
 30
0.0
  0
VERTEX
  8
0
 10
137.801495108
 20
344.085631908
 30
0.0
  0
VERTEX
  8
0
 10
137.769650811
 20
344.124177265
 30
0.0
  0
VERTEX
  8
0
 10
137.736638805
 20
344.161727381
 30
0.0
  0
VERTEX
  8
0
 10
137.702490177
 20
344.198246898
 30
0.0
  0
VERTEX
  8
0
 10
137.667237086
 20
344.233701423
 30
0.0
  0
VERTEX
  8
0
 10
137.630912729
 20
344.26805757
 30
0.0
  0
VERTEX
  8
0
 10
137.593551311
 20
344.301282986
 30
0.0
  0
VERTEX
  8
0
 10
137.555188016
 20
344.333346383
 30
0.0
  0
VERTEX
  8
0
 10
137.515858971
 20
344.364217567
 30
0.0
  0
VERTEX
  8
0
 10
137.475601211
 20
344.393867467
 30
0.0
  0
VERTEX
  8
0
 10
137.434452647
 20
344.422268162
 30
0.0
  0
VERTEX
  8
0
 10
137.392452028
 20
344.449392907
 30
0.0
  0
VERTEX
  8
0
 10
137.349638905
 20
344.475216159
 30
0.0
  0
VERTEX
  8
0
 10
137.306053596
 20
344.4997136
 30
0.0
  0
VERTEX
  8
0
 10
137.261737144
 20
344.522862161
 30
0.0
  0
VERTEX
  8
0
 10
137.216731282
 20
344.544640044
 30
0.0
  0
VERTEX
  8
0
 10
137.171078391
 20
344.565026741
 30
0.0
  0
VERTEX
  8
0
 10
137.124821463
 20
344.584003052
 30
0.0
  0
VERTEX
  8
0
 10
137.078004057
 20
344.60155111
 30
0.0
  0
VERTEX
  8
0
 10
137.030670261
 20
344.617654388
 30
0.0
  0
VERTEX
  8
0
 10
136.982864649
 20
344.632297722
 30
0.0
  0
VERTEX
  8
0
 10
136.934632239
 20
344.645467324
 30
0.0
  0
VERTEX
  8
0
 10
136.886018451
 20
344.65715079
 30
0.0
  0
VERTEX
  8
0
 10
136.837069063
 20
344.66733712
 30
0.0
  0
VERTEX
  8
0
 10
136.787830173
 20
344.67601672
 30
0.0
  0
VERTEX
  8
0
 10
136.738348147
 20
344.683181417
 30
0.0
  0
VERTEX
  8
0
 10
136.688669582
 20
344.688824464
 30
0.0
  0
VERTEX
  8
0
 10
136.63884126
 20
344.692940547
 30
0.0
  0
VERTEX
  8
0
 10
136.588910104
 20
344.69552579
 30
0.0
  0
VERTEX
  8
0
 10
136.538923134
 20
344.696577758
 30
0.0
  0
VERTEX
  8
0
 10
136.488927422
 20
344.696095462
 30
0.0
  0
VERTEX
  8
0
 10
136.438970049
 20
344.694079354
 30
0.0
  0
VERTEX
  8
0
 10
136.389098059
 20
344.690531334
 30
0.0
  0
VERTEX
  8
0
 10
136.339358417
 20
344.685454743
 30
0.0
  0
VERTEX
  8
0
 10
136.289797961
 20
344.678854361
 30
0.0
  0
VERTEX
  8
0
 10
136.240463363
 20
344.670736404
 30
0.0
  0
VERTEX
  8
0
 10
136.19140108
 20
344.661108516
 30
0.0
  0
VERTEX
  8
0
 10
136.142657315
 20
344.649979764
 30
0.0
  0
VERTEX
  8
0
 10
136.094277968
 20
344.637360629
 30
0.0
  0
VERTEX
  8
0
 10
136.046308598
 20
344.623262992
 30
0.0
  0
VERTEX
  8
0
 10
135.998794378
 20
344.60770013
 30
0.0
  0
VERTEX
  8
0
 10
135.951780051
 20
344.590686698
 30
0.0
  0
VERTEX
  8
0
 10
135.90530989
 20
344.572238718
 30
0.0
  0
VERTEX
  8
0
 10
135.859427656
 20
344.552373562
 30
0.0
  0
VERTEX
  8
0
 10
135.814176556
 20
344.531109937
 30
0.0
  0
VERTEX
  8
0
 10
135.769599203
 20
344.508467866
 30
0.0
  0
VERTEX
  8
0
 10
135.725737574
 20
344.484468672
 30
0.0
  0
VERTEX
  8
0
 10
135.682632974
 20
344.459134954
 30
0.0
  0
VERTEX
  8
0
 10
135.640325994
 20
344.432490569
 30
0.0
  0
VERTEX
  8
0
 10
135.598856474
 20
344.404560608
 30
0.0
  0
VERTEX
  8
0
 10
135.558263466
 20
344.375371372
 30
0.0
  0
VERTEX
  8
0
 10
135.518585196
 20
344.344950348
 30
0.0
  0
VERTEX
  8
0
 10
135.479859028
 20
344.313326184
 30
0.0
  0
VERTEX
  8
0
 10
135.442121431
 20
344.28052866
 30
0.0
  0
VERTEX
  8
0
 10
135.405407942
 20
344.246588661
 30
0.0
  0
VERTEX
  8
0
 10
135.369753134
 20
344.211538149
 30
0.0
  0
VERTEX
  8
0
 10
135.335190582
 20
344.175410129
 30
0.0
  0
VERTEX
  8
0
 10
135.301752834
 20
344.138238623
 30
0.0
  0
VERTEX
  8
0
 10
135.269471378
 20
344.100058636
 30
0.0
  0
VERTEX
  8
0
 10
135.238376614
 20
344.060906121
 30
0.0
  0
VERTEX
  8
0
 10
135.208497822
 20
344.020817949
 30
0.0
  0
VERTEX
  8
0
 10
135.179863139
 20
343.979831868
 30
0.0
  0
VERTEX
  8
0
 10
135.152499531
 20
343.937986477
 30
0.0
  0
VERTEX
  8
0
 10
135.126432766
 20
343.89532118
 30
0.0
  0
VERTEX
  8
0
 10
135.10168739
 20
343.851876156
 30
0.0
  0
VERTEX
  8
0
 10
135.078286707
 20
343.807692315
 30
0.0
  0
VERTEX
  8
0
 10
135.056252751
 20
343.762811265
 30
0.0
  0
VERTEX
  8
0
 10
135.035606273
 20
343.717275271
 30
0.0
  0
VERTEX
  8
0
 10
135.016366715
 20
343.671127213
 30
0.0
  0
VERTEX
  8
0
 10
134.998552195
 20
343.62441055
 30
0.0
  0
VERTEX
  8
0
 10
134.982179489
 20
343.577169272
 30
0.0
  0
VERTEX
  8
0
 10
134.967264014
 20
343.529447868
 30
0.0
  0
VERTEX
  8
0
 10
134.953819817
 20
343.481291276
 30
0.0
  0
VERTEX
  8
0
 10
134.941859557
 20
343.432744844
 30
0.0
  0
VERTEX
  8
0
 10
134.931394499
 20
343.38385429
 30
0.0
  0
VERTEX
  8
0
 10
134.922434495
 20
343.334665651
 30
0.0
  0
VERTEX
  8
0
 10
134.914987985
 20
343.28522525
 30
0.0
  0
VERTEX
  8
0
 10
134.90906198
 20
343.235579643
 30
0.0
  0
VERTEX
  8
0
 10
134.904662062
 20
343.185775582
 30
0.0
  0
VERTEX
  8
0
 10
134.901792372
 20
343.135859966
 30
0.0
  0
VERTEX
  8
0
 10
134.900455614
 20
343.085879801
 30
0.0
  0
VERTEX
  8
0
 10
134.900653047
 20
343.035882153
 30
0.0
  0
VERTEX
  8
0
 10
134.902384484
 20
342.985914104
 30
0.0
  0
VERTEX
  8
0
 10
134.905648295
 20
342.936022708
 30
0.0
  0
VERTEX
  8
0
 10
134.910441406
 20
342.886254949
 30
0.0
  0
VERTEX
  8
0
 10
134.916759305
 20
342.836657691
 30
0.0
  0
VERTEX
  8
0
 10
134.924596041
 20
342.787277641
 30
0.0
  0
VERTEX
  8
0
 10
134.933944234
 20
342.738161299
 30
0.0
  0
VERTEX
  8
0
 10
134.944795082
 20
342.689354917
 30
0.0
  0
VERTEX
  8
0
 10
134.957138366
 20
342.640904456
 30
0.0
  0
VERTEX
  8
0
 10
134.970962463
 20
342.592855542
 30
0.0
  0
VERTEX
  8
0
 10
134.986254355
 20
342.545253422
 30
0.0
  0
VERTEX
  8
0
 10
135.002999641
 20
342.498142922
 30
0.0
  0
VERTEX
  8
0
 10
135.021182552
 20
342.451568406
 30
0.0
  0
VERTEX
  8
0
 10
135.040785967
 20
342.405573733
 30
0.0
  0
VERTEX
  8
0
 10
135.061791424
 20
342.360202216
 30
0.0
  0
VERTEX
  8
0
 10
135.084179142
 20
342.31549658
 30
0.0
  0
VERTEX
  8
0
 10
135.10792804
 20
342.271498925
 30
0.0
  0
VERTEX
  8
0
 10
135.133015753
 20
342.228250683
 30
0.0
  0
VERTEX
  8
0
 10
135.159418657
 20
342.18579258
 30
0.0
  0
VERTEX
  8
0
 10
135.187111887
 20
342.144164599
 30
0.0
  0
VERTEX
  8
0
 10
135.216069366
 20
342.103405941
 30
0.0
  0
VERTEX
  8
0
 10
135.246263825
 20
342.063554987
 30
0.0
  0
VERTEX
  8
0
 10
135.277666829
 20
342.024649266
 30
0.0
  0
VERTEX
  8
0
 10
135.310248806
 20
341.986725414
 30
0.0
  0
VERTEX
  8
0
 10
135.343979075
 20
341.949819144
 30
0.0
  0
VERTEX
  8
0
 10
135.378825871
 20
341.91396521
 30
0.0
  0
VERTEX
  8
0
 10
135.414756381
 20
341.879197376
 30
0.0
  0
VERTEX
  8
0
 10
135.451736768
 20
341.845548382
 30
0.0
  0
VERTEX
  8
0
 10
135.489732208
 20
341.813049915
 30
0.0
  0
VERTEX
  8
0
 10
135.528706921
 20
341.781732579
 30
0.0
  0
VERTEX
  8
0
 10
135.568624205
 20
341.751625865
 30
0.0
  0
VERTEX
  8
0
 10
135.609446471
 20
341.722758125
 30
0.0
  0
VERTEX
  8
0
 10
135.651135276
 20
341.695156542
 30
0.0
  0
VERTEX
  8
0
 10
135.693651361
 20
341.66884711
 30
0.0
  0
VERTEX
  8
0
 10
135.736954691
 20
341.643854603
 30
0.0
  0
VERTEX
  8
0
 10
135.781004487
 20
341.620202556
 30
0.0
  0
VERTEX
  8
0
 10
135.825759267
 20
341.597913243
 30
0.0
  0
VERTEX
  8
0
 10
135.871176887
 20
341.577007654
 30
0.0
  0
VERTEX
  8
0
 10
135.917214576
 20
341.557505475
 30
0.0
  0
VERTEX
  8
0
 10
135.963828981
 20
341.53942507
 30
0.0
  0
VERTEX
  8
0
 10
136.010976206
 20
341.522783467
 30
0.0
  0
VERTEX
  8
0
 10
136.058611853
 20
341.507596336
 30
0.0
  0
VERTEX
  8
0
 10
136.106691064
 20
341.49387798
 30
0.0
  0
VERTEX
  8
0
 10
136.155168562
 20
341.481641315
 30
0.0
  0
VERTEX
  8
0
 10
136.203998697
 20
341.470897867
 30
0.0
  0
VERTEX
  8
0
 10
136.253135487
 20
341.461657751
 30
0.0
  0
VERTEX
  8
0
 10
136.302532658
 20
341.45392967
 30
0.0
  0
VERTEX
  8
0
 10
136.352143695
 20
341.4477209
 30
0.0
  0
VERTEX
  8
0
 10
136.401921879
 20
341.443037288
 30
0.0
  0
VERTEX
  8
0
 10
136.451820334
 20
341.439883245
 30
0.0
  0
VERTEX
  8
0
 10
136.501792071
 20
341.438261741
 30
0.0
  0
VERTEX
  8
0
 10
136.551790033
 20
341.438174303
 30
0.0
  0
VERTEX
  8
0
 10
136.601767136
 20
341.439621013
 30
0.0
  0
VERTEX
  8
0
 10
136.651676318
 20
341.442600509
 30
0.0
  0
VERTEX
  8
0
 10
136.701470579
 20
341.447109986
 30
0.0
  0
VERTEX
  8
0
 10
136.751103028
 20
341.453145196
 30
0.0
  0
VERTEX
  8
0
 10
136.800526928
 20
341.460700456
 30
0.0
  0
VERTEX
  8
0
 10
136.849695735
 20
341.469768651
 30
0.0
  0
VERTEX
  8
0
 10
136.898563149
 20
341.480341243
 30
0.0
  0
VERTEX
  8
0
 10
136.94708315
 20
341.492408275
 30
0.0
  0
VERTEX
  8
0
 10
136.995210049
 20
341.505958384
 30
0.0
  0
VERTEX
  8
0
 10
137.042898524
 20
341.520978808
 30
0.0
  0
VERTEX
  8
0
 10
137.090103667
 20
341.537455405
 30
0.0
  0
VERTEX
  8
0
 10
137.136781026
 20
341.555372658
 30
0.0
  0
VERTEX
  8
0
 10
137.182886646
 20
341.574713694
 30
0.0
  0
VERTEX
  8
0
 10
137.228377108
 20
341.595460301
 30
0.0
  0
VERTEX
  8
0
 10
137.273209574
 20
341.617592941
 30
0.0
  0
VERTEX
  8
0
 10
137.317341827
 20
341.641090771
 30
0.0
  0
VERTEX
  8
0
 10
137.360732307
 20
341.665931666
 30
0.0
  0
VERTEX
  8
0
 10
137.403340154
 20
341.692092231
 30
0.0
  0
VERTEX
  8
0
 10
137.445125245
 20
341.719547832
 30
0.0
  0
VERTEX
  8
0
 10
137.48604823
 20
341.748272613
 30
0.0
  0
VERTEX
  8
0
 10
137.526070573
 20
341.778239526
 30
0.0
  0
VERTEX
  8
0
 10
137.565154585
 20
341.809420351
 30
0.0
  0
VERTEX
  8
0
 10
137.603263461
 20
341.841785724
 30
0.0
  0
VERTEX
  8
0
 10
137.640361314
 20
341.875305167
 30
0.0
  0
VERTEX
  8
0
 10
137.67641321
 20
341.909947117
 30
0.0
  0
VERTEX
  8
0
 10
137.711385198
 20
341.945678949
 30
0.0
  0
VERTEX
  8
0
 10
137.745244346
 20
341.982467017
 30
0.0
  0
VERTEX
  8
0
 10
137.777958768
 20
342.020276676
 30
0.0
  0
VERTEX
  8
0
 10
137.809497659
 20
342.059072323
 30
0.0
  0
VERTEX
  8
0
 10
137.839831317
 20
342.098817423
 30
0.0
  0
VERTEX
  8
0
 10
137.868931179
 20
342.139474548
 30
0.0
  0
VERTEX
  8
0
 10
137.89676984
 20
342.181005413
 30
0.0
  0
VERTEX
  8
0
 10
137.923321086
 20
342.223370908
 30
0.0
  0
VERTEX
  8
0
 10
137.948559913
 20
342.266531138
 30
0.0
  0
VERTEX
  8
0
 10
137.972462554
 20
342.310445458
 30
0.0
  0
VERTEX
  8
0
 10
137.9950065
 20
342.355072516
 30
0.0
  0
VERTEX
  8
0
 10
138.016170523
 20
342.400370286
 30
0.0
  0
VERTEX
  8
0
 10
138.03593469
 20
342.446296112
 30
0.0
  0
VERTEX
  8
0
 10
138.054280392
 20
342.492806745
 30
0.0
  0
VERTEX
  8
0
 10
138.071190352
 20
342.539858388
 30
0.0
  0
VERTEX
  8
0
 10
138.086648646
 20
342.587406731
 30
0.0
  0
VERTEX
  8
0
 10
138.100640717
 20
342.635407
 30
0.0
  0
VERTEX
  8
0
 10
138.113153388
 20
342.683813991
 30
0.0
  0
VERTEX
  8
0
 10
138.124174878
 20
342.732582122
 30
0.0
  0
VERTEX
  8
0
 10
138.133694806
 20
342.781665467
 30
0.0
  0
VERTEX
  8
0
 10
138.141704208
 20
342.831017805
 30
0.0
  0
VERTEX
  8
0
 10
138.148195542
 20
342.880592662
 30
0.0
  0
VERTEX
  8
0
 10
138.153162694
 20
342.930343352
 30
0.0
  0
VERTEX
  8
0
 10
138.156600988
 20
342.980223027
 30
0.0
  0
VERTEX
  8
0
 10
138.158507185
 20
343.030184714
 30
0.0
  0
SEQEND
  8
0
  0
POLYLINE
  8
0
 62
0
 70
1
 66
1
 10
0.0
 20
0.0
 30
0.0
  0
VERTEX
  8
0
 10
111.717543546
 20
330.269000068
 30
0.0
  0
VERTEX
  8
0
 10
111.716776401
 20
330.318992221
 30
0.0
  0
VERTEX
  8
0
 10
111.714475688
 20
330.368937296
 30
0.0
  0
VERTEX
  8
0
 10
111.710643574
 20
330.418788261
 30
0.0
  0
VERTEX
  8
0
 10
111.705283668
 20
330.468498171
 30
0.0
  0
VERTEX
  8
0
 10
111.698401017
 20
330.518020216
 30
0.0
  0
VERTEX
  8
0
 10
111.690002102
 20
330.567307761
 30
0.0
  0
VERTEX
  8
0
 10
111.680094833
 20
330.616314391
 30
0.0
  0
VERTEX
  8
0
 10
111.668688538
 20
330.664993958
 30
0.0
  0
VERTEX
  8
0
 10
111.65579396
 20
330.713300621
 30
0.0
  0
VERTEX
  8
0
 10
111.641423242
 20
330.761188889
 30
0.0
  0
VERTEX
  8
0
 10
111.625589915
 20
330.808613667
 30
0.0
  0
VERTEX
  8
0
 10
111.60830889
 20
330.855530295
 30
0.0
  0
VERTEX
  8
0
 10
111.58959644
 20
330.901894592
 30
0.0
  0
VERTEX
  8
0
 10
111.569470187
 20
330.947662897
 30
0.0
  0
VERTEX
  8
0
 10
111.547949084
 20
330.992792111
 30
0.0
  0
VERTEX
  8
0
 10
111.525053396
 20
331.037239735
 30
0.0
  0
VERTEX
  8
0
 10
111.500804685
 20
331.080963913
 30
0.0
  0
VERTEX
  8
0
 10
111.475225785
 20
331.123923472
 30
0.0
  0
VERTEX
  8
0
 10
111.448340783
 20
331.166077956
 30
0.0
  0
VERTEX
  8
0
 10
111.420174998
 20
331.207387669
 30
0.0
  0
VERTEX
  8
0
 10
111.390754953
 20
331.247813709
 30
0.0
  0
VERTEX
  8
0
 10
111.360108351
 20
331.287318008
 30
0.0
  0
VERTEX
  8
0
 10
111.328264054
 20
331.325863364
 30
0.0
  0
VERTEX
  8
0
 10
111.295252048
 20
331.363413481
 30
0.0
  0
VERTEX
  8
0
 10
111.261103421
 20
331.399932997
 30
0.0
  0
VERTEX
  8
0
 10
111.225850329
 20
331.435387523
 30
0.0
  0
VERTEX
  8
0
 10
111.189525972
 20
331.46974367
 30
0.0
  0
VERTEX
  8
0
 10
111.152164554
 20
331.502969086
 30
0.0
  0
VERTEX
  8
0
 10
111.11380126
 20
331.535032483
 30
0.0
  0
VERTEX
  8
0
 10
111.074472214
 20
331.565903667
 30
0.0
  0
VERTEX
  8
0
 10
111.034214454
 20
331.595553567
 30
0.0
  0
VERTEX
  8
0
 10
110.99306589
 20
331.623954262
 30
0.0
  0
VERTEX
  8
0
 10
110.951065271
 20
331.651079007
 30
0.0
  0
VERTEX
  8
0
 10
110.908252148
 20
331.676902258
 30
0.0
  0
VERTEX
  8
0
 10
110.864666839
 20
331.7013997
 30
0.0
  0
VERTEX
  8
0
 10
110.820350387
 20
331.724548261
 30
0.0
  0
VERTEX
  8
0
 10
110.775344525
 20
331.746326144
 30
0.0
  0
VERTEX
  8
0
 10
110.729691635
 20
331.76671284
 30
0.0
  0
VERTEX
  8
0
 10
110.683434706
 20
331.785689152
 30
0.0
  0
VERTEX
  8
0
 10
110.636617301
 20
331.80323721
 30
0.0
  0
VERTEX
  8
0
 10
110.589283505
 20
331.819340488
 30
0.0
  0
VERTEX
  8
0
 10
110.541477892
 20
331.833983822
 30
0.0
  0
VERTEX
  8
0
 10
110.493245482
 20
331.847153423
 30
0.0
  0
VERTEX
  8
0
 10
110.444631694
 20
331.85883689
 30
0.0
  0
VERTEX
  8
0
 10
110.395682307
 20
331.869023219
 30
0.0
  0
VERTEX
  8
0
 10
110.346443416
 20
331.877702819
 30
0.0
  0
VERTEX
  8
0
 10
110.29696139
 20
331.884867516
 30
0.0
  0
VERTEX
  8
0
 10
110.247282825
 20
331.890510563
 30
0.0
  0
VERTEX
  8
0
 10
110.197454503
 20
331.894626646
 30
0.0
  0
VERTEX
  8
0
 10
110.147523347
 20
331.897211889
 30
0.0
  0
VERTEX
  8
0
 10
110.097536377
 20
331.898263858
 30
0.0
  0
VERTEX
  8
0
 10
110.047540665
 20
331.897781561
 30
0.0
  0
VERTEX
  8
0
 10
109.997583292
 20
331.895765454
 30
0.0
  0
VERTEX
  8
0
 10
109.947711303
 20
331.892217434
 30
0.0
  0
VERTEX
  8
0
 10
109.89797166
 20
331.887140843
 30
0.0
  0
VERTEX
  8
0
 10
109.848411205
 20
331.880540461
 30
0.0
  0
VERTEX
  8
0
 10
109.799076606
 20
331.872422504
 30
0.0
  0
VERTEX
  8
0
 10
109.750014324
 20
331.862794616
 30
0.0
  0
VERTEX
  8
0
 10
109.701270558
 20
331.851665864
 30
0.0
  0
VERTEX
  8
0
 10
109.652891211
 20
331.839046728
 30
0.0
  0
VERTEX
  8
0
 10
109.604921841
 20
331.824949092
 30
0.0
  0
VERTEX
  8
0
 10
109.557407621
 20
331.80938623
 30
0.0
  0
VERTEX
  8
0
 10
109.510393294
 20
331.792372798
 30
0.0
  0
VERTEX
  8
0
 10
109.463923133
 20
331.773924818
 30
0.0
  0
VERTEX
  8
0
 10
109.418040899
 20
331.754059662
 30
0.0
  0
VERTEX
  8
0
 10
109.372789799
 20
331.732796037
 30
0.0
  0
VERTEX
  8
0
 10
109.328212446
 20
331.710153966
 30
0.0
  0
VERTEX
  8
0
 10
109.284350817
 20
331.686154772
 30
0.0
  0
VERTEX
  8
0
 10
109.241246217
 20
331.660821054
 30
0.0
  0
VERTEX
  8
0
 10
109.198939237
 20
331.634176669
 30
0.0
  0
VERTEX
  8
0
 10
109.157469717
 20
331.606246708
 30
0.0
  0
VERTEX
  8
0
 10
109.116876709
 20
331.577057472
 30
0.0
  0
VERTEX
  8
0
 10
109.077198439
 20
331.546636448
 30
0.0
  0
VERTEX
  8
0
 10
109.038472271
 20
331.515012284
 30
0.0
  0
VERTEX
  8
0
 10
109.000734674
 20
331.48221476
 30
0.0
  0
VERTEX
  8
0
 10
108.964021185
 20
331.448274761
 30
0.0
  0
VERTEX
  8
0
 10
108.928366377
 20
331.413224248
 30
0.0
  0
VERTEX
  8
0
 10
108.893803825
 20
331.377096228
 30
0.0
  0
VERTEX
  8
0
 10
108.860366077
 20
331.339924723
 30
0.0
  0
VERTEX
  8
0
 10
108.828084622
 20
331.301744736
 30
0.0
  0
VERTEX
  8
0
 10
108.796989857
 20
331.262592221
 30
0.0
  0
VERTEX
  8
0
 10
108.767111065
 20
331.222504048
 30
0.0
  0
VERTEX
  8
0
 10
108.738476383
 20
331.181517968
 30
0.0
  0
VERTEX
  8
0
 10
108.711112775
 20
331.139672577
 30
0.0
  0
VERTEX
  8
0
 10
108.685046009
 20
331.09700728
 30
0.0
  0
VERTEX
  8
0
 10
108.660300634
 20
331.053562255
 30
0.0
  0
VERTEX
  8
0
 10
108.63689995
 20
331.009378414
 30
0.0
  0
VERTEX
  8
0
 10
108.614865994
 20
330.964497365
 30
0.0
  0
VERTEX
  8
0
 10
108.594219516
 20
330.918961371
 30
0.0
  0
VERTEX
  8
0
 10
108.574979958
 20
330.872813313
 30
0.0
  0
VERTEX
  8
0
 10
108.557165438
 20
330.826096649
 30
0.0
  0
VERTEX
  8
0
 10
108.540792732
 20
330.778855372
 30
0.0
  0
VERTEX
  8
0
 10
108.525877257
 20
330.731133968
 30
0.0
  0
VERTEX
  8
0
 10
108.51243306
 20
330.682977376
 30
0.0
  0
VERTEX
  8
0
 10
108.500472801
 20
330.634430944
 30
0.0
  0
VERTEX
  8
0
 10
108.490007742
 20
330.585540389
 30
0.0
  0
VERTEX
  8
0
 10
108.481047739
 20
330.536351751
 30
0.0
  0
VERTEX
  8
0
 10
108.473601228
 20
330.48691135
 30
0.0
  0
VERTEX
  8
0
 10
108.467675224
 20
330.437265743
 30
0.0
  0
VERTEX
  8
0
 10
108.463275305
 20
330.387461682
 30
0.0
  0
VERTEX
  8
0
 10
108.460405615
 20
330.337546066
 30
0.0
  0
VERTEX
  8
0
 10
108.459068857
 20
330.287565901
 30
0.0
  0
VERTEX
  8
0
 10
108.45926629
 20
330.237568253
 30
0.0
  0
VERTEX
  8
0
 10
108.460997727
 20
330.187600204
 30
0.0
  0
VERTEX
  8
0
 10
108.464261538
 20
330.137708808
 30
0.0
  0
VERTEX
  8
0
 10
108.469054649
 20
330.087941049
 30
0.0
  0
VERTEX
  8
0
 10
108.475372548
 20
330.038343791
 30
0.0
  0
VERTEX
  8
0
 10
108.483209284
 20
329.988963741
 30
0.0
  0
VERTEX
  8
0
 10
108.492557477
 20
329.939847398
 30
0.0
  0
VERTEX
  8
0
 10
108.503408325
 20
329.891041017
 30
0.0
  0
VERTEX
  8
0
 10
108.515751609
 20
329.842590556
 30
0.0
  0
VERTEX
  8
0
 10
108.529575706
 20
329.794541642
 30
0.0
  0
VERTEX
  8
0
 10
108.544867598
 20
329.746939521
 30
0.0
  0
VERTEX
  8
0
 10
108.561612884
 20
329.699829022
 30
0.0
  0
VERTEX
  8
0
 10
108.579795795
 20
329.653254506
 30
0.0
  0
VERTEX
  8
0
 10
108.59939921
 20
329.607259833
 30
0.0
  0
VERTEX
  8
0
 10
108.620404667
 20
329.561888315
 30
0.0
  0
VERTEX
  8
0
 10
108.642792385
 20
329.51718268
 30
0.0
  0
VERTEX
  8
0
 10
108.666541283
 20
329.473185024
 30
0.0
  0
VERTEX
  8
0
 10
108.691628996
 20
329.429936782
 30
0.0
  0
VERTEX
  8
0
 10
108.7180319
 20
329.38747868
 30
0.0
  0
VERTEX
  8
0
 10
108.745725131
 20
329.345850699
 30
0.0
  0
VERTEX
  8
0
 10
108.77468261
 20
329.305092041
 30
0.0
  0
VERTEX
  8
0
 10
108.804877068
 20
329.265241087
 30
0.0
  0
VERTEX
  8
0
 10
108.836280072
 20
329.226335366
 30
0.0
  0
VERTEX
  8
0
 10
108.868862049
 20
329.188411514
 30
0.0
  0
VERTEX
  8
0
 10
108.902592318
 20
329.151505244
 30
0.0
  0
VERTEX
  8
0
 10
108.937439115
 20
329.11565131
 30
0.0
  0
VERTEX
  8
0
 10
108.973369624
 20
329.080883476
 30
0.0
  0
VERTEX
  8
0
 10
109.010350011
 20
329.047234482
 30
0.0
  0
VERTEX
  8
0
 10
109.048345451
 20
329.014736015
 30
0.0
  0
VERTEX
  8
0
 10
109.087320164
 20
328.983418679
 30
0.0
  0
VERTEX
  8
0
 10
109.127237448
 20
328.953311965
 30
0.0
  0
VERTEX
  8
0
 10
109.168059714
 20
328.924444225
 30
0.0
  0
VERTEX
  8
0
 10
109.209748519
 20
328.896842642
 30
0.0
  0
VERTEX
  8
0
 10
109.252264605
 20
328.870533209
 30
0.0
  0
VERTEX
  8
0
 10
109.295567935
 20
328.845540702
 30
0.0
  0
VERTEX
  8
0
 10
109.33961773
 20
328.821888656
 30
0.0
  0
VERTEX
  8
0
 10
109.384372511
 20
328.799599343
 30
0.0
  0
VERTEX
  8
0
 10
109.42979013
 20
328.778693754
 30
0.0
  0
VERTEX
  8
0
 10
109.475827819
 20
328.759191574
 30
0.0
  0
VERTEX
  8
0
 10
109.522442224
 20
328.74111117
 30
0.0
  0
VERTEX
  8
0
 10
109.569589449
 20
328.724469567
 30
0.0
  0
VERTEX
  8
0
 10
109.617225096
 20
328.709282436
 30
0.0
  0
VERTEX
  8
0
 10
109.665304307
 20
328.695564079
 30
0.0
  0
VERTEX
  8
0
 10
109.713781805
 20
328.683327415
 30
0.0
  0
VERTEX
  8
0
 10
109.762611941
 20
328.672583967
 30
0.0
  0
VERTEX
  8
0
 10
109.81174873
 20
328.663343851
 30
0.0
  0
VERTEX
  8
0
 10
109.861145902
 20
328.655615769
 30
0.0
  0
VERTEX
  8
0
 10
109.910756938
 20
328.649406999
 30
0.0
  0
VERTEX
  8
0
 10
109.960535122
 20
328.644723388
 30
0.0
  0
VERTEX
  8
0
 10
110.010433577
 20
328.641569345
 30
0.0
  0
VERTEX
  8
0
 10
110.060405315
 20
328.639947841
 30
0.0
  0
VERTEX
  8
0
 10
110.110403276
 20
328.639860403
 30
0.0
  0
VERTEX
  8
0
 10
110.160380379
 20
328.641307113
 30
0.0
  0
VERTEX
  8
0
 10
110.210289561
 20
328.644286609
 30
0.0
  0
VERTEX
  8
0
 10
110.260083822
 20
328.648796085
 30
0.0
  0
VERTEX
  8
0
 10
110.309716271
 20
328.654831295
 30
0.0
  0
VERTEX
  8
0
 10
110.359140171
 20
328.662386555
 30
0.0
  0
VERTEX
  8
0
 10
110.408308978
 20
328.671454751
 30
0.0
  0
VERTEX
  8
0
 10
110.457176392
 20
328.682027343
 30
0.0
  0
VERTEX
  8
0
 10
110.505696394
 20
328.694094375
 30
0.0
  0
VERTEX
  8
0
 10
110.553823292
 20
328.707644483
 30
0.0
  0
VERTEX
  8
0
 10
110.601511767
 20
328.722664908
 30
0.0
  0
VERTEX
  8
0
 10
110.64871691
 20
328.739141505
 30
0.0
  0
VERTEX
  8
0
 10
110.69539427
 20
328.757058758
 30
0.0
  0
VERTEX
  8
0
 10
110.741499889
 20
328.776399794
 30
0.0
  0
VERTEX
  8
0
 10
110.786990351
 20
328.797146401
 30
0.0
  0
VERTEX
  8
0
 10
110.831822817
 20
328.81927904
 30
0.0
  0
VERTEX
  8
0
 10
110.87595507
 20
328.842776871
 30
0.0
  0
VERTEX
  8
0
 10
110.919345551
 20
328.867617765
 30
0.0
  0
VERTEX
  8
0
 10
110.961953398
 20
328.893778331
 30
0.0
  0
VERTEX
  8
0
 10
111.003738488
 20
328.921233931
 30
0.0
  0
VERTEX
  8
0
 10
111.044661473
 20
328.949958713
 30
0.0
  0
VERTEX
  8
0
 10
111.084683816
 20
328.979925626
 30
0.0
  0
VERTEX
  8
0
 10
111.123767828
 20
329.01110645
 30
0.0
  0
VERTEX
  8
0
 10
111.161876704
 20
329.043471824
 30
0.0
  0
VERTEX
  8
0
 10
111.198974557
 20
329.076991267
 30
0.0
  0
VERTEX
  8
0
 10
111.235026453
 20
329.111633216
 30
0.0
  0
VERTEX
  8
0
 10
111.269998441
 20
329.147365049
 30
0.0
  0
VERTEX
  8
0
 10
111.303857589
 20
329.184153116
 30
0.0
  0
VERTEX
  8
0
 10
111.336572011
 20
329.221962776
 30
0.0
  0
VERTEX
  8
0
 10
111.368110902
 20
329.260758423
 30
0.0
  0
VERTEX
  8
0
 10
111.39844456
 20
329.300503523
 30
0.0
  0
VERTEX
  8
0
 10
111.427544422
 20
329.341160648
 30
0.0
  0
VERTEX
  8
0
 10
111.455383083
 20
329.382691513
 30
0.0
  0
VERTEX
  8
0
 10
111.481934329
 20
329.425057008
 30
0.0
  0
VERTEX
  8
0
 10
111.507173156
 20
329.468217237
 30
0.0
  0
VERTEX
  8
0
 10
111.531075797
 20
329.512131558
 30
0.0
  0
VERTEX
  8
0
 10
111.553619744
 20
329.556758616
 30
0.0
  0
VERTEX
  8
0
 10
111.574783766
 20
329.602056386
 30
0.0
  0
VERTEX
  8
0
 10
111.594547934
 20
329.647982212
 30
0.0
  0
VERTEX
  8
0
 10
111.612893635
 20
329.694492845
 30
0.0
  0
VERTEX
  8
0
 10
111.629803595
 20
329.741544488
 30
0.0
  0
VERTEX
  8
0
 10
111.645261889
 20
329.789092831
 30
0.0
  0
VERTEX
  8
0
 10
111.65925396
 20
329.837093099
 30
0.0
  0
VERTEX
  8
0
 10
111.671766631
 20
329.885500091
 30
0.0
  0
VERTEX
  8
0
 10
111.682788121
 20
329.934268222
 30
0.0
  0
VERTEX
  8
0
 10
111.692308049
 20
329.983351567
 30
0.0
  0
VERTEX
  8
0
 10
111.700317451
 20
330.032703905
 30
0.0
  0
VERTEX
  8
0
 10
111.706808785
 20
330.082278762
 30
0.0
  0
VERTEX
  8
0
 10
111.711775937
 20
330.132029452
 30
0.0
  0
VERTEX
  8
0
 10
111.715214231
 20
330.181909127
 30
0.0
  0
VERTEX
  8
0
 10
111.717120429
 20
330.231870814
 30
0.0
  0
SEQEND
  8
0
  0
POLYLINE
  8
0
 62
0
 70
1
 66
1
 10
0.0
 20
0.0
 30
0.0
  0
VERTEX
  8
0
 10
125.994581042
 20
329.220000131
 30
0.0
  0
VERTEX
  8
0
 10
125.991740607
 20
329.269892394
 30
0.0
  0
VERTEX
  8
0
 10
125.983256006
 20
329.319139907
 30
0.0
  0
VERTEX
  8
0
 10
125.969236887
 20
329.367106253
 30
0.0
  0
VERTEX
  8
0
 10
125.949864415
 20
329.413171568
 30
0.0
  0
VERTEX
  8
0
 10
125.925388937
 20
329.45674056
 30
0.0
  0
VERTEX
  8
0
 10
125.896126748
 20
329.497250191
 30
0.0
  0
VERTEX
  8
0
 10
125.862455996
 20
329.534176964
 30
0.0
  0
VERTEX
  8
0
 10
125.824811805
 20
329.567043678
 30
0.0
  0
VERTEX
  8
0
 10
125.783680645
 20
329.595425602
 30
0.0
  0
VERTEX
  8
0
 10
125.739594046
 20
329.618955961
 30
0.0
  0
VERTEX
  8
0
 10
125.693121733
 20
329.637330676
 30
0.0
  0
VERTEX
  8
0
 10
125.644864261
 20
329.650312294
 30
0.0
  0
VERTEX
  8
0
 10
125.595445254
 20
329.657733054
 30
0.0
  0
VERTEX
  8
0
 10
125.545503345
 20
329.65949706
 30
0.0
  0
VERTEX
  8
0
 10
125.495683926
 20
329.655581515
 30
0.0
  0
VERTEX
  8
0
 10
125.446630805
 20
329.64603702
 30
0.0
  0
VERTEX
  8
0
 10
125.398977889
 20
329.630986917
 30
0.0
  0
VERTEX
  8
0
 10
125.353340989
 20
329.610625695
 30
0.0
  0
VERTEX
  8
0
 10
125.310309864
 20
329.58521648
 30
0.0
  0
VERTEX
  8
0
 10
125.270440597
 20
329.555087631
 30
0.0
  0
VERTEX
  8
0
 10
125.234248413
 20
329.520628499
 30
0.0
  0
VERTEX
  8
0
 10
125.202201018
 20
329.482284392
 30
0.0
  0
VERTEX
  8
0
 10
125.174712556
 20
329.440550827
 30
0.0
  0
VERTEX
  8
0
 10
125.152138256
 20
329.39596712
 30
0.0
  0
VERTEX
  8
0
 10
125.134769841
 20
329.349109418
 30
0.0
  0
VERTEX
  8
0
 10
125.122831762
 20
329.300583258
 30
0.0
  0
VERTEX
  8
0
 10
125.116478292
 20
329.251015734
 30
0.0
  0
VERTEX
  8
0
 10
125.115791536
 20
329.2010474
 30
0.0
  0
VERTEX
  8
0
 10
125.120780369
 20
329.15132399
 30
0.0
  0
VERTEX
  8
0
 10
125.13138032
 20
329.102488071
 30
0.0
  0
VERTEX
  8
0
 10
125.14745441
 20
329.055170741
 30
0.0
  0
VERTEX
  8
0
 10
125.168794914
 20
329.009983477
 30
0.0
  0
VERTEX
  8
0
 10
125.195126052
 20
328.967510224
 30
0.0
  0
VERTEX
  8
0
 10
125.226107552
 20
328.92829986
 30
0.0
  0
VERTEX
  8
0
 10
125.261339043
 20
328.892859093
 30
0.0
  0
VERTEX
  8
0
 10
125.300365236
 20
328.861645918
 30
0.0
  0
VERTEX
  8
0
 10
125.342681801
 20
328.8350637
 30
0.0
  0
VERTEX
  8
0
 10
125.387741887
 20
328.813455954
 30
0.0
  0
VERTEX
  8
0
 10
125.43496319
 20
328.797101916
 30
0.0
  0
VERTEX
  8
0
 10
125.483735476
 20
328.786212926
 30
0.0
  0
VERTEX
  8
0
 10
125.533428469
 20
328.7809297
 30
0.0
  0
VERTEX
  8
0
 10
125.583399993
 20
328.781320514
 30
0.0
  0
VERTEX
  8
0
 10
125.633004275
 20
328.787380315
 30
0.0
  0
VERTEX
  8
0
 10
125.681600286
 20
328.799030795
 30
0.0
  0
VERTEX
  8
0
 10
125.728560028
 20
328.816121397
 30
0.0
  0
VERTEX
  8
0
 10
125.773276647
 20
328.83843126
 30
0.0
  0
VERTEX
  8
0
 10
125.815172277
 20
328.865672078
 30
0.0
  0
VERTEX
  8
0
 10
125.853705507
 20
328.897491823
 30
0.0
  0
VERTEX
  8
0
 10
125.888378379
 20
328.933479293
 30
0.0
  0
VERTEX
  8
0
 10
125.91874282
 20
328.973169426
 30
0.0
  0
VERTEX
  8
0
 10
125.944406436
 20
329.016049315
 30
0.0
  0
VERTEX
  8
0
 10
125.965037579
 20
329.061564828
 30
0.0
  0
VERTEX
  8
0
 10
125.980369636
 20
329.109127776
 30
0.0
  0
VERTEX
  8
0
 10
125.990204475
 20
329.15812351
 30
0.0
  0
VERTEX
  8
0
 10
125.994414999
 20
329.207918866
 30
0.0
  0
SEQEND
  8
0
  0
POLYLINE
  8
0
 62
0
 70
1
 66
1
 10
0.0
 20
0.0
 30
0.0
  0
VERTEX
  8
0
 10
128.509835861
 20
329.220000131
 30
0.0
  0
VERTEX
  8
0
 10
128.506995426
 20
329.269892394
 30
0.0
  0
VERTEX
  8
0
 10
128.498510825
 20
329.319139907
 30
0.0
  0
VERTEX
  8
0
 10
128.484491706
 20
329.367106253
 30
0.0
  0
VERTEX
  8
0
 10
128.465119234
 20
329.413171568
 30
0.0
  0
VERTEX
  8
0
 10
128.440643756
 20
329.45674056
 30
0.0
  0
VERTEX
  8
0
 10
128.411381567
 20
329.497250191
 30
0.0
  0
VERTEX
  8
0
 10
128.377710815
 20
329.534176964
 30
0.0
  0
VERTEX
  8
0
 10
128.340066625
 20
329.567043678
 30
0.0
  0
VERTEX
  8
0
 10
128.298935464
 20
329.595425602
 30
0.0
  0
VERTEX
  8
0
 10
128.254848865
 20
329.618955961
 30
0.0
  0
VERTEX
  8
0
 10
128.208376552
 20
329.637330676
 30
0.0
  0
VERTEX
  8
0
 10
128.16011908
 20
329.650312294
 30
0.0
  0
VERTEX
  8
0
 10
128.110700073
 20
329.657733054
 30
0.0
  0
VERTEX
  8
0
 10
128.060758164
 20
329.65949706
 30
0.0
  0
VERTEX
  8
0
 10
128.010938745
 20
329.655581515
 30
0.0
  0
VERTEX
  8
0
 10
127.961885624
 20
329.64603702
 30
0.0
  0
VERTEX
  8
0
 10
127.914232709
 20
329.630986917
 30
0.0
  0
VERTEX
  8
0
 10
127.868595808
 20
329.610625695
 30
0.0
  0
VERTEX
  8
0
 10
127.825564683
 20
329.58521648
 30
0.0
  0
VERTEX
  8
0
 10
127.785695416
 20
329.555087631
 30
0.0
  0
VERTEX
  8
0
 10
127.749503232
 20
329.520628499
 30
0.0
  0
VERTEX
  8
0
 10
127.717455837
 20
329.482284392
 30
0.0
  0
VERTEX
  8
0
 10
127.689967375
 20
329.440550827
 30
0.0
  0
VERTEX
  8
0
 10
127.667393075
 20
329.39596712
 30
0.0
  0
VERTEX
  8
0
 10
127.65002466
 20
329.349109418
 30
0.0
  0
VERTEX
  8
0
 10
127.638086581
 20
329.300583258
 30
0.0
  0
VERTEX
  8
0
 10
127.631733111
 20
329.251015734
 30
0.0
  0
VERTEX
  8
0
 10
127.631046355
 20
329.2010474
 30
0.0
  0
VERTEX
  8
0
 10
127.636035188
 20
329.15132399
 30
0.0
  0
VERTEX
  8
0
 10
127.64663514
 20
329.102488071
 30
0.0
  0
VERTEX
  8
0
 10
127.662709229
 20
329.055170741
 30
0.0
  0
VERTEX
  8
0
 10
127.684049733
 20
329.009983477
 30
0.0
  0
VERTEX
  8
0
 10
127.710380871
 20
328.967510224
 30
0.0
  0
VERTEX
  8
0
 10
127.741362371
 20
328.92829986
 30
0.0
  0
VERTEX
  8
0
 10
127.776593862
 20
328.892859093
 30
0.0
  0
VERTEX
  8
0
 10
127.815620055
 20
328.861645918
 30
0.0
  0
VERTEX
  8
0
 10
127.85793662
 20
328.8350637
 30
0.0
  0
VERTEX
  8
0
 10
127.902996706
 20
328.813455954
 30
0.0
  0
VERTEX
  8
0
 10
127.950218009
 20
328.797101916
 30
0.0
  0
VERTEX
  8
0
 10
127.998990295
 20
328.786212926
 30
0.0
  0
VERTEX
  8
0
 10
128.048683288
 20
328.7809297
 30
0.0
  0
VERTEX
  8
0
 10
128.098654812
 20
328.781320514
 30
0.0
  0
VERTEX
  8
0
 10
128.148259094
 20
328.787380315
 30
0.0
  0
VERTEX
  8
0
 10
128.196855106
 20
328.799030795
 30
0.0
  0
VERTEX
  8
0
 10
128.243814847
 20
328.816121397
 30
0.0
  0
VERTEX
  8
0
 10
128.288531466
 20
328.83843126
 30
0.0
  0
VERTEX
  8
0
 10
128.330427096
 20
328.865672078
 30
0.0
  0
VERTEX
  8
0
 10
128.368960326
 20
328.897491823
 30
0.0
  0
VERTEX
  8
0
 10
128.403633198
 20
328.933479293
 30
0.0
  0
VERTEX
  8
0
 10
128.433997639
 20
328.973169426
 30
0.0
  0
VERTEX
  8
0
 10
128.459661255
 20
329.016049315
 30
0.0
  0
VERTEX
  8
0
 10
128.480292398
 20
329.061564828
 30
0.0
  0
VERTEX
  8
0
 10
128.495624455
 20
329.109127776
 30
0.0
  0
VERTEX
  8
0
 10
128.505459294
 20
329.15812351
 30
0.0
  0
VERTEX
  8
0
 10
128.509669818
 20
329.207918866
 30
0.0
  0
SEQEND
  8
0
  0
POLYLINE
  8
0
 62
0
 70
1
 66
1
 10
0.0
 20
0.0
 30
0.0
  0
VERTEX
  8
0
 10
131.040683055
 20
329.220000131
 30
0.0
  0
VERTEX
  8
0
 10
131.037842619
 20
329.269892394
 30
0.0
  0
VERTEX
  8
0
 10
131.029358019
 20
329.319139907
 30
0.0
  0
VERTEX
  8
0
 10
131.0153389
 20
329.367106253
 30
0.0
  0
VERTEX
  8
0
 10
130.995966427
 20
329.413171568
 30
0.0
  0
VERTEX
  8
0
 10
130.97149095
 20
329.45674056
 30
0.0
  0
VERTEX
  8
0
 10
130.942228761
 20
329.497250191
 30
0.0
  0
VERTEX
  8
0
 10
130.908558009
 20
329.534176964
 30
0.0
  0
VERTEX
  8
0
 10
130.870913818
 20
329.567043678
 30
0.0
  0
VERTEX
  8
0
 10
130.829782658
 20
329.595425602
 30
0.0
  0
VERTEX
  8
0
 10
130.785696059
 20
329.618955961
 30
0.0
  0
VERTEX
  8
0
 10
130.739223746
 20
329.637330676
 30
0.0
  0
VERTEX
  8
0
 10
130.690966274
 20
329.650312294
 30
0.0
  0
VERTEX
  8
0
 10
130.641547267
 20
329.657733054
 30
0.0
  0
VERTEX
  8
0
 10
130.591605358
 20
329.65949706
 30
0.0
  0
VERTEX
  8
0
 10
130.541785939
 20
329.655581515
 30
0.0
  0
VERTEX
  8
0
 10
130.492732818
 20
329.64603702
 30
0.0
  0
VERTEX
  8
0
 10
130.445079902
 20
329.630986917
 30
0.0
  0
VERTEX
  8
0
 10
130.399443002
 20
329.610625695
 30
0.0
  0
VERTEX
  8
0
 10
130.356411876
 20
329.58521648
 30
0.0
  0
VERTEX
  8
0
 10
130.316542609
 20
329.555087631
 30
0.0
  0
VERTEX
  8
0
 10
130.280350426
 20
329.520628499
 30
0.0
  0
VERTEX
  8
0
 10
130.248303031
 20
329.482284392
 30
0.0
  0
VERTEX
  8
0
 10
130.220814569
 20
329.440550827
 30
0.0
  0
VERTEX
  8
0
 10
130.198240268
 20
329.39596712
 30
0.0
  0
VERTEX
  8
0
 10
130.180871854
 20
329.349109418
 30
0.0
  0
VERTEX
  8
0
 10
130.168933775
 20
329.300583258
 30
0.0
  0
VERTEX
  8
0
 10
130.162580305
 20
329.251015734
 30
0.0
  0
VERTEX
  8
0
 10
130.161893549
 20
329.2010474
 30
0.0
  0
VERTEX
  8
0
 10
130.166882381
 20
329.15132399
 30
0.0
  0
VERTEX
  8
0
 10
130.177482333
 20
329.102488071
 30
0.0
  0
VERTEX
  8
0
 10
130.193556423
 20
329.055170741
 30
0.0
  0
VERTEX
  8
0
 10
130.214896926
 20
329.009983477
 30
0.0
  0
VERTEX
  8
0
 10
130.241228065
 20
328.967510224
 30
0.0
  0
VERTEX
  8
0
 10
130.272209564
 20
328.92829986
 30
0.0
  0
VERTEX
  8
0
 10
130.307441056
 20
328.892859093
 30
0.0
  0
VERTEX
  8
0
 10
130.346467249
 20
328.861645918
 30
0.0
  0
VERTEX
  8
0
 10
130.388783814
 20
328.8350637
 30
0.0
  0
VERTEX
  8
0
 10
130.4338439
 20
328.813455954
 30
0.0
  0
VERTEX
  8
0
 10
130.481065203
 20
328.797101916
 30
0.0
  0
VERTEX
  8
0
 10
130.529837489
 20
328.786212926
 30
0.0
  0
VERTEX
  8
0
 10
130.579530481
 20
328.7809297
 30
0.0
  0
VERTEX
  8
0
 10
130.629502006
 20
328.781320514
 30
0.0
  0
VERTEX
  8
0
 10
130.679106288
 20
328.787380315
 30
0.0
  0
VERTEX
  8
0
 10
130.727702299
 20
328.799030795
 30
0.0
  0
VERTEX
  8
0
 10
130.774662041
 20
328.816121397
 30
0.0
  0
VERTEX
  8
0
 10
130.81937866
 20
328.83843126
 30
0.0
  0
VERTEX
  8
0
 10
130.86127429
 20
328.865672078
 30
0.0
  0
VERTEX
  8
0
 10
130.89980752
 20
328.897491823
 30
0.0
  0
VERTEX
  8
0
 10
130.934480392
 20
328.933479293
 30
0.0
  0
VERTEX
  8
0
 10
130.964844833
 20
328.973169426
 30
0.0
  0
VERTEX
  8
0
 10
130.990508449
 20
329.016049315
 30
0.0
  0
VERTEX
  8
0
 10
131.011139592
 20
329.061564828
 30
0.0
  0
VERTEX
  8
0
 10
131.026471649
 20
329.109127776
 30
0.0
  0
VERTEX
  8
0
 10
131.036306487
 20
329.15812351
 30
0.0
  0
VERTEX
  8
0
 10
131.040517012
 20
329.207918866
 30
0.0
  0
SEQEND
  8
0
  0
POLYLINE
  8
0
 62
0
 70
1
 66
1
 10
0.0
 20
0.0
 30
0.0
  0
VERTEX
  8
0
 10
123.469402082
 20
329.220000131
 30
0.0
  0
VERTEX
  8
0
 10
123.466561647
 20
329.269892394
 30
0.0
  0
VERTEX
  8
0
 10
123.458077047
 20
329.319139907
 30
0.0
  0
VERTEX
  8
0
 10
123.444057927
 20
329.367106253
 30
0.0
  0
VERTEX
  8
0
 10
123.424685455
 20
329.413171568
 30
0.0
  0
VERTEX
  8
0
 10
123.400209978
 20
329.45674056
 30
0.0
  0
VERTEX
  8
0
 10
123.370947788
 20
329.497250191
 30
0.0
  0
VERTEX
  8
0
 10
123.337277037
 20
329.534176964
 30
0.0
  0
VERTEX
  8
0
 10
123.299632846
 20
329.567043678
 30
0.0
  0
VERTEX
  8
0
 10
123.258501685
 20
329.595425602
 30
0.0
  0
VERTEX
  8
0
 10
123.214415086
 20
329.618955961
 30
0.0
  0
VERTEX
  8
0
 10
123.167942774
 20
329.637330676
 30
0.0
  0
VERTEX
  8
0
 10
123.119685302
 20
329.650312294
 30
0.0
  0
VERTEX
  8
0
 10
123.070266294
 20
329.657733054
 30
0.0
  0
VERTEX
  8
0
 10
123.020324385
 20
329.65949706
 30
0.0
  0
VERTEX
  8
0
 10
122.970504966
 20
329.655581515
 30
0.0
  0
VERTEX
  8
0
 10
122.921451846
 20
329.64603702
 30
0.0
  0
VERTEX
  8
0
 10
122.87379893
 20
329.630986917
 30
0.0
  0
VERTEX
  8
0
 10
122.82816203
 20
329.610625695
 30
0.0
  0
VERTEX
  8
0
 10
122.785130904
 20
329.58521648
 30
0.0
  0
VERTEX
  8
0
 10
122.745261637
 20
329.555087631
 30
0.0
  0
VERTEX
  8
0
 10
122.709069453
 20
329.520628499
 30
0.0
  0
VERTEX
  8
0
 10
122.677022058
 20
329.482284392
 30
0.0
  0
VERTEX
  8
0
 10
122.649533596
 20
329.440550827
 30
0.0
  0
VERTEX
  8
0
 10
122.626959296
 20
329.39596712
 30
0.0
  0
VERTEX
  8
0
 10
122.609590881
 20
329.349109418
 30
0.0
  0
VERTEX
  8
0
 10
122.597652802
 20
329.300583258
 30
0.0
  0
VERTEX
  8
0
 10
122.591299332
 20
329.251015734
 30
0.0
  0
VERTEX
  8
0
 10
122.590612576
 20
329.2010474
 30
0.0
  0
VERTEX
  8
0
 10
122.595601409
 20
329.15132399
 30
0.0
  0
VERTEX
  8
0
 10
122.606201361
 20
329.102488071
 30
0.0
  0
VERTEX
  8
0
 10
122.62227545
 20
329.055170741
 30
0.0
  0
VERTEX
  8
0
 10
122.643615954
 20
329.009983477
 30
0.0
  0
VERTEX
  8
0
 10
122.669947092
 20
328.967510224
 30
0.0
  0
VERTEX
  8
0
 10
122.700928592
 20
328.92829986
 30
0.0
  0
VERTEX
  8
0
 10
122.736160084
 20
328.892859093
 30
0.0
  0
VERTEX
  8
0
 10
122.775186277
 20
328.861645918
 30
0.0
  0
VERTEX
  8
0
 10
122.817502841
 20
328.8350637
 30
0.0
  0
VERTEX
  8
0
 10
122.862562927
 20
328.813455954
 30
0.0
  0
VERTEX
  8
0
 10
122.90978423
 20
328.797101916
 30
0.0
  0
VERTEX
  8
0
 10
122.958556516
 20
328.786212926
 30
0.0
  0
VERTEX
  8
0
 10
123.008249509
 20
328.7809297
 30
0.0
  0
VERTEX
  8
0
 10
123.058221033
 20
328.781320514
 30
0.0
  0
VERTEX
  8
0
 10
123.107825316
 20
328.787380315
 30
0.0
  0
VERTEX
  8
0
 10
123.156421327
 20
328.799030795
 30
0.0
  0
VERTEX
  8
0
 10
123.203381069
 20
328.816121397
 30
0.0
  0
VERTEX
  8
0
 10
123.248097687
 20
328.83843126
 30
0.0
  0
VERTEX
  8
0
 10
123.289993317
 20
328.865672078
 30
0.0
  0
VERTEX
  8
0
 10
123.328526548
 20
328.897491823
 30
0.0
  0
VERTEX
  8
0
 10
123.363199419
 20
328.933479293
 30
0.0
  0
VERTEX
  8
0
 10
123.393563861
 20
328.973169426
 30
0.0
  0
VERTEX
  8
0
 10
123.419227476
 20
329.016049315
 30
0.0
  0
VERTEX
  8
0
 10
123.439858619
 20
329.061564828
 30
0.0
  0
VERTEX
  8
0
 10
123.455190677
 20
329.109127776
 30
0.0
  0
VERTEX
  8
0
 10
123.465025515
 20
329.15812351
 30
0.0
  0
VERTEX
  8
0
 10
123.46923604
 20
329.207918866
 30
0.0
  0
SEQEND
  8
0
  0
ENDBLK
  0
ENDSEC
  0
SECTION
  2
ENTITIES
  0
INSERT
  2
SCALE
  8
0
 62
0
 10
0.0
 20
0.0
 30
0.0
  0
ENDSEC
  0
EOF
